<?xml version="1.0" encoding="UTF-8"?>
<svg version="1.1" xmlns="http://www.w3.org/2000/svg" width="235" height="203">
<path d="M0 0 C5.40421122 -0.4323369 9.55562085 0.34233035 14.75 1.9375 C21.27590227 3.89181782 27.2045211 4.82014268 34 5 C35.07822021 5.0306958 35.07822021 5.0306958 36.17822266 5.06201172 C49.09150502 5.38358142 60.84027597 4.52242807 73.234375 0.5859375 C76.89470534 -0.18955622 80.2606022 -0.08751782 84 0 C84.50789062 1.05058594 85.01578125 2.10117188 85.5390625 3.18359375 C94.83423612 22.24210866 105.2960656 37.24317985 125.48046875 45.546875 C129 47 129 47 132 49 C131.70835808 54.63841041 130.73205993 58.71548107 128.4375 63.875 C121.71399874 82.11888646 125.88691267 102.78823338 131.44921875 120.77124023 C132 123 132 123 132 127 C130.83726562 127.44085938 129.67453125 127.88171875 128.4765625 128.3359375 C112.93052007 134.69114525 98.43788182 145.38948405 91.1875 161 C90.44031469 162.99333844 89.7100407 164.99313024 89 167 C88.06881527 168.95069322 87.11206214 170.88947703 86.125 172.8125 C85.71507812 173.62332031 85.30515625 174.43414062 84.8828125 175.26953125 C84.44582031 176.12611328 84.44582031 176.12611328 84 177 C78.62286515 176.19719293 73.42683969 174.87225147 68.18554688 173.4609375 C47.87647904 168.19198282 26.92686066 170.11035421 7.16870117 176.44921875 C5 177 5 177 1 177 C0.70867187 176.26136719 0.41734375 175.52273437 0.1171875 174.76171875 C-4.69771193 162.84559973 -9.86936345 153.16206731 -19 144 C-19.61488281 143.36191406 -20.22976562 142.72382813 -20.86328125 142.06640625 C-25.80728456 137.31296409 -31.56877028 134.48522756 -37.69921875 131.578125 C-41.25197983 129.8795268 -44.61900369 128.01249781 -48 126 C-47.81824219 125.47792969 -47.63648437 124.95585937 -47.44921875 124.41796875 C-46.91911385 122.86571287 -46.40199226 121.30898759 -45.89501953 119.74902344 C-45.34624723 118.06348713 -44.78213044 116.38273583 -44.19213867 114.71118164 C-41.63085147 106.68484581 -41.54147463 98.95163793 -41.60888672 90.61328125 C-41.6248798 88.26762887 -41.60901356 85.92372321 -41.58984375 83.578125 C-41.57305996 71.53749973 -43.00839388 60.43986085 -47 49 C-45.94941406 48.49210937 -44.89882813 47.98421875 -43.81640625 47.4609375 C-22.71249304 37.16045746 -8.77778292 25.04234249 -0.6875 2.3125 C-0.460625 1.549375 -0.23375 0.78625 0 0 Z " fill="#F39D11" transform="translate(72,12)"/>
<path d="M0 0 C5.40421122 -0.4323369 9.55562085 0.34233035 14.75 1.9375 C21.27590227 3.89181782 27.2045211 4.82014268 34 5 C35.07822021 5.0306958 35.07822021 5.0306958 36.17822266 5.06201172 C49.09150502 5.38358142 60.84027597 4.52242807 73.234375 0.5859375 C76.89470534 -0.18955622 80.2606022 -0.08751782 84 0 C84.50789062 1.05058594 85.01578125 2.10117188 85.5390625 3.18359375 C94.83423612 22.24210866 105.2960656 37.24317985 125.48046875 45.546875 C129 47 129 47 132 49 C131.70835808 54.63841041 130.73205993 58.71548107 128.4375 63.875 C121.71399874 82.11888646 125.88691267 102.78823338 131.44921875 120.77124023 C132 123 132 123 132 127 C130.83726562 127.44085938 129.67453125 127.88171875 128.4765625 128.3359375 C112.93052007 134.69114525 98.43788182 145.38948405 91.1875 161 C90.44031469 162.99333844 89.7100407 164.99313024 89 167 C88.06881527 168.95069322 87.11206214 170.88947703 86.125 172.8125 C85.71507812 173.62332031 85.30515625 174.43414062 84.8828125 175.26953125 C84.44582031 176.12611328 84.44582031 176.12611328 84 177 C78.62286515 176.19719293 73.42683969 174.87225147 68.18554688 173.4609375 C47.87647904 168.19198282 26.92686066 170.11035421 7.16870117 176.44921875 C5 177 5 177 1 177 C0.70867187 176.26136719 0.41734375 175.52273437 0.1171875 174.76171875 C-4.69771193 162.84559973 -9.86936345 153.16206731 -19 144 C-19.61488281 143.36191406 -20.22976562 142.72382813 -20.86328125 142.06640625 C-25.80728456 137.31296409 -31.56877028 134.48522756 -37.69921875 131.578125 C-41.25197983 129.8795268 -44.61900369 128.01249781 -48 126 C-47.81824219 125.47792969 -47.63648437 124.95585937 -47.44921875 124.41796875 C-46.91911385 122.86571287 -46.40199226 121.30898759 -45.89501953 119.74902344 C-45.34624723 118.06348713 -44.78213044 116.38273583 -44.19213867 114.71118164 C-41.63085147 106.68484581 -41.54147463 98.95163793 -41.60888672 90.61328125 C-41.6248798 88.26762887 -41.60901356 85.92372321 -41.58984375 83.578125 C-41.57305996 71.53749973 -43.00839388 60.43986085 -47 49 C-45.94941406 48.49210937 -44.89882813 47.98421875 -43.81640625 47.4609375 C-22.71249304 37.16045746 -8.77778292 25.04234249 -0.6875 2.3125 C-0.460625 1.549375 -0.23375 0.78625 0 0 Z M-12.76171875 42.0234375 C-26.11204948 59.77728046 -31.46418019 79.22401585 -28.71142578 101.31591797 C-25.87968807 118.04407592 -16.55896404 133.44923941 -3.47265625 144.24609375 C14.44256202 156.95372883 34.16000194 162.40863005 56.125 159.3125 C74.8487176 155.69341901 90.60337496 144.82618553 102.1171875 129.79296875 C113.68263781 112.63675097 117.29888217 93.22330065 113.41015625 73.03637695 C109.63726328 55.17198137 99.25071495 39.39760042 84.13256836 29.17675781 C78.37902964 25.45159927 72.39274787 22.48076783 66 20 C65.12859375 19.6596875 64.2571875 19.319375 63.359375 18.96875 C35.59208197 10.20013115 5.87769433 20.63611805 -12.76171875 42.0234375 Z " fill="#FCD74C" transform="translate(72,12)"/>
<path d="M0 0 C15.02204683 11.63648105 23.9130869 28.64859805 26.75 47.3125 C26.8325 48.55 26.915 49.7875 27 51.0625 C27.0515625 51.76890625 27.103125 52.4753125 27.15625 53.203125 C27.93627761 72.83381978 20.38123865 90.90795368 7.8046875 105.6328125 C2.52983179 111.2101689 -3.35085833 115.27149684 -10 119.0625 C-10.67804688 119.45179688 -11.35609375 119.84109375 -12.0546875 120.2421875 C-19.96573059 124.47672924 -29.00236927 127.67864203 -38 128.0625 C-39.06476563 128.12566406 -40.12953125 128.18882812 -41.2265625 128.25390625 C-60.58256242 128.88552309 -79.12802595 122.77111896 -93.8984375 110.05078125 C-107.30999062 97.36215572 -116.48289632 80.66871399 -117.3359375 62.01953125 C-117.71497898 40.58308763 -111.84293317 21.94225571 -97 6.0625 C-69.944096 -21.26040306 -30.56567841 -21.19672567 0 0 Z M-33 -9.9375 C-34.65 -3.3375 -36.3 3.2625 -38 10.0625 C-40.97 10.0625 -43.94 10.0625 -47 10.0625 C-48.52466933 10.18936699 -50.04849361 10.34228089 -51.5625 10.5625 C-53.2640625 10.81 -53.2640625 10.81 -55 11.0625 C-55.10957031 10.20527344 -55.21914062 9.34804688 -55.33203125 8.46484375 C-56.20241662 2.18816222 -57.10533931 -3.2797541 -60 -8.9375 C-61.37706825 -8.67738711 -62.75158555 -8.40376234 -64.125 -8.125 C-65.27355469 -7.89876953 -65.27355469 -7.89876953 -66.4453125 -7.66796875 C-69.67886203 -6.82818155 -69.67886203 -6.82818155 -75 -3.9375 C-70.545 5.4675 -70.545 5.4675 -66 15.0625 C-77.625 21.0625 -77.625 21.0625 -81 21.0625 C-83.16744966 19.11266577 -85.17849724 17.1637891 -87.1875 15.0625 C-88.02571289 14.20398437 -88.02571289 14.20398437 -88.88085938 13.328125 C-90.26073093 11.91287212 -91.63126734 10.48852845 -93 9.0625 C-94.32 10.3825 -95.64 11.7025 -97 13.0625 C-93.32167983 17.58865993 -89.58913637 21.45674999 -85 25.0625 C-86 28.0625 -86 28.0625 -88.4375 30.375 C-91.19551297 33.26755018 -91.88298584 35.29582436 -93 39.0625 C-93.90363281 38.7015625 -94.80726562 38.340625 -95.73828125 37.96875 C-96.91777344 37.5046875 -98.09726563 37.040625 -99.3125 36.5625 C-100.48425781 36.0984375 -101.65601563 35.634375 -102.86328125 35.15625 C-105.91846448 33.89787487 -105.91846448 33.89787487 -109 34.0625 C-109.99 37.6925 -110.98 41.3225 -112 45.0625 C-106.72086547 47.14636889 -101.60461531 47.64160004 -96 48.0625 C-96.144375 48.79855469 -96.28875 49.53460938 -96.4375 50.29296875 C-96.623125 51.26878906 -96.80875 52.24460938 -97 53.25 C-97.185625 54.21292969 -97.37125 55.17585938 -97.5625 56.16796875 C-97.706875 57.12316406 -97.85125 58.07835938 -98 59.0625 C-98.12375 59.8359375 -98.2475 60.609375 -98.375 61.40625 C-97.77195364 65.67782837 -95.34832926 68.82394535 -93 72.375 C-92.52304688 73.11556641 -92.04609375 73.85613281 -91.5546875 74.61914062 C-90.37985739 76.4401273 -89.19125606 78.25221624 -88 80.0625 C-89.56097474 81.1688219 -91.12385327 82.27245785 -92.6875 83.375 C-93.55761719 83.98988281 -94.42773438 84.60476562 -95.32421875 85.23828125 C-97.83250952 86.94831306 -100.38102199 88.52886423 -103 90.0625 C-101.47987323 95.46739519 -97.72614782 99.04742628 -94 103.0625 C-93.57589844 102.69898438 -93.15179688 102.33546875 -92.71484375 101.9609375 C-91.48125894 100.90357909 -90.2440106 99.85048574 -89.00390625 98.80078125 C-87.69214903 97.66290218 -86.40647157 96.49406791 -85.15234375 95.29296875 C-83.48645133 93.72959279 -81.92167874 92.2994951 -80 91.0625 C-77.0625 91.1875 -77.0625 91.1875 -75 92.0625 C-74.6596875 93.980625 -74.6596875 93.980625 -74.3125 95.9375 C-71.58267741 104.24508511 -62.0083541 109.53777432 -54.75 113.6875 C-46.67837674 116.64709519 -40.75194499 115.16135645 -33.0078125 111.6953125 C-28.17583456 109.07223876 -24.06183654 105.74667052 -20 102.0625 C-19.12601563 101.31419922 -19.12601563 101.31419922 -18.234375 100.55078125 C-16.13481478 98.01934946 -16.82248616 95.19857778 -17 92.0625 C-16.2575 91.77375 -15.515 91.485 -14.75 91.1875 C-12.43099801 90.23881737 -10.23067324 89.19690221 -8 88.0625 C-7.25234375 88.77277344 -6.5046875 89.48304688 -5.734375 90.21484375 C-4.73993866 91.14360976 -3.7451272 92.07197425 -2.75 93 C-2.25886719 93.46857422 -1.76773438 93.93714844 -1.26171875 94.41992188 C1.60870812 97.07985077 3.09916106 98.08729027 7 99.0625 C10.465 94.6075 10.465 94.6075 14 90.0625 C9.39486061 86.07137919 4.24516756 83.11793741 -1 80.0625 C-0.4225 79.22589844 0.155 78.38929687 0.75 77.52734375 C6.67284427 68.42928484 8.09394645 61.91080226 7 51.0625 C7.83144531 51.00191406 8.66289062 50.94132812 9.51953125 50.87890625 C10.60621094 50.79511719 11.69289063 50.71132812 12.8125 50.625 C13.89144531 50.54378906 14.97039062 50.46257812 16.08203125 50.37890625 C19.05989905 50.16037539 19.05989905 50.16037539 22 49.0625 C21.01 43.1225 21.01 43.1225 20 37.0625 C18.64455078 37.495625 18.64455078 37.495625 17.26171875 37.9375 C16.08222656 38.30875 14.90273437 38.68 13.6875 39.0625 C12.51574219 39.43375 11.34398437 39.805 10.13671875 40.1875 C7 41.0625 7 41.0625 4 41.0625 C3.04078278 39.31298432 2.08266183 37.56286756 1.125 35.8125 C0.59132813 34.83796875 0.05765625 33.8634375 -0.4921875 32.859375 C-1.70419466 30.61119592 -2.87547567 28.3552195 -4 26.0625 C-3.43796875 25.80726562 -2.8759375 25.55203125 -2.296875 25.2890625 C0.29386482 23.90557219 2.45107845 22.26311417 4.75 20.4375 C5.54921875 19.80585937 6.3484375 19.17421875 7.171875 18.5234375 C7.77515625 18.04132812 8.3784375 17.55921875 9 17.0625 C6.83735988 13.07868925 4.28788824 10.17266455 1 7.0625 C-2.38197228 8.18982409 -3.24057814 9.20432373 -5.5 11.875 C-6.0878125 12.56207031 -6.675625 13.24914062 -7.28125 13.95703125 C-8.91149424 15.95408044 -10.47060322 17.9875562 -12 20.0625 C-15.90166692 18.59937491 -19.54551489 16.79773694 -23.23046875 14.8671875 C-24.97944855 13.92451522 -24.97944855 13.92451522 -27 14.0625 C-26.75765625 13.5277002 -26.5153125 12.99290039 -26.265625 12.44189453 C-25.17322535 10.02548549 -24.08655096 7.60654421 -23 5.1875 C-22.42765625 3.92486328 -22.42765625 3.92486328 -21.84375 2.63671875 C-21.4828125 1.83105469 -21.121875 1.02539062 -20.75 0.1953125 C-20.41484375 -0.54831543 -20.0796875 -1.29194336 -19.734375 -2.05810547 C-18.87868259 -3.91167611 -18.87868259 -3.91167611 -19 -5.9375 C-20.9570868 -6.60781719 -22.91571113 -7.27364683 -24.875 -7.9375 C-25.96554688 -8.30875 -27.05609375 -8.68 -28.1796875 -9.0625 C-30.82620854 -10.036272 -30.82620854 -10.036272 -33 -9.9375 Z " fill="#B8621B" transform="translate(160,43.9375)"/>
<path d="M0 0 C1.753125 0.474375 3.50625 0.94875 5.3125 1.4375 C6.29863281 1.70433594 7.28476563 1.97117188 8.30078125 2.24609375 C10.21517526 2.78079425 12.11433615 3.37144538 14 4 C11.83836487 10.93998648 9.1063786 17.43117569 6 24 C6.60328125 24.18175781 7.2065625 24.36351563 7.828125 24.55078125 C12.10210307 25.89501629 15.52439351 27.08049055 19 30 C21.13585586 30.2348266 21.13585586 30.2348266 22.5859375 28.42578125 C23.47152344 27.37970703 23.47152344 27.37970703 24.375 26.3125 C24.99246094 25.58675781 25.60992187 24.86101563 26.24609375 24.11328125 C28.19461463 21.76550888 30.1215998 19.40435225 32 17 C35.21043882 18.38188453 37.04936365 19.92421903 39.25 22.625 C40.03117187 23.57246094 40.03117187 23.57246094 40.828125 24.5390625 C41.40820312 25.26222656 41.40820312 25.26222656 42 26 C38.50794062 29.59476701 34.95966325 32.92026191 31 36 C30.34 36 29.68 36 29 36 C29.40992188 36.74765625 29.81984375 37.4953125 30.2421875 38.265625 C30.78101563 39.25046875 31.31984375 40.2353125 31.875 41.25 C32.40867187 42.22453125 32.94234375 43.1990625 33.4921875 44.203125 C34.70419466 46.45130408 35.87547567 48.7072805 37 51 C42.39795989 49.84941444 47.70987333 48.57578241 53 47 C53.99 52.94 53.99 52.94 55 59 C49.80664042 60.25899626 45.36560695 61.12441987 40 61 C40.0928125 61.92039063 40.185625 62.84078125 40.28125 63.7890625 C40.92171077 75.01999956 38.20267746 80.59906698 32 90 C36.95 92.97 41.9 95.94 47 99 C41.375 107.875 41.375 107.875 38 109 C35.40625 107.19921875 35.40625 107.19921875 32.5 104.6875 C29.71045108 102.29913621 27.05690217 100.03793478 24 98 C23.05125 98.66 22.1025 99.32 21.125 100 C18 102 18 102 16 102 C16.185625 102.99 16.37125 103.98 16.5625 105 C16.55683599 107.80368687 16.13953873 108.82813315 14.34765625 111.03515625 C6.10908634 118.5497745 -3.94748651 125.74805405 -15.515625 125.4375 C-24.0446159 123.93553934 -33.16642512 117.2023641 -39 111 C-40.50896169 108.05981101 -41.41381038 105.24658864 -42 102 C-44.18546119 101.00377797 -44.18546119 101.00377797 -47 101 C-49.28390449 102.75297085 -51.14200619 104.39269216 -53.125 106.4375 C-55.03896454 108.36792369 -56.96587432 110.18899067 -59 112 C-62 112 -62 112 -63.53515625 110.64453125 C-64.29119141 109.73767578 -64.29119141 109.73767578 -65.0625 108.8125 C-65.56910156 108.22082031 -66.07570313 107.62914062 -66.59765625 107.01953125 C-68.15473906 104.77715851 -69.07561474 102.56085677 -70 100 C-68.989375 99.37351562 -67.97875 98.74703125 -66.9375 98.1015625 C-65.62476528 97.27641496 -64.31227795 96.45087377 -63 95.625 C-62.33226563 95.2125 -61.66453125 94.8 -60.9765625 94.375 C-59.28272806 93.30339045 -57.63691136 92.15669501 -56 91 C-56 88.07417674 -57.67324335 86.40324097 -59.25244141 84.04833984 C-63.43893281 77.70228671 -66.16795038 73.1890805 -64.6328125 65.3671875 C-64.42398438 64.58601563 -64.21515625 63.80484375 -64 63 C-63.66131509 61.33441259 -63.32648126 59.66802244 -63 58 C-63.65226562 57.95101562 -64.30453125 57.90203125 -64.9765625 57.8515625 C-69.93279853 57.42757771 -74.33019451 56.84334427 -79 55 C-78.01 51.37 -77.02 47.74 -76 44 C-72.10905678 44.77818864 -68.86563783 45.68873768 -65.1875 47.0625 C-64.21167969 47.42472656 -63.23585938 47.78695312 -62.23046875 48.16015625 C-61.49441406 48.43730469 -60.75835937 48.71445313 -60 49 C-59.773125 48.113125 -59.54625 47.22625 -59.3125 46.3125 C-57.8247191 42.55762439 -55.8215267 40.8215267 -53 38 C-52.54512117 33.89960682 -52.54512117 33.89960682 -55.40625 31.421875 C-56.42759482 30.51990814 -57.45932207 29.62959019 -58.5 28.75 C-59.02464844 28.29109375 -59.54929687 27.8321875 -60.08984375 27.359375 C-61.38449544 26.22949716 -62.69113659 25.11338381 -64 24 C-63.01 22.35 -62.02 20.7 -61 19 C-56.07401015 23.12174661 -51.49587978 27.41236757 -47 32 C-42.38 29.69 -37.76 27.38 -33 25 C-33.5775 23.80761719 -34.155 22.61523438 -34.75 21.38671875 C-35.50030441 19.82045829 -36.25028776 18.254044 -37 16.6875 C-37.57234375 15.50897461 -37.57234375 15.50897461 -38.15625 14.30664062 C-38.69765625 13.1706543 -38.69765625 13.1706543 -39.25 12.01171875 C-39.58515625 11.31522217 -39.9203125 10.61872559 -40.265625 9.90112305 C-41 8 -41 8 -41 5 C-39.25531628 4.29911844 -37.50398839 3.61475991 -35.75 2.9375 C-34.77546875 2.55464844 -33.8009375 2.17179687 -32.796875 1.77734375 C-29.95992605 0.98886213 -28.70590448 0.97562188 -26 2 C-25.32900016 4.60311992 -24.66304662 7.20735398 -24 9.8125 C-23.71382812 10.91948242 -23.71382812 10.91948242 -23.421875 12.04882812 C-22.64737086 15.10535341 -22 17.83373478 -22 21 C-21.443125 20.9278125 -20.88625 20.855625 -20.3125 20.78125 C-19.549375 20.6884375 -18.78625 20.595625 -18 20.5 C-17.2575 20.4071875 -16.515 20.314375 -15.75 20.21875 C-12.17721041 19.93455083 -8.58407514 20 -5 20 C-3.35 13.4 -1.7 6.8 0 0 Z M-49.3125 40.75 C-57.0199533 48.86310874 -59.37076558 57.70862429 -59.28515625 68.60546875 C-58.33753827 79.886017 -51.26979294 88.77740617 -43 96 C-41.72769531 96.70962891 -41.72769531 96.70962891 -40.4296875 97.43359375 C-37.57041947 99.27694822 -36.63010804 100.88518524 -35.0625 103.875 C-32.53045927 108.37494803 -30.11185031 110.94001838 -26 114 C-25.67 114.66 -25.34 115.32 -25 116 C-24.41992188 115.79503906 -23.83984375 115.59007812 -23.2421875 115.37890625 C-11.57398799 111.35472523 -11.57398799 111.35472523 -7.9609375 112.8359375 C-6.56564005 113.55134456 -5.18731886 114.30126418 -3.83203125 115.08984375 C-1.89315827 116.22246035 -1.89315827 116.22246035 1 116 C3.02577971 114.33961107 3.02577971 114.33961107 5 112.1875 C5.680625 111.47980469 6.36125 110.77210938 7.0625 110.04296875 C7.701875 109.36878906 8.34125 108.69460937 9 108 C9.52464844 107.50371094 10.04929687 107.00742188 10.58984375 106.49609375 C12.22945528 104.75656129 13.33257318 102.92365422 14.5625 100.875 C17.00379485 97.10930269 19.66020203 94.35881834 23.0625 91.4375 C29.51066942 85.88140815 34.48139082 79.27654686 35.3359375 70.58203125 C35.47076001 57.57165857 32.30229519 48.55409847 23.1875 39.125 C14.18711738 30.70528722 4.24032531 27 -8 27 C-9.65 32.94 -11.3 38.88 -13 45 C-15.97 36.09 -15.97 36.09 -19 27 C-30.20709974 27 -41.31553258 33.36360179 -49.3125 40.75 Z " fill="#FDDD51" transform="translate(127,34)"/>
<path d="M0 0 C4.73086689 1.32660807 7.90207334 3.35485489 11.875 6.1875 C15.19168472 8.28307219 15.19168472 8.28307219 19 9 C23.72611099 7.66289939 27.58656155 4.80262896 31.56640625 2.01953125 C35 0 35 0 37.2109375 0.484375 C37.80132812 0.98453125 38.39171875 1.4846875 39 2 C39.67160156 2.53496094 40.34320313 3.06992188 41.03515625 3.62109375 C41.70417969 4.22050781 42.37320313 4.81992188 43.0625 5.4375 C43.73410156 6.03433594 44.40570313 6.63117188 45.09765625 7.24609375 C45.72542969 7.82488281 46.35320312 8.40367188 47 9 C47.52529297 9.45189697 48.05058594 9.90379395 48.59179688 10.36938477 C51.05255487 13.21879577 50.48288769 16.91034604 50.4375 20.5 C50.43137695 21.31009521 50.42525391 22.12019043 50.41894531 22.95483398 C50.24669118 29.59655573 48.88869146 34.99663102 46 41 C45.28936932 42.58230357 44.58094659 44.16560107 43.875 45.75 C43.53855469 46.47445312 43.20210937 47.19890625 42.85546875 47.9453125 C41.84314673 50.20963073 41.84314673 50.20963073 41.1875 53.625 C39.57790379 58.19964186 36.77977157 61.01995738 33 64 C29.35839192 65.21386936 28.66834531 64.6674695 25.3125 63.0625 C24.10013672 62.49208984 24.10013672 62.49208984 22.86328125 61.91015625 C22.24839844 61.60980469 21.63351563 61.30945313 21 61 C21.32989403 55.55674846 24.45737227 52.84412796 28 49 C22.06 49 16.12 49 10 49 C10.99 50.051875 11.98 51.10375 13 52.1875 C15.94793497 55.59215729 15.94793497 55.59215729 16.375 58.9375 C16.25125 59.618125 16.1275 60.29875 16 61 C10.87875536 63.97746781 10.87875536 63.97746781 7.5625 64.0625 C1.93426941 61.72884341 -1.04933237 59.06883385 -3.640625 53.4296875 C-4.99116577 49.96574997 -6.17208799 46.45067559 -7.33447266 42.91992188 C-8.20661477 40.40395505 -9.30887243 38.00150062 -10.375 35.5625 C-12.8482269 28.53556348 -13.78780962 20.30662072 -12 13 C-9.5557496 8.90463351 -6.64472747 6.03412546 -3 3 C-1.99014851 2.00994952 -0.98554441 1.01424958 0 0 Z " fill="#FDDD51" transform="translate(96,80)"/>
<path d="M0 0 C5.19210472 3.80304814 10.15609762 7.76158542 15 12 C11.40352187 21.04316755 0.14495981 27.01696608 -8.36450195 30.79248047 C-26.05942388 38.17454908 -45.36213029 38.1595269 -63.18798828 31.13818359 C-71.34199043 27.64361124 -78.24365348 23.90761582 -84 17 C-81.93953692 12.35885792 -78.66049917 9.42141251 -75 6 C-74.29875 5.34 -73.5975 4.68 -72.875 4 C-71 3 -71 3 -68.375 3.125 C-66 4 -66 4 -64 7 C-63.76796875 8.10859375 -63.5359375 9.2171875 -63.296875 10.359375 C-61.61203635 15.08910279 -59.34436342 16.59373944 -55.25 19.25 C-54.6415625 19.67023438 -54.033125 20.09046875 -53.40625 20.5234375 C-46.74532302 25.04945199 -41.2060647 28.30693833 -33 27 C-23.44406973 24.21446567 -15.98656913 18.98656913 -9 12 C-8.95875 10.906875 -8.9175 9.81375 -8.875 8.6875 C-8 5 -8 5 -6.16015625 3.4296875 C-4.14319784 2.18902767 -2.12232312 1.04907544 0 0 Z " fill="#F39D11" transform="translate(151,131)"/>
<path d="M0 0 C9.47979244 3.89640148 17.52189989 7.23968391 24.0078125 15.4921875 C26.10452606 18.13157987 28.39304784 20.28671639 30.875 22.5625 C34.43770914 26.07598346 36.03684215 28.78601878 37.24609375 33.59765625 C38.49133675 37.56565855 40.74415446 40.97785485 42.890625 44.51953125 C44 47 44 47 43.734375 49.26171875 C43 51 43 51 42 52 C38.59542839 52.77478216 36.13942381 52.54234767 33 51 C31.02160959 48.0943564 29.53010519 45.22714701 28.01245117 42.07177734 C20.45034849 26.35490167 7.62068127 17.06254206 -8 10 C-6.76044505 6.28133515 -4.81445146 4.67716114 -2 2 C-1.34 1.34 -0.68 0.68 0 0 Z " fill="#FDDD55" transform="translate(149,24)"/>
<path d="M0 0 C1.31746333 2.58090767 2.62909617 5.16450458 3.9375 7.75 C4.31068359 8.47960938 4.68386719 9.20921875 5.06835938 9.9609375 C5.42607422 10.66992188 5.78378906 11.37890625 6.15234375 12.109375 C6.6472229 13.08342285 6.6472229 13.08342285 7.15209961 14.07714844 C8.01452116 16.03293079 8.54374179 17.91540694 9 20 C3.31497465 18.35433477 -1.76681636 15.70967216 -7 13 C-7.78375 13.99 -8.5675 14.98 -9.375 16 C-10.24125 16.99 -11.1075 17.98 -12 19 C-12.66 19 -13.32 19 -14 19 C-14 19.66 -14 20.32 -14 21 C-17.7212603 20.52494549 -21.25256768 19.93967484 -24.875 18.96875 C-31.22597167 17.53715983 -37.58607253 17.78548 -44.0625 17.875 C-45.30966797 17.88402344 -46.55683594 17.89304687 -47.84179688 17.90234375 C-50.89473504 17.92573791 -53.94726306 17.95851826 -57 18 C-48.46101821 9.38791049 -43.23172835 6.29128455 -31 5 C-24.07338701 4.00180389 -17.44177529 2.70635001 -10.765625 0.5859375 C-7.10529466 -0.18955622 -3.7393978 -0.08751782 0 0 Z " fill="#FCCE3F" transform="translate(156,12)"/>
<path d="M0 0 C1.69189453 0.433125 1.69189453 0.433125 3.41796875 0.875 C15.77318422 3.85139329 27.3247844 4.45403757 40 4 C38.05847374 12.41328048 38.05847374 12.41328048 34 15 C30.73016181 15.48671046 27.48736853 15.40746432 24.1875 15.375 C12.61734996 15.53734373 2.2362227 18.10114904 -8.78369141 21.46508789 C-11 22 -11 22 -15 22 C-15.32613281 21.20335937 -15.65226562 20.40671875 -15.98828125 19.5859375 C-18.72612879 12.93278429 -18.72612879 12.93278429 -21.8125 6.4375 C-23 4 -23 4 -23 1 C-17.87479709 1.70597607 -14.60492772 4.04933285 -10.40234375 6.91796875 C-8.10883992 8.23783923 -8.10883992 8.23783923 -5.94140625 7.55078125 C-3.28449677 5.4284612 -1.75652828 2.88572503 0 0 Z " fill="#FCCE3D" transform="translate(88,167)"/>
<path d="M0 0 C1.41805831 0.28482368 2.83440379 0.57818144 4.25 0.875 C5.03890625 1.03742188 5.8278125 1.19984375 6.640625 1.3671875 C10.252963 2.33605961 12.34667581 2.95652164 14.38671875 6.21484375 C14.81597656 7.11332031 15.24523438 8.01179687 15.6875 8.9375 C23.96704559 24.791066 36.72250258 33.72285443 52 42 C48.68065797 48.4015882 48.68065797 48.4015882 46.125 50.6484375 C42.69111746 51.21654307 40.84072515 49.47857316 38 47.625 C33.40927213 44.55855563 33.40927213 44.55855563 28 44 C25.9921875 41.91015625 25.9921875 41.91015625 23.875 39.0625 C20.72770694 34.99290417 17.58952569 31.64979096 13.625 28.375 C9.67992719 24.94582133 7.93316801 22.51491795 6.71484375 17.47265625 C5.49125848 13.24025475 3.26618922 9.47939284 1.20703125 5.6015625 C0 3 0 3 0 0 Z " fill="#FDDE57" transform="translate(36,125)"/>
<path d="M0 0 C5.28 0.99 10.56 1.98 16 3 C15.62875 5.31 15.2575 7.62 14.875 10 C13.74494878 20.3072737 19.01813083 27.09426078 25 35 C21.87332036 37.53112161 18.73222323 40.00332876 15.4375 42.3125 C14.69371094 42.84488281 13.94992188 43.37726563 13.18359375 43.92578125 C11 45 11 45 8.88671875 44.984375 C3.98060328 42.42466258 2.39714345 34.19143035 0.75 29.25 C-1.32436164 19.648669 -1.34078831 9.68347113 0 0 Z " fill="#F39D11" transform="translate(48,89)"/>
<path d="M0 0 C0.47236082 14.60819584 -0.58198107 27.01113682 -8 40 C-11.79049707 38.57250019 -15.27122456 36.83763458 -18.8125 34.875 C-19.78832031 34.33617187 -20.76414063 33.79734375 -21.76953125 33.2421875 C-22.50558594 32.83226562 -23.24164063 32.42234375 -24 32 C-23.59007812 31.25234375 -23.18015625 30.5046875 -22.7578125 29.734375 C-21.94957031 28.25710937 -21.94957031 28.25710937 -21.125 26.75 C-20.59132812 25.77546875 -20.05765625 24.8009375 -19.5078125 23.796875 C-19.01023438 22.87390625 -18.51265625 21.9509375 -18 21 C-17.6184375 20.38125 -17.236875 19.7625 -16.84375 19.125 C-15.57157552 15.92100502 -15.52945406 12.65442495 -15.375 9.25 C-15.31699219 8.20392578 -15.31699219 8.20392578 -15.2578125 7.13671875 C-15.16401376 5.42489182 -15.08093826 3.71248318 -15 2 C-13.06302033 1.66365624 -11.12539514 1.33102835 -9.1875 1 C-7.56908203 0.7215625 -7.56908203 0.7215625 -5.91796875 0.4375 C-3 0 -3 0 0 0 Z " fill="#F39D11" transform="translate(182,93)"/>
<path d="M0 0 C-1.70212766 17.70212766 -1.70212766 17.70212766 -5 21 C-7.86267567 21.07325168 -10.700719 21.09238205 -13.5625 21.0625 C-14.36880859 21.05798828 -15.17511719 21.05347656 -16.00585938 21.04882812 C-18.00393756 21.03700518 -20.00197783 21.01906914 -22 21 C-22.27714844 19.81921875 -22.55429688 18.6384375 -22.83984375 17.421875 C-23.2057143 15.86457984 -23.57160054 14.30728837 -23.9375 12.75 C-24.11990234 11.97269531 -24.30230469 11.19539063 -24.49023438 10.39453125 C-24.75610352 9.26337891 -24.75610352 9.26337891 -25.02734375 8.109375 C-25.27085571 7.07248535 -25.27085571 7.07248535 -25.51928711 6.01464844 C-25.9985662 4.00600899 -26.49546602 2.00243058 -27 0 C-17.81819633 -1.11139151 -9.1775727 -0.8149484 0 0 Z " fill="#F39D11" transform="translate(127,34)"/>
<path d="M0 0 C3.94525179 3.38663207 5.69994213 7.09557676 7.75 11.75 C8.06582031 12.44738281 8.38164063 13.14476562 8.70703125 13.86328125 C9.47941952 15.57189773 10.24082982 17.28546959 11 19 C8.37600067 20.74933288 5.80525467 22.19732575 3 23.625 C2.13375 24.07101563 1.2675 24.51703125 0.375 24.9765625 C-2 26 -2 26 -5 26 C-7.16744966 24.05016577 -9.17849724 22.1012891 -11.1875 20 C-11.74630859 19.42765625 -12.30511719 18.8553125 -12.88085938 18.265625 C-14.26073093 16.85037212 -15.63126734 15.42602845 -17 14 C-15.51889439 10.23517848 -13.51225319 8.66563295 -10.1875 6.4375 C-9.33542969 5.85871094 -8.48335937 5.27992187 -7.60546875 4.68359375 C-5.10117926 3.0653797 -2.56706701 1.51627477 0 0 Z " fill="#F39D11" transform="translate(84,40)"/>
<path d="M0 0 C4.36534836 1.2979808 7.92104178 2.97829341 11.75 5.4375 C12.69359375 6.03433594 13.6371875 6.63117187 14.609375 7.24609375 C17 9 17 9 19 12 C18.38511719 12.67546875 17.77023438 13.3509375 17.13671875 14.046875 C16.32847656 14.93890625 15.52023438 15.8309375 14.6875 16.75 C13.48673828 18.07257812 13.48673828 18.07257812 12.26171875 19.421875 C10.39083089 21.55449328 8.65915714 23.70187943 7 26 C3.45756548 24.63408831 0.07372071 23.09068516 -3.3125 21.375 C-4.19550781 20.92898437 -5.07851562 20.48296875 -5.98828125 20.0234375 C-6.65214844 19.68570313 -7.31601563 19.34796875 -8 19 C-6.00386732 12.2813095 -3.2708579 6.19265192 0 0 Z " fill="#F39D11" transform="translate(141,39)"/>
<path d="M0 0 C1.83203125 0.01953125 1.83203125 0.01953125 4 1 C5.43242654 3.23909324 6.57052115 5.30023148 7.6875 7.6875 C7.99494141 8.30044922 8.30238281 8.91339844 8.61914062 9.54492188 C10.46002985 13.34351825 11.51748589 16.81177751 12 21 C10.08802961 21.70045456 8.17019565 22.384919 6.25 23.0625 C5.18265625 23.44535156 4.1153125 23.82820313 3.015625 24.22265625 C-1.41186788 25.36394004 -1.41186788 25.36394004 -4 24 C-5.66796875 21.63671875 -5.66796875 21.63671875 -7.1875 18.6875 C-7.69667969 17.72199219 -8.20585937 16.75648437 -8.73046875 15.76171875 C-9.78432368 13.46917894 -10.51462227 11.46197621 -11 9 C-9.93458984 8.15115234 -9.93458984 8.15115234 -8.84765625 7.28515625 C-7.92855469 6.55167969 -7.00945312 5.81820312 -6.0625 5.0625 C-5.14597656 4.33160156 -4.22945312 3.60070312 -3.28515625 2.84765625 C-1.59148731 1.48061289 -1.59148731 1.48061289 0 0 Z " fill="#F39D11" transform="translate(167,61)"/>
<path d="M0 0 C3.71045247 1.57780923 6.29906384 3.90703248 9.25 6.625 C10.14203125 7.44226563 11.0340625 8.25953125 11.953125 9.1015625 C12.96632813 10.04128906 12.96632813 10.04128906 14 11 C13.34 12.32 12.68 13.64 12 15 C11.34 15 10.68 15 10 15 C9.731875 15.53625 9.46375 16.0725 9.1875 16.625 C7.79166667 19.41666667 6.39583333 22.20833333 5 25 C1.21760329 24.34309381 -2.21841526 23.279869 -5.8125 21.9375 C-6.78832031 21.57527344 -7.76414063 21.21304688 -8.76953125 20.83984375 C-9.50558594 20.56269531 -10.24164063 20.28554687 -11 20 C-9.73412642 17.41412997 -8.46254151 14.83134499 -7.1875 12.25 C-6.83107422 11.52039063 -6.47464844 10.79078125 -6.10742188 10.0390625 C-4.32469483 6.44089782 -2.58911661 3.10367291 0 0 Z " fill="#F39D11" transform="translate(62,58)"/>
<path d="M0 0 C6.43255401 -0.12086218 12.61773055 0.17648136 19 1 C18.01 1.66 17.02 2.32 16 3 C14.18314806 4.30646911 12.37113307 5.61967645 10.5625 6.9375 C9.14130859 7.97197266 9.14130859 7.97197266 7.69140625 9.02734375 C6.10405324 10.19078826 4.53308928 11.37827992 3.00390625 12.6171875 C0.56752264 14.29843467 -1.83565906 15.20634369 -4.625 16.1875 C-5.58664063 16.53167969 -6.54828125 16.87585938 -7.5390625 17.23046875 C-10 18 -10 18 -12 18 C-13.5078125 16.3203125 -13.5078125 16.3203125 -15.125 14.125 C-15.66382812 13.40570313 -16.20265625 12.68640625 -16.7578125 11.9453125 C-18 10 -18 10 -18 8 C-9.09 4.535 -9.09 4.535 0 1 C0 0.67 0 0.34 0 0 Z " fill="#FDEB75" transform="translate(96,17)"/>
<path d="M0 0 C3.74839 0.55604389 6.09086464 1.5384689 9.1875 3.6875 C16.50026713 8.2844145 24.80165377 10.48155377 33 13 C32.67 13.99 32.34 14.98 32 16 C29.26449123 16.86794042 26.67187821 17.54036827 23.875 18.125 C23.12734375 18.29386719 22.3796875 18.46273437 21.609375 18.63671875 C17.09198123 19.6362118 12.58738149 20.40376209 8 21 C7.67386719 20.20335937 7.34773438 19.40671875 7.01171875 18.5859375 C4.27387121 11.93278429 4.27387121 11.93278429 1.1875 5.4375 C0 3 0 3 0 0 Z " fill="#F4A627" transform="translate(65,168)"/>
<path d="M0 0 C1.31746333 2.58090767 2.62909617 5.16450458 3.9375 7.75 C4.31068359 8.47960938 4.68386719 9.20921875 5.06835938 9.9609375 C5.60493164 11.02441406 5.60493164 11.02441406 6.15234375 12.109375 C6.48226318 12.75874023 6.81218262 13.40810547 7.15209961 14.07714844 C8.01452116 16.03293079 8.54374179 17.91540694 9 20 C4.92852611 18.73850075 1.3126467 17.20353631 -2.4375 15.1875 C-9.38069049 11.63293581 -16.57026899 9.2938787 -24 7 C-24 6.34 -24 5.68 -24 5 C-21.50418638 4.15190799 -19.00455875 3.32153079 -16.5 2.5 C-15.80390625 2.26152344 -15.1078125 2.02304688 -14.390625 1.77734375 C-9.40894354 0.16290994 -5.23469533 -0.23579709 0 0 Z " fill="#F4A627" transform="translate(156,12)"/>
<path d="M0 0 C5.39026228 0.52895097 9.24229489 2.46333696 13.875 5.0625 C14.56335938 5.43955078 15.25171875 5.81660156 15.9609375 6.20507812 C17.6449213 7.12893035 19.32307467 8.06339667 21 9 C20.5003731 16.49440349 18.56235522 22.95650263 16 30 C15.01 30 14.02 30 13 30 C12.731875 29.2471875 12.46375 28.494375 12.1875 27.71875 C9.17176872 19.54453101 5.55501926 11.88064596 1.57421875 4.140625 C0 1 0 1 0 0 Z " fill="#F3A524" transform="translate(183,52)"/>
<path d="M0 0 C6.00498601 -0.25668107 10.75223537 0.48874258 16.4375 2.375 C17.15615234 2.59671875 17.87480469 2.8184375 18.61523438 3.046875 C20.43318208 3.63054093 22.2203632 4.30826838 24 5 C24.33 5.66 24.66 6.32 25 7 C23.91203125 7.35191406 22.8240625 7.70382813 21.703125 8.06640625 C13.2871247 10.86789939 5.80990466 13.86047917 -1.6796875 18.6796875 C-4 20 -4 20 -7 20 C-6.29937517 15.43263559 -4.68729793 11.4300495 -2.9375 7.1875 C-2.51500977 6.14819336 -2.51500977 6.14819336 -2.08398438 5.08789062 C-1.39325027 3.39032376 -0.69716272 1.69493688 0 0 Z " fill="#F3A423" transform="translate(72,12)"/>
<path d="M0 0 C0.66 0 1.32 0 2 0 C2.35191406 0.8971875 2.70382813 1.794375 3.06640625 2.71875 C6.82748084 12.24517299 10.84281403 21.64018189 15 31 C9.80771145 30.42770367 5.6896297 27.9017839 1.1875 25.4375 C0.39923828 25.01275391 -0.38902344 24.58800781 -1.20117188 24.15039062 C-3.1373378 23.10603446 -5.07005367 22.0557923 -7 21 C-6.80229004 20.41992188 -6.60458008 19.83984375 -6.40087891 19.2421875 C-4.60796943 13.93245924 -3.05030588 8.61408727 -1.6484375 3.1875 C-1 1 -1 1 0 0 Z " fill="#F4A526" transform="translate(31,117)"/>
<path d="M0 0 C-0.78360786 7.64017665 -4.54112812 14.25519983 -8 21 C-12.82995456 20.25458969 -17.56193863 19.25752691 -22.3125 18.125 C-23.04017578 17.96386719 -23.76785156 17.80273438 -24.51757812 17.63671875 C-26.61328125 17.1328125 -26.61328125 17.1328125 -30 16 C-30.33 15.01 -30.66 14.02 -31 13 C-29.82824219 12.64808594 -28.65648437 12.29617187 -27.44921875 11.93359375 C-18.84530519 9.26044429 -11.35326486 6.5851981 -3.96875 1.3203125 C-2 0 -2 0 0 0 Z " fill="#F4A627" transform="translate(164,168)"/>
<path d="M0 0 C-0.56593496 4.91231545 -2.15159809 8.91924746 -4.3125 13.3125 C-4.94593187 14.63251546 -5.57874617 15.95282746 -6.2109375 17.2734375 C-6.51741211 17.90862305 -6.82388672 18.54380859 -7.13964844 19.19824219 C-8.84162736 22.76254539 -10.4136816 26.38319404 -12 30 C-12.99 30 -13.98 30 -15 30 C-15.19335938 28.98679687 -15.38671875 27.97359375 -15.5859375 26.9296875 C-15.84874923 25.57808432 -16.11178183 24.22652408 -16.375 22.875 C-16.50132813 22.20984375 -16.62765625 21.5446875 -16.7578125 20.859375 C-17.5574274 16.781339 -18.59869485 12.91146915 -20 9 C-2 0 -2 0 0 0 Z " fill="#F4A526" transform="translate(45,52)"/>
<path d="M0 0 C0.66 0 1.32 0 2 0 C2.84145956 3.08117427 3.67173062 6.16525621 4.5 9.25 C4.73847656 10.12269531 4.97695312 10.99539062 5.22265625 11.89453125 C5.44824219 12.73886719 5.67382812 13.58320313 5.90625 14.453125 C6.11572266 15.22817383 6.32519531 16.00322266 6.54101562 16.80175781 C7 19 7 19 7 23 C4.42362412 24.36907416 1.84031896 25.72028455 -0.75 27.0625 C-1.47960937 27.45244141 -2.20921875 27.84238281 -2.9609375 28.24414062 C-3.66992188 28.60830078 -4.37890625 28.97246094 -5.109375 29.34765625 C-5.75874023 29.68804932 -6.40810547 30.02844238 -7.07714844 30.37915039 C-9.41991018 31.13558044 -10.70456573 30.78821819 -13 30 C-12.71278076 29.410979 -12.42556152 28.82195801 -12.12963867 28.21508789 C-10.80987152 25.50029787 -9.49865476 22.78145932 -8.1875 20.0625 C-7.73568359 19.13630859 -7.28386719 18.21011719 -6.81835938 17.25585938 C-4.095681 11.59189342 -1.85412635 6.00589101 0 0 Z " fill="#F4A525" transform="translate(197,116)"/>
<path d="M0 0 C2.8125 0.5625 2.8125 0.5625 6 2 C7.44088563 4.28536073 8.13569208 6.40707624 9 9 C7.17642823 11.12139528 5.64727195 12.18169749 3.12597656 13.48046875 C-0.4463213 15.36527909 -3.15268618 17.12121256 -6 20 C-7.62056622 25.3723689 -7.46328055 30.43829944 -7.25 36 C-7.23800693 37.45699644 -7.23144949 38.91404828 -7.23046875 40.37109375 C-7.2163589 43.91688858 -7.12856119 47.45629353 -7 51 C-7.33 51 -7.66 51 -8 51 C-8 39.45 -8 27.9 -8 16 C-7.34 16 -6.68 16 -6 16 C-5.81824219 15.43152344 -5.63648438 14.86304687 -5.44921875 14.27734375 C-3.85915366 9.39298997 -2.09540222 4.68970973 0 0 Z " fill="#FDEE8C" transform="translate(39,66)"/>
<path d="M0 0 C-0.33250297 4.54420723 -1.4997221 7.95975174 -4.19140625 11.5859375 C-7.83077988 14.43140889 -12.55129969 14.05453748 -17 14 C-17 11.36 -17 8.72 -17 6 C-14.73192796 4.9932996 -12.46092246 3.99448234 -10.1875 3 C-9.22360352 2.57074219 -9.22360352 2.57074219 -8.24023438 2.1328125 C-5.32243531 0.86288959 -3.21734286 0 0 0 Z " fill="#F39D11" transform="translate(141,97)"/>
<path d="M0 0 C6.10556566 1.07412729 11.75470637 2.57450212 17 6 C18.35439668 8.70879335 18.06501451 11.00933268 18 14 C7.39954343 13.32373483 7.39954343 13.32373483 4.125 10.2265625 C2.06506619 6.92821611 0.84165104 3.79168043 0 0 Z " fill="#F39D11" transform="translate(88,97)"/>
<path d="M0 0 C1.41805831 0.28482368 2.83440379 0.57818144 4.25 0.875 C5.03890625 1.03742188 5.8278125 1.19984375 6.640625 1.3671875 C10.7368184 2.4658354 12.54206147 3.25782376 14.8125 6.9375 C16 10 16 10 15 13 C12.77269649 11.77231419 10.54895678 10.53933475 8.33203125 9.29296875 C6.57727965 8.32006627 4.79459018 7.39729509 3 6.5 C1 5 1 5 0.1875 2.3125 C0.0946875 1.1678125 0.0946875 1.1678125 0 0 Z " fill="#FDEA70" transform="translate(36,125)"/>
<path d="M0 0 C0.625 2.375 0.625 2.375 1 5 C0.34 5.66 -0.32 6.32 -1 7 C-3.1640625 6.9765625 -3.1640625 6.9765625 -5.625 6.625 C-6.44226563 6.51414062 -7.25953125 6.40328125 -8.1015625 6.2890625 C-8.72804687 6.19367188 -9.35453125 6.09828125 -10 6 C-10.33 5.01 -10.66 4.02 -11 3 C-7.48550811 -0.37391222 -4.73940561 -0.27342725 0 0 Z " fill="#FDEA71" transform="translate(192,69)"/>
<path d="M0 0 C2.475 0.99 2.475 0.99 5 2 C1.58419244 8.58762887 1.58419244 8.58762887 -1.125 10.5 C-3 11 -3 11 -5 10 C-4.56802365 5.2482602 -3.67230705 3.07999946 0 0 Z " fill="#FDEB71" transform="translate(83,165)"/>
<path d="M0 0 C3.54905382 0.60840923 6.80087037 1.31157047 10 3 C10.640625 5.07421875 10.640625 5.07421875 11 7 C9.58318366 6.68817931 8.16655349 6.37551263 6.75 6.0625 C5.96109375 5.88847656 5.1721875 5.71445313 4.359375 5.53515625 C2.23121297 5.052444 0.11467158 4.53836822 -2 4 C-1.34 2.68 -0.68 1.36 0 0 Z " fill="#FDDD51" transform="translate(37,121)"/>
</svg>
