<?xml version="1.0" encoding="UTF-8"?>
<svg version="1.1" xmlns="http://www.w3.org/2000/svg" width="195" height="201">
<path d="M0 0 C0.81984375 0.34933594 1.6396875 0.69867188 2.484375 1.05859375 C3.56203125 1.51363281 4.6396875 1.96867188 5.75 2.4375 C7.35101563 3.11619141 7.35101563 3.11619141 8.984375 3.80859375 C23.06661109 9.37217148 42.71842474 5.59219562 57 2 C71.78402379 0.56068999 85.97694769 1.01668701 100.69433594 2.73413086 C103.02281086 3.00263035 105.35292031 3.25140463 107.68359375 3.5 C111.27332823 3.89668813 114.81583922 4.44490783 118.375 5.0625 C131.39901082 7.06153422 142.04646144 5.57831799 154 0 C154.78893932 3.42064271 155.08649392 6.43859486 154.9140625 9.94140625 C154.84832031 11.31135742 154.84832031 11.31135742 154.78125 12.70898438 C154.7296875 13.65064453 154.678125 14.59230469 154.625 15.5625 C154.55925781 16.98079102 154.55925781 16.98079102 154.4921875 18.42773438 C154.1317784 25.51077427 154.1317784 25.51077427 153.49560547 27.87255859 C152.7976116 30.86877463 152.79526788 33.77412031 152.71875 36.84765625 C152.69113586 37.82731606 152.69113586 37.82731606 152.66296387 38.82676697 C152.58462134 41.60969387 152.5165537 44.39284877 152.44775391 47.17602539 C152.39593229 49.21251993 152.33873353 51.24881493 152.28125 53.28515625 C152.25095703 54.50082275 152.22066406 55.71648926 152.18945312 56.96899414 C152 60 152 60 151 63 C150.85882376 65.47567813 150.76700912 67.92870979 150.71875 70.40625 C150.70034058 71.12735962 150.68193115 71.84846924 150.66296387 72.59143066 C150.60428255 74.89420522 150.55143297 77.19705283 150.5 79.5 C150.43229798 82.53140533 150.3586337 85.56257809 150.28125 88.59375 C150.26088684 89.63915955 150.26088684 89.63915955 150.2401123 90.70568848 C150.16253628 93.72554559 149.96254754 96.11235739 149 99 C148.92286998 101.14535729 148.86274444 103.29134473 148.8125 105.4375 C147.84809538 120.05425747 137.88681241 131.95263228 129 143 C128.54109375 143.59554687 128.0821875 144.19109375 127.609375 144.8046875 C123.14339585 150.37432816 117.6351766 154.66850896 112 159 C111.43603516 159.4336084 110.87207031 159.8672168 110.29101562 160.31396484 C103.21093328 165.7135986 95.96325203 170.80198771 88.4375 175.5625 C87.78305908 175.98007568 87.12861816 176.39765137 86.4543457 176.82788086 C79.06673009 181.41077132 79.06673009 181.41077132 75 182 C72.12123198 180.90353449 69.75042016 179.21571922 67.25 177.4375 C66.51773193 176.93879395 65.78546387 176.44008789 65.03100586 175.92626953 C62.67078623 174.3067025 60.33493443 172.65576786 58 171 C56.41277943 169.89450396 54.8255399 168.78903513 53.23828125 167.68359375 C45.04071781 161.9168911 37.20082453 155.99930892 30 149 C29.3090625 148.35933594 28.618125 147.71867188 27.90625 147.05859375 C20.0352366 139.56599445 13.84393219 130.70422901 9 121 C8.5565625 120.22527344 8.113125 119.45054687 7.65625 118.65234375 C-0.79351342 101.9738863 1.72037018 79.40694881 1.34082031 61.08544922 C1.31662773 60.01426849 1.31662773 60.01426849 1.29194641 58.92144775 C1.24870322 56.96935923 1.21096672 55.01715095 1.17358398 53.06494141 C1.13199377 49.95918333 1.13199377 49.95918333 0 47 C-0.14842263 45.41358973 -0.24773315 43.82232641 -0.31640625 42.23046875 C-0.35846191 41.26890869 -0.40051758 40.30734863 -0.44384766 39.31665039 C-0.48300293 38.28403076 -0.5221582 37.25141113 -0.5625 36.1875 C-0.6042334 35.12974365 -0.6459668 34.0719873 -0.68896484 32.98217773 C-0.96095691 25.509057 -1.1044852 18.04045691 -1.125 10.5625 C-1.12959229 9.61592529 -1.13418457 8.66935059 -1.13891602 7.6940918 C-1.13690186 6.82695557 -1.1348877 5.95981934 -1.1328125 5.06640625 C-1.13168457 4.30271729 -1.13055664 3.53902832 -1.12939453 2.75219727 C-1 1 -1 1 0 0 Z " fill="#531602" transform="translate(18,9)"/>
<path d="M0 0 C5.17985339 -0.2240649 9.92943021 -0.17339887 15 1 C18.14934728 3.89914007 19.53112025 7.02610126 21 11 C21.680625 12.4540625 21.680625 12.4540625 22.375 13.9375 C23.37801026 18.85225029 24.30253196 25.39493607 22 30 C20.68 29.67 19.36 29.34 18 29 C17.505 26.525 17.505 26.525 17 24 C16.34 24 15.68 24 15 24 C14.88785156 25.15757813 14.77570312 26.31515625 14.66015625 27.5078125 C14.11695356 31.86301435 12.87932111 35.74755285 11.4375 39.875 C9.00023602 47.31197908 7.13043159 53.87136976 10.5 61.3125 C17.00994053 68.31068607 24.94912019 70.53032396 34 73 C30.75508185 67.77991428 26.89030555 63.17952686 22.92578125 58.48828125 C20.07087409 54.79948639 19.86281644 52.03228356 19.875 47.5 C19.87242188 46.5409375 19.86984375 45.581875 19.8671875 44.59375 C20 42 20 42 21 39 C23.0625 38.3125 23.0625 38.3125 25 38 C29.88921283 43.39067055 29.88921283 43.39067055 30.5 46.75 C30.7475 47.86375 30.7475 47.86375 31 49 C33.42383077 50.16953416 33.42383077 50.16953416 36 51 C37.88500864 53.82751297 38.42317657 55.27652054 39.0625 58.5 C39.58700025 61.10082768 40.15796475 63.47389425 41 66 C41.5775 66.268125 42.155 66.53625 42.75 66.8125 C45 68 45 68 47.5 71.0625 C49.6657966 74.08630591 49.6657966 74.08630591 52.3125 74.875 C52.869375 74.91625 53.42625 74.9575 54 75 C54 75.66 54 76.32 54 77 C54.66 77 55.32 77 56 77 C53.86362904 71.78407302 51.82601624 67.23594655 48 63 C51 64 54 65 57 66 C59.63804589 65.60602665 59.63804589 65.60602665 62 65 C61.67 65.721875 61.34 66.44375 61 67.1875 C59.98664465 70.03756191 59.91968598 72.01332251 60 75 C60.50789063 74.36191406 61.01578125 73.72382812 61.5390625 73.06640625 C67.23156089 66.23327616 67.23156089 66.23327616 71.5 64.9375 C72.7375 64.9684375 72.7375 64.9684375 74 65 C74.00257812 64.19175781 74.00515625 63.38351563 74.0078125 62.55078125 C74.33033094 53.63852166 74.33033094 53.63852166 77.6875 50.4375 C78.21988281 50.10234375 78.75226563 49.7671875 79.30078125 49.421875 C83.02818407 46.30285287 84.87873307 41.29518943 87 37 C89.3214404 37.94684008 90.71577685 38.55365679 92.08203125 40.69921875 C93.84894466 45.50862477 94.41326332 48.91225203 93 54 C90.57254901 58.48144798 87.38088532 61.75761876 83.68359375 65.19140625 C81.73423573 67.28549619 80.39898831 69.5124372 79 72 C81.3792284 71.43092247 83.75234153 70.84538621 86.125 70.25 C86.79015625 70.09273438 87.4553125 69.93546875 88.140625 69.7734375 C93.67546065 68.36259704 98.25077816 66.2920838 101.8125 61.625 C106.14031322 52.05825498 101.94685173 42.41269913 98.90234375 32.98046875 C98.09880433 30.3263537 97.48896208 27.7270978 97 25 C95.68 26.65 94.36 28.3 93 30 C91.515 29.505 91.515 29.505 90 29 C87.44509836 19.37537055 92.86801465 9.48732125 97 1 C102.28 1 107.56 1 113 1 C113.15781254 13.05113945 112.64083316 24.95883474 111.828125 36.98144531 C111.62533616 39.99500445 111.43321557 43.0091125 111.2421875 46.0234375 C108.84310674 82.91353519 108.84310674 82.91353519 102.875 90.8125 C100.34911672 92.73436772 98.38143936 93.78902964 95.5 95 C91.39450831 96.72826855 88.6966504 98.32274945 86 102 C85.84796991 103.39314843 85.72589626 104.7897176 85.625 106.1875 C85.01128442 109.8636563 83.71644324 111.45142273 80.828125 113.62890625 C77.56712635 115.8687422 74.20025906 117.92337136 70.79248047 119.93115234 C68.61797929 121.22779715 66.53412363 122.64431598 64.4375 124.0625 C60.95915057 126.02302422 58.98237808 127.08296621 55 127 C48.9266646 124.22023044 43.25485628 120.89724374 37.625 117.3125 C36.81933594 116.83361328 36.01367188 116.35472656 35.18359375 115.86132812 C29.47281643 112.19284721 29.47281643 112.19284721 28.08666992 108.69580078 C27.58203125 106.27734375 27.58203125 106.27734375 27.32348633 104.01538086 C26.74416709 100.40611271 24.86803318 99.10712642 22 97 C20.17287537 96.25541237 18.33881439 95.52773198 16.5 94.8125 C11.23264844 92.5044938 9.06672536 90.32543094 6.91796875 85.01171875 C-1.19598447 58.3910467 -0.30705498 27.63494804 0 0 Z " fill="#981A13" transform="translate(38,36)"/>
<path d="M0 0 C10.71248685 6.4129173 16.43280554 13.90639638 22 25 C22.33 21.37 22.66 17.74 23 14 C23.66 14.66 24.32 15.32 25 16 C25.680625 16.67675781 25.680625 16.67675781 26.375 17.3671875 C27.57270888 18.5706546 28.75849246 19.78601839 29.9375 21.0078125 C30.618125 21.70648438 31.29875 22.40515625 32 23.125 C32.639375 23.78757812 33.27875 24.45015625 33.9375 25.1328125 C35.94955272 27.13160669 35.94955272 27.13160669 38.6796875 28.2890625 C41 30 41 30 41.8203125 33.328125 C41.97113281 35.26945312 41.97113281 35.26945312 42.125 37.25 C42.6398819 42.69406138 43.39855933 47.15186058 46 52 C46.66 52 47.32 52 48 52 C49.98179756 46.68517928 51.10356387 42.16021233 51.5625 36.5 C52.48400528 29.79175393 55.16934527 27.16109006 60.37890625 23.078125 C64.08902405 20.1365711 67.00214962 16.64308308 70 13 C71.28317892 16.84953676 71.06643637 19.94738135 71 24 C71.44730469 23.20335938 71.89460938 22.40671875 72.35546875 21.5859375 C77.30195022 12.91641134 81.51424871 6.44368951 90 1 C90.66 1 91.32 1 92 1 C90.48372075 5.03586765 88.57724254 8.75398667 86.5625 12.5625 C82.67154357 20.15812224 78.75783114 28.38944874 81 37 C81.66 37 82.32 37 83 37 C84.6446674 34.53673288 84.6446674 34.53673288 86 32 C86.66 32.33 87.32 32.66 88 33 C88.75711812 35.39852655 89.4080768 37.748129 90 40.1875 C90.92738698 43.90067054 91.86030707 47.58193715 93.07421875 51.21484375 C95.16369836 57.50091533 95.53867228 62.81598445 93.27734375 69.078125 C89.4147052 74.88980134 84.18422568 77.0366498 77.75 78.875 C77.03070313 79.09929687 76.31140625 79.32359375 75.5703125 79.5546875 C70.27974971 81.13987485 70.27974971 81.13987485 68 80 C71.07763359 75.76120795 74.22548131 71.69168723 77.75 67.8125 C81.87693478 63.1154418 81.87693478 63.1154418 82.98828125 57.09375 C82.62275624 52.73994101 81.68924073 49.54979777 79 46 C78.34 45.67 77.68 45.34 77 45 C76.773125 45.66 76.54625 46.32 76.3125 47 C72.09216887 56.64647116 72.09216887 56.64647116 67.88671875 59.3671875 C65.2073461 61.68598205 65.43814716 63.5334224 65.1875 67 C64.7421875 70.265625 64.7421875 70.265625 64 73 C60.8125 74.75 60.8125 74.75 58.94921875 75.22265625 C55.52893408 76.58665755 53.63955603 79.54718924 51.3828125 82.35546875 C50.92648438 82.89816406 50.47015625 83.44085938 50 84 C49.67 84 49.34 84 49 84 C48.67386382 79.32538149 49.29417212 76.83325617 52 73 C50.7315625 73.5878125 50.7315625 73.5878125 49.4375 74.1875 C44.81408385 75.28030745 43.13683233 74.15115281 39 72 C39.63228516 72.65355469 39.63228516 72.65355469 40.27734375 73.3203125 C43.76365195 77.11013459 45.73880963 79.64559734 46 85 C45.34 85 44.68 85 44 85 C43.67 84.34 43.34 83.68 43 83 C42.38125 82.86207031 41.7625 82.72414063 41.125 82.58203125 C38.46251741 81.8527851 37.69113797 80.83359085 36 78.6875 C34.37378405 76.650311 32.84839675 74.86392408 30.90234375 73.1171875 C28.61731461 70.57409552 28.21875043 68.76401082 27.5625 65.4375 C26.68126079 61.14298502 26.68126079 61.14298502 23.5625 58.3125 C22.716875 57.879375 21.87125 57.44625 21 57 C19.85181389 54.99696 18.95448141 52.97952313 18.08984375 50.83984375 C16.72085184 48.52874988 15.4842142 47.9346069 13 47 C12.34 47 11.68 47 11 47 C10.20273314 58.24463149 10.20273314 58.24463149 15 68 C15.74894531 68.92039062 16.49789062 69.84078125 17.26953125 70.7890625 C18.88411375 72.7570733 20.51743651 74.70990559 22.171875 76.64453125 C24 79 24 79 24 81 C15.49396476 79.78743753 6.72254928 77.61159528 0.9375 70.8125 C-2.52936215 65.77995817 -2.51833923 62.02270317 -2 56 C-1.07695219 51.71110479 0.18366277 47.55780133 1.5 43.375 C2.00080078 41.72564453 2.00080078 41.72564453 2.51171875 40.04296875 C3.32889867 37.357949 4.15845681 34.67746304 5 32 C5.66 32 6.32 32 7 32 C7.268125 32.804375 7.53625 33.60875 7.8125 34.4375 C8.204375 35.283125 8.59625 36.12875 9 37 C9.99 37.33 10.98 37.66 12 38 C12.98974814 24.36347013 8.92412899 15.31481664 1.35546875 4.1796875 C0 2 0 2 0 0 Z " fill="#FA7232" transform="translate(48,28)"/>
<path d="M0 0 C2.32847492 0.26849949 4.65858437 0.51727377 6.98925781 0.76586914 C10.57899229 1.16255727 14.12150328 1.71077697 17.68066406 2.32836914 C26.72380036 3.74070045 35.25994811 3.45219254 44.30566406 2.26586914 C42.95300844 5.91215822 41.29641576 9.09154086 39.24316406 12.39086914 C37.57887004 15.06838862 36.30575605 17.26559316 35.30566406 20.26586914 C32.42150524 21.70794855 29.88844878 21.35981801 26.68066406 21.32836914 C25.49214844 21.3193457 24.30363281 21.31032227 23.07910156 21.30102539 C22.16386719 21.28942383 21.24863281 21.27782227 20.30566406 21.26586914 C20.63566406 19.94586914 20.96566406 18.62586914 21.30566406 17.26586914 C19.28926039 18.57887619 17.29564238 19.91400739 15.30566406 21.26586914 C14.48066406 21.80211914 13.65566406 22.33836914 12.80566406 22.89086914 C9.05267366 26.45621003 6.81615877 30.77449094 4.30566406 35.26586914 C3.51455145 36.64118799 2.72296781 38.01623614 1.93066406 39.39086914 C1.39441406 40.33961914 0.85816406 41.28836914 0.30566406 42.26586914 C-0.02433594 42.26586914 -0.35433594 42.26586914 -0.69433594 42.26586914 C-0.69433594 38.30586914 -0.69433594 34.34586914 -0.69433594 30.26586914 C-1.68175781 31.33708008 -2.66917969 32.40829102 -3.68652344 33.51196289 C-4.98064376 34.90923773 -6.27492282 36.30636555 -7.56933594 37.70336914 C-8.2203125 38.41041992 -8.87128906 39.1174707 -9.54199219 39.84594727 C-10.47978516 40.85625 -10.47978516 40.85625 -11.43652344 41.88696289 C-12.01257324 42.51014404 -12.58862305 43.1333252 -13.18212891 43.77539062 C-14.69433594 45.26586914 -14.69433594 45.26586914 -16.69433594 46.26586914 C-17.41559684 49.75133412 -17.95464512 53.22351807 -18.46191406 56.74438477 C-19.19634437 61.42282756 -20.305672 65.09402433 -22.69433594 69.26586914 C-24.58496094 68.57836914 -24.58496094 68.57836914 -26.69433594 67.26586914 C-29.77310259 60.64881843 -30.114665 53.44259874 -29.69433594 46.26586914 C-30.40074219 46.04930664 -31.10714844 45.83274414 -31.83496094 45.60961914 C-35.38419307 43.94167399 -37.77018656 41.55534572 -40.44433594 38.76586914 C-40.93804687 38.26700195 -41.43175781 37.76813477 -41.94042969 37.25415039 C-45.53882999 33.57688105 -45.53882999 33.57688105 -46.69433594 31.26586914 C-47.02433594 34.89586914 -47.35433594 38.52586914 -47.69433594 42.26586914 C-50.31643982 39.64376526 -51.67592882 37.74262569 -53.44433594 34.57836914 C-57.69789432 27.36627139 -62.42465491 21.52129218 -69.69433594 17.26586914 C-70.02433594 18.25586914 -70.35433594 19.24586914 -70.69433594 20.26586914 C-72.48592083 20.29283279 -74.27762067 20.31224831 -76.06933594 20.32836914 C-77.06707031 20.3399707 -78.06480469 20.35157227 -79.09277344 20.36352539 C-81.69433594 20.26586914 -81.69433594 20.26586914 -83.69433594 19.26586914 C-84.9774198 16.96967155 -86.16825686 14.68901709 -87.31933594 12.32836914 C-87.64417969 11.6819043 -87.96902344 11.03543945 -88.30371094 10.36938477 C-90.69433594 5.53288923 -90.69433594 5.53288923 -90.69433594 3.26586914 C-89.05464844 3.31807617 -89.05464844 3.31807617 -87.38183594 3.37133789 C-73.56419984 3.66378265 -59.05502382 3.10834404 -45.58666992 -0.26147461 C-31.08152199 -3.88448666 -14.64049423 -1.70847071 0 0 Z " fill="#531602" transform="translate(118.6943359375,11.734130859375)"/>
<path d="M0 0 C5.94 2.475 5.94 2.475 12 5 C11.01 5.495 11.01 5.495 10 6 C10.50241211 6.77021484 11.00482422 7.54042969 11.52246094 8.33398438 C16.74292041 17.00789862 17.8078948 23.25100489 17.25 33.5 C17.15663866 36.38633238 17.09985841 39.27276047 17.05078125 42.16015625 C17.02873375 43.30914146 17.02873375 43.30914146 17.00624084 44.4813385 C16.86996862 54.99152599 17.68883145 65.46039658 18.4375 75.9375 C18.53967834 77.40195557 18.53967834 77.40195557 18.6439209 78.89599609 C19.30066809 88.27945453 20.02658996 97.6434736 21 107 C15.69695602 108.7968821 10.39720281 110.50715667 5 112 C3.52060034 107.56180103 3.37343021 103.08599977 3 98.4375 C2.86863647 96.82464111 2.86863647 96.82464111 2.73461914 95.17919922 C1.87817589 83.82753484 1.57811634 72.4667073 1.34179688 61.08764648 C1.3255275 60.37320877 1.30925812 59.65877106 1.29249573 58.92268372 C1.24875153 56.97019064 1.21097468 55.01756649 1.17358398 53.06494141 C1.13199377 49.95918333 1.13199377 49.95918333 0 47 C-0.14842263 45.41358973 -0.24773315 43.82232641 -0.31640625 42.23046875 C-0.35846191 41.26890869 -0.40051758 40.30734863 -0.44384766 39.31665039 C-0.48300293 38.28403076 -0.5221582 37.25141113 -0.5625 36.1875 C-0.6042334 35.12974365 -0.6459668 34.0719873 -0.68896484 32.98217773 C-0.96095691 25.509057 -1.1044852 18.04045691 -1.125 10.5625 C-1.12959229 9.61592529 -1.13418457 8.66935059 -1.13891602 7.6940918 C-1.13690186 6.82695557 -1.1348877 5.95981934 -1.1328125 5.06640625 C-1.13168457 4.30271729 -1.13055664 3.53902832 -1.12939453 2.75219727 C-1 1 -1 1 0 0 Z " fill="#FB7A3E" transform="translate(18,9)"/>
<path d="M0 0 C-0.13894957 4.08359816 -0.28734938 8.16679956 -0.4375 12.25 C-0.47681641 13.40886719 -0.51613281 14.56773438 -0.55664062 15.76171875 C-0.59853516 16.87675781 -0.64042969 17.99179687 -0.68359375 19.140625 C-0.72025146 20.16704102 -0.75690918 21.19345703 -0.79467773 22.25097656 C-1 25 -1 25 -1.50219727 26.93823242 C-2.21914939 29.90765897 -2.20529473 32.79671898 -2.28125 35.84765625 C-2.29965942 36.50076279 -2.31806885 37.15386932 -2.33703613 37.82676697 C-2.41537866 40.60969387 -2.4834463 43.39284877 -2.55224609 46.17602539 C-2.60406771 48.21251993 -2.66126647 50.24881493 -2.71875 52.28515625 C-2.76418945 54.10865601 -2.76418945 54.10865601 -2.81054688 55.96899414 C-3 59 -3 59 -4 62 C-4.14117624 64.47567813 -4.23299088 66.92870979 -4.28125 69.40625 C-4.30886414 70.48791443 -4.30886414 70.48791443 -4.33703613 71.59143066 C-4.39571745 73.89420522 -4.44856703 76.19705283 -4.5 78.5 C-4.56770202 81.53140533 -4.6413663 84.56257809 -4.71875 87.59375 C-4.73232544 88.2906897 -4.74590088 88.98762939 -4.7598877 89.70568848 C-4.83746372 92.72554559 -5.03745246 95.11235739 -6 98 C-6.22560676 100.39254576 -6.40848595 102.78928123 -6.5625 105.1875 C-6.64628906 106.45980469 -6.73007813 107.73210937 -6.81640625 109.04296875 C-6.90728516 110.50669922 -6.90728516 110.50669922 -7 112 C-7.33 111.34 -7.66 110.68 -8 110 C-10.18146145 109.38202749 -10.18146145 109.38202749 -12.75 109 C-16.41221388 108.38597612 -19.5866015 107.47340942 -23 106 C-22.95512451 105.43982178 -22.91024902 104.87964355 -22.86401367 104.30249023 C-21.5150879 87.14274338 -20.49044874 69.96417979 -19.52554321 52.77908325 C-19.38341136 50.2578665 -19.23918215 47.73676712 -19.09286499 45.21578979 C-18.88516935 41.6233416 -18.68562225 38.03053006 -18.48828125 34.4375 C-18.39161667 32.79691368 -18.39161667 32.79691368 -18.29299927 31.1231842 C-18.2392514 30.11186935 -18.18550354 29.1005545 -18.13012695 28.05859375 C-18.08064407 27.17486084 -18.03116119 26.29112793 -17.98017883 25.38061523 C-17.89923945 23.01403388 -17.89923945 23.01403388 -18.57926941 20.86352539 C-19 19 -19 19 -17.6015625 16.125 C-16.94929687 15.09375 -16.29703125 14.0625 -15.625 13 C-13.04675412 9.10797848 -13.04675412 9.10797848 -11.55078125 4.76953125 C-11 3 -11 3 -9.00390625 1.69921875 C-8.19824219 1.36535156 -7.39257812 1.03148437 -6.5625 0.6875 C-5.75941406 0.34074219 -4.95632812 -0.00601562 -4.12890625 -0.36328125 C-2 -1 -2 -1 0 0 Z " fill="#FB793C" transform="translate(173,10)"/>
<path d="M0 0 C-3.27408894 6.03523728 -6.56493514 12.05469543 -10 18 C-10.33 18 -10.66 18 -11 18 C-11 14.04 -11 10.08 -11 6 C-11.98742187 7.07121094 -12.97484375 8.14242187 -13.9921875 9.24609375 C-15.28630782 10.64336859 -16.58058688 12.04049641 -17.875 13.4375 C-18.52597656 14.14455078 -19.17695312 14.85160156 -19.84765625 15.58007812 C-20.47285156 16.25361328 -21.09804687 16.92714844 -21.7421875 17.62109375 C-22.3182373 18.2442749 -22.89428711 18.86745605 -23.48779297 19.50952148 C-25 21 -25 21 -27 22 C-27.7212609 25.48546498 -28.26030918 28.95764893 -28.76757812 32.47851562 C-29.50200843 37.15695842 -30.61133606 40.82815519 -33 45 C-34.890625 44.3125 -34.890625 44.3125 -37 43 C-40.07876665 36.38294929 -40.42032907 29.1767296 -40 22 C-40.70640625 21.7834375 -41.4128125 21.566875 -42.140625 21.34375 C-45.68985713 19.67580485 -48.07585062 17.28947658 -50.75 14.5 C-51.24371094 14.00113281 -51.73742187 13.50226562 -52.24609375 12.98828125 C-55.84449405 9.3110119 -55.84449405 9.3110119 -57 7 C-57.33 10.63 -57.66 14.26 -58 18 C-60.62994772 15.37005228 -62.15513985 13.28624474 -64 10.125 C-64.7425 8.86042969 -64.7425 8.86042969 -65.5 7.5703125 C-65.995 6.72210938 -66.49 5.87390625 -67 5 C-67.99796093 3.33211159 -68.99736829 1.66508481 -70 0 C-46.84046763 -4.29448282 -23.11193743 -4.89018323 0 0 Z " fill="#981A13" transform="translate(129,36)"/>
<path d="M0 0 C5.28 1.32 10.56 2.64 16 4 C11.94892743 13.45250267 6.41714101 21.02272837 0 29 C-0.45890625 29.59554687 -0.9178125 30.19109375 -1.390625 30.8046875 C-9.21311729 40.56032444 -20.37766127 47.61141088 -30.44873047 54.86621094 C-31.75846314 55.82346598 -33.04086583 56.81794853 -34.31640625 57.8203125 C-36 59 -36 59 -38 59 C-39.37898043 57.30189246 -40.67959478 55.53964541 -41.9375 53.75 C-42.62714844 52.77546875 -43.31679687 51.8009375 -44.02734375 50.796875 C-44.67832031 49.87390625 -45.32929687 48.9509375 -46 48 C-46.99432178 46.66242683 -47.99192855 45.3272414 -49 44 C-44.32192525 40.8466311 -39.61995519 37.76544725 -34.8125 34.8125 C-20.06167469 25.42749457 -9.12421721 15.01694082 0 0 Z " fill="#FB783B" transform="translate(147,123)"/>
<path d="M0 0 C3.0560062 2.89946245 5.50683339 5.93837434 7.9375 9.375 C17.35229453 22.66427259 29.09731903 30.69544213 42.81494141 39.06494141 C43.60304199 39.54882324 44.39114258 40.03270508 45.203125 40.53125 C46.26515137 41.17416992 46.26515137 41.17416992 47.34863281 41.83007812 C49 43 49 43 50 45 C48.75314243 46.58580914 47.50236974 48.1685404 46.25 49.75 C45.55390625 50.63171875 44.8578125 51.5134375 44.140625 52.421875 C42.20054103 54.75847248 40.18487814 56.8938562 38 59 C-4.17147984 29.68120036 -4.17147984 29.68120036 -14 7 C-14 6.01 -14 5.02 -14 4 C-13.0409375 3.8453125 -13.0409375 3.8453125 -12.0625 3.6875 C-7.93522674 2.76096927 -3.99357051 1.38339371 0 0 Z " fill="#FB793B" transform="translate(41,123)"/>
<path d="M0 0 C0.33 0 0.66 0 1 0 C1.52210323 9.64924126 0.34123921 18.6619746 -3.5625 27.5625 C-6.61090742 30.61090742 -9.57590625 31.63771387 -13.58984375 33.07421875 C-17.58968173 34.61062329 -20.22293848 36.48677493 -22.1875 40.3125 C-23.08066864 43.08446509 -23.08066864 43.08446509 -23.61328125 46.359375 C-25.42365333 51.11223915 -27.72741221 52.4708956 -32 54.9375 C-32.64195313 55.33517578 -33.28390625 55.73285156 -33.9453125 56.14257812 C-38.6470256 59 -38.6470256 59 -41 59 C-41.45997974 47.17681693 -41.09179985 37.59009094 -33.27734375 28.22265625 C-27.95618902 23.02928225 -21.46517218 19.20466713 -15.21875 15.23046875 C-9.52118694 11.47605605 -5.56368248 7.43306024 -1.49609375 1.94140625 C-1.00238281 1.30074219 -0.50867188 0.66007812 0 0 Z " fill="#FB7333" transform="translate(146,98)"/>
<path d="M0 0 C1.83891903 1.76819138 3.62786561 3.51326794 5.1796875 5.54296875 C9.0591219 10.55868719 13.6692093 13.61971019 18.97265625 17.03515625 C28.14744936 22.98989294 38.52929842 30.34333254 41.61328125 41.3828125 C42.42752537 46.89335352 42.21321651 52.44847377 42 58 C41.01 58.495 41.01 58.495 40 59 C25.9081898 50.78834904 25.9081898 50.78834904 23.734375 46.5078125 C23.375 44.1875 23.375 44.1875 23.20703125 41.96484375 C23.13090316 39.71160841 23.13090316 39.71160841 21.0625 37.25 C18.16119069 35.11842582 15.82053625 34.10406793 12.5 32.8125 C7.06686414 30.47983467 5.06905907 28.02559959 2.859375 22.60546875 C0.32672027 14.9269201 -0.2723152 8.09381302 0 0 Z " fill="#FB7333" transform="translate(42,98)"/>
<path d="M0 0 C8.05529007 -0.24085585 15.67867787 0.23024298 23.63671875 1.49609375 C26.74158498 1.96128277 29.80814725 2.26454938 32.9375 2.5 C37.20428589 2.84714974 40.94275259 3.6475842 45 5 C42.75085603 11.56000324 39.04829753 15.21264091 33.48828125 19.08203125 C25.65967237 21.97013657 15.49780949 19.41528834 7.4375 18.5 C6.14263672 18.35691406 4.84777344 18.21382812 3.51367188 18.06640625 C0.3419365 17.71529163 -2.82923028 17.35971319 -6 17 C-5.53779861 15.41849619 -5.07230901 13.83795318 -4.60546875 12.2578125 C-4.34660889 11.37754395 -4.08774902 10.49727539 -3.82104492 9.59033203 C-2.76830093 6.26900769 -1.44609566 3.16763811 0 0 Z " fill="#FB773A" transform="translate(102,11)"/>
<path d="M0 0 C1.00419637 2.4566947 2.00350501 4.91518353 3 7.375 C3.28617188 8.07367188 3.57234375 8.77234375 3.8671875 9.4921875 C6 14.7734375 6 14.7734375 6 17 C1.04306215 17.72492011 -3.91735274 18.40250359 -8.88647461 19.03857422 C-10.57276025 19.26095929 -12.25745722 19.49578191 -13.94018555 19.74365234 C-29.72727602 22.05441462 -29.72727602 22.05441462 -35.50390625 18.26171875 C-37.43969727 16.61987305 -37.43969727 16.61987305 -39 15 C-39.825 14.154375 -40.65 13.30875 -41.5 12.4375 C-43.0748663 9.87834226 -43.49314941 7.92901161 -44 5 C-42.77925781 4.80664062 -41.55851562 4.61328125 -40.30078125 4.4140625 C-39.51002197 4.28878174 -38.7192627 4.16350098 -37.90454102 4.03442383 C-36.16434419 3.75955239 -34.42394337 3.48596964 -32.68334961 3.21362305 C-28.87282966 2.61693916 -25.06649048 2.01147587 -21.265625 1.35546875 C-14.11136081 0.14273372 -7.2534238 -0.23524618 0 0 Z " fill="#FB7638" transform="translate(87,11)"/>
<path d="M0 0 C3.05805806 0.08994288 3.99892113 0.86729728 6.328125 2.9453125 C14.9375 12.47116935 14.9375 12.47116935 14.9375 16.8125 C12.72018064 18.21070138 10.49211846 19.58013358 8.25 20.9375 C7.62416016 21.33582031 6.99832031 21.73414063 6.35351562 22.14453125 C1.63358691 24.96166148 1.63358691 24.96166148 -1.6875 24.25 C-2.47125 23.775625 -3.255 23.30125 -4.0625 22.8125 C-4.94550781 22.31492188 -5.82851562 21.81734375 -6.73828125 21.3046875 C-7.60839844 20.77101562 -8.47851562 20.23734375 -9.375 19.6875 C-10.25800781 19.14867187 -11.14101562 18.60984375 -12.05078125 18.0546875 C-12.71464844 17.64476562 -13.37851563 17.23484375 -14.0625 16.8125 C-13.49287415 12.96533464 -11.74387403 11.04883282 -9.125 8.25 C-1.93675779 0.5138337 -1.93675779 0.5138337 0 0 Z " fill="#A92C1F" transform="translate(94.0625,166.1875)"/>
<path d="M0 0 C-1.35265563 3.64628908 -3.0092483 6.82567172 -5.0625 10.125 C-6.72679402 12.80251948 -7.99990801 14.99972402 -9 18 C-11.88415883 19.44207941 -14.41721528 19.09394887 -17.625 19.0625 C-18.81351563 19.05347656 -20.00203125 19.04445313 -21.2265625 19.03515625 C-22.14179688 19.02355469 -23.05703125 19.01195313 -24 19 C-23.67 17.68 -23.34 16.36 -23 15 C-23.94875 15.639375 -24.8975 16.27875 -25.875 16.9375 C-29 19 -29 19 -31 20 C-30.80078125 18.20703125 -30.80078125 18.20703125 -30 16 C-27.85546875 14.32421875 -27.85546875 14.32421875 -25.1875 12.6875 C-21.77374153 10.45339008 -19.61162797 8.96106793 -18 5.1875 C-16 2 -16 2 -13.7578125 1.1171875 C-9.18351605 0.15346332 -4.6777601 -0.2461979 0 0 Z " fill="#991E17" transform="translate(163,14)"/>
<path d="M0 0 C5.11833735 -0.10185746 9.97035711 -0.02353783 15 1 C16.83077123 2.86720449 17.27814272 4.30935923 18.0390625 6.7890625 C19.90411606 11.080202 24.23549807 13.42598159 28 16 C27.67 16.66 27.34 17.32 27 18 C25.02 16.68 23.04 15.36 21 14 C20.67 14.99 20.34 15.98 20 17 C18.20841511 17.02696365 16.41671527 17.04637917 14.625 17.0625 C13.62726562 17.07410156 12.62953125 17.08570312 11.6015625 17.09765625 C9 17 9 17 7 16 C5.71691614 13.70380241 4.52607908 11.42314795 3.375 9.0625 C3.05015625 8.41603516 2.7253125 7.76957031 2.390625 7.10351562 C0 2.26702009 0 2.26702009 0 0 Z " fill="#981C15" transform="translate(28,15)"/>
<path d="M0 0 C1.63001953 0.01353516 1.63001953 0.01353516 3.29296875 0.02734375 C4.12441406 0.03894531 4.95585938 0.05054688 5.8125 0.0625 C5.12833566 4.23826168 3.79884991 7.94330407 2.25 11.875 C1.79496094 13.03644531 1.33992188 14.19789062 0.87109375 15.39453125 C0.52175781 16.27496094 0.17242187 17.15539062 -0.1875 18.0625 C-1.1775 18.0625 -2.1675 18.0625 -3.1875 18.0625 C-4.00582722 16.16917466 -4.81692268 14.27272267 -5.625 12.375 C-6.07746094 11.31925781 -6.52992187 10.26351563 -6.99609375 9.17578125 C-8.04197455 6.44277471 -8.72270748 3.94207663 -9.1875 1.0625 C-5.90230525 -0.03256492 -3.45086585 -0.03710608 0 0 Z " fill="#991E17" transform="translate(96.1875,9.9375)"/>
<path d="M0 0 C0.33 0 0.66 0 1 0 C1.42261236 4.31064602 1.49562128 6.32945356 -1.125 9.875 C-4.3523542 12.26043571 -5.99934285 13 -10 13 C-13.97472063 11.47126129 -15.61853665 10.57219503 -18 7 C-18.125 3.8125 -18.125 3.8125 -18 1 C-16.5459375 1.7425 -16.5459375 1.7425 -15.0625 2.5 C-10.71271619 4.39857367 -6.66969796 4.28589988 -2 4 C-1.34 2.68 -0.68 1.36 0 0 Z " fill="#FB7333" transform="translate(103,115)"/>
<path d="M0 0 C2.8290723 2.8290723 3.37611108 3.38144425 4 7 C2.08959948 7.8680908 0.17139263 8.71901783 -1.75 9.5625 C-2.81734375 10.03816406 -3.8846875 10.51382813 -4.984375 11.00390625 C-7.99640606 11.99881288 -9.17868095 12.36617927 -12 11 C-14 8 -14 8 -14 4 C-9.38 2.68 -4.76 1.36 0 0 Z " fill="#A62619" transform="translate(38,116)"/>
<path d="M0 0 C2.55088227 0.58685037 5.04560893 1.22854891 7.5625 1.9375 C8.62887695 2.23043945 8.62887695 2.23043945 9.71679688 2.52929688 C11.47931645 3.01428548 13.23985016 3.50648025 15 4 C14.67 6.31 14.34 8.62 14 11 C8.43109483 10.52013969 3.32932432 9.70084819 -2 8 C-1.125 1.125 -1.125 1.125 0 0 Z " fill="#A7281B" transform="translate(150,116)"/>
<path d="M0 0 C0 4.24164786 -2.42939027 6.06840198 -5.1875 9 C-5.91163086 9.80050781 -5.91163086 9.80050781 -6.65039062 10.6171875 C-9.51402624 13.70760768 -12.22811907 16.01407366 -16 18 C-15.61962022 12.3893982 -15.30650556 8.9752359 -11 5 C-7.47017075 2.89348899 -3.89653753 1.29884584 0 0 Z " fill="#981A13" transform="translate(138,128)"/>
<path d="M0 0 C5.10818908 0.47889273 9.00947425 2.93368692 13 6 C16.00998143 9.66841487 16.32686175 12.31498158 16 17 C11.52773261 14.23270258 8.16906597 11.32349392 4.625 7.375 C3.75101563 6.41335937 2.87703125 5.45171875 1.9765625 4.4609375 C0 2 0 2 0 0 Z " fill="#981A13" transform="translate(51,129)"/>
<path d="M0 0 C-1.82142857 9.10714286 -1.82142857 9.10714286 -6 12 C-13.81132075 15.39622642 -13.81132075 15.39622642 -18 14 C-15.7118165 11.85042676 -13.41887679 9.70599544 -11.125 7.5625 C-10.47402344 6.95083984 -9.82304688 6.33917969 -9.15234375 5.70898438 C-8.21455078 4.8340332 -8.21455078 4.8340332 -7.2578125 3.94140625 C-6.6817627 3.40201416 -6.10571289 2.86262207 -5.51220703 2.30688477 C-3.61552136 0.66772455 -2.53170798 0 0 0 Z " fill="#981A13" transform="translate(119,71)"/>
<path d="M0 0 C6.61519148 3.30759574 11.63820705 7.95106821 17 13 C13.81230857 14.05543251 12.05213369 13.97424908 8.9375 12.75 C8.26589844 12.49734375 7.59429687 12.2446875 6.90234375 11.984375 C3.38566837 10.16465797 1.43914084 7.65320368 0 4 C0 2.68 0 1.36 0 0 Z " fill="#981A13" transform="translate(70,71)"/>
<path d="M0 0 C9.04642737 6.38958826 13.35622932 12.01943096 16 23 C15.67 23.66 15.34 24.32 15 25 C12.86771939 21.77558659 10.74548799 18.54467843 8.625 15.3125 C8.02171875 14.40048828 7.4184375 13.48847656 6.796875 12.54882812 C5.92675781 11.21948242 5.92675781 11.21948242 5.0390625 9.86328125 C4.50490723 9.05157471 3.97075195 8.23986816 3.42041016 7.40356445 C1.99862259 4.9976692 0.9658054 2.61826992 0 0 Z " fill="#A42012" transform="translate(71,54)"/>
<path d="M0 0 C2.92017328 -0.62131346 4.19399814 -0.8520042 7 0 C11.30675376 3.80874152 14.81771701 8.22657551 18 13 C18 13.99 18 14.98 18 16 C13.39261353 14.13241796 11.11672352 10.70378273 8.09765625 6.8984375 C6.12724009 4.73708643 6.12724009 4.73708643 3.24609375 4.7265625 C2.50488281 4.81679687 1.76367188 4.90703125 1 5 C1.33 4.01 1.66 3.02 2 2 C1.01 2.33 0.02 2.66 -1 3 C-0.67 2.01 -0.34 1.02 0 0 Z " fill="#991C15" transform="translate(91,167)"/>
<path d="M0 0 C-1.62467889 4.5491009 -3.95045701 8.51073179 -6.4375 12.625 C-6.83259766 13.29273437 -7.22769531 13.96046875 -7.63476562 14.6484375 C-8.02212891 15.29296875 -8.40949219 15.9375 -8.80859375 16.6015625 C-9.15720459 17.18244629 -9.50581543 17.76333008 -9.86499023 18.36181641 C-11.0838997 20.12109421 -12.44683117 21.53279377 -14 23 C-13.48642483 15.12518075 -10.31277444 8.07749041 -4.8125 2.375 C-2 0 -2 0 0 0 Z " fill="#A42012" transform="translate(117,55)"/>
<path d="M0 0 C3 1 6 2 9 3 C11.63804589 2.60602665 11.63804589 2.60602665 14 2 C13.690625 2.680625 13.38125 3.36125 13.0625 4.0625 C11.86629351 7.36965912 11.40994603 10.51545878 11 14 C9.68 14.33 8.36 14.66 7 15 C6.87044922 14.12988281 6.87044922 14.12988281 6.73828125 13.2421875 C5.6895597 7.41168056 4.13464784 4.24345436 0 0 Z " fill="#A42012" transform="translate(86,99)"/>
<path d="M0 0 C0 0.99 0 1.98 0 3 C-0.928125 3.45375 -1.85625 3.9075 -2.8125 4.375 C-6.03921389 5.9421633 -6.03921389 5.9421633 -9 8 C-8.875 6.25 -8.875 6.25 -8 4 C-2.77777778 0 -2.77777778 0 0 0 Z " fill="#A72313" transform="translate(141,26)"/>
<path d="M0 0 C3.87132028 0.57352893 6.08172796 2.48704352 9 5 C8.67 5.66 8.34 6.32 8 7 C6.66144944 6.21718695 5.32926356 5.42348123 4 4.625 C3.2575 4.18414063 2.515 3.74328125 1.75 3.2890625 C1.1725 2.86367188 0.595 2.43828125 0 2 C0 1.34 0 0.68 0 0 Z " fill="#A42012" transform="translate(47,26)"/>
</svg>
