<?xml version="1.0" encoding="UTF-8"?>
<svg version="1.1" xmlns="http://www.w3.org/2000/svg" width="313" height="297">
<path d="M0 0 C2.35544405 0.96482612 3.8546968 2.16748929 5.78125 3.83203125 C20.01558895 15.21482775 37.51953557 22.38392623 55.03125 26.83203125 C55.81886719 27.03570312 56.60648438 27.239375 57.41796875 27.44921875 C67.62950958 29.9030086 78.11833106 30.96745582 88.58203125 31.5859375 C91.03125 31.83203125 91.03125 31.83203125 92.03125 32.83203125 C96.58454445 82.41234859 94.83819229 144.34153622 61.60668945 184.38891602 C60.24762105 185.97537274 58.87061942 187.54191681 57.4765625 189.09765625 C55.00305665 191.79494657 55.00305665 191.79494657 52.8359375 194.69140625 C52.24039063 195.3978125 51.64484375 196.10421875 51.03125 196.83203125 C50.37125 196.83203125 49.71125 196.83203125 49.03125 196.83203125 C48.78890625 197.40953125 48.5465625 197.98703125 48.296875 198.58203125 C45.68535018 203.22474205 41.01223507 206.38287687 37.03125 209.83203125 C35.99493317 210.76303267 34.95980743 211.69536135 33.92578125 212.62890625 C24.58266642 220.96266953 14.46695407 227.94055437 4.03125 234.83203125 C3.04125 235.49203125 2.05125 236.15203125 1.03125 236.83203125 C-2.81796864 237.26771923 -4.80653734 236.67939914 -7.90234375 234.41015625 C-8.62736084 233.88462158 -9.35237793 233.35908691 -10.09936523 232.81762695 C-11.24127319 231.95850708 -11.24127319 231.95850708 -12.40625 231.08203125 C-13.19523682 230.50090576 -13.98422363 229.91978027 -14.79711914 229.32104492 C-21.19046087 224.55456019 -27.27612222 219.47815183 -33.24609375 214.1953125 C-35.92260105 211.77142718 -35.92260105 211.77142718 -38.96875 209.83203125 C-38.96875 209.17203125 -38.96875 208.51203125 -38.96875 207.83203125 C-39.56099365 207.56285889 -40.1532373 207.29368652 -40.76342773 207.01635742 C-61.90731522 195.66143678 -77.44657446 164.9601896 -84.31738281 143.05371094 C-94.85295261 107.11904632 -93.36513092 69.86653295 -92.96875 32.83203125 C-90.44150547 31.56840899 -88.55146918 31.64930242 -85.71875 31.51953125 C-56.4262579 29.43882149 -28.34604447 20.56071018 -5.21875 2.14453125 C-1.96875 -0.16796875 -1.96875 -0.16796875 0 0 Z " fill="#0089F1" transform="translate(151.96875,27.16796875)"/>
<path d="M0 0 C2.35544405 0.96482612 3.8546968 2.16748929 5.78125 3.83203125 C20.01558895 15.21482775 37.51953557 22.38392623 55.03125 26.83203125 C55.81886719 27.03570312 56.60648438 27.239375 57.41796875 27.44921875 C67.62950958 29.9030086 78.11833106 30.96745582 88.58203125 31.5859375 C91.03125 31.83203125 91.03125 31.83203125 92.03125 32.83203125 C96.58454445 82.41234859 94.83819229 144.34153622 61.60668945 184.38891602 C60.24762105 185.97537274 58.87061942 187.54191681 57.4765625 189.09765625 C55.00305665 191.79494657 55.00305665 191.79494657 52.8359375 194.69140625 C52.24039063 195.3978125 51.64484375 196.10421875 51.03125 196.83203125 C50.37125 196.83203125 49.71125 196.83203125 49.03125 196.83203125 C48.78890625 197.40953125 48.5465625 197.98703125 48.296875 198.58203125 C45.68535018 203.22474205 41.01223507 206.38287687 37.03125 209.83203125 C35.99493317 210.76303267 34.95980743 211.69536135 33.92578125 212.62890625 C24.58266642 220.96266953 14.46695407 227.94055437 4.03125 234.83203125 C3.04125 235.49203125 2.05125 236.15203125 1.03125 236.83203125 C-2.81796864 237.26771923 -4.80653734 236.67939914 -7.90234375 234.41015625 C-8.62736084 233.88462158 -9.35237793 233.35908691 -10.09936523 232.81762695 C-11.24127319 231.95850708 -11.24127319 231.95850708 -12.40625 231.08203125 C-13.19523682 230.50090576 -13.98422363 229.91978027 -14.79711914 229.32104492 C-21.19046087 224.55456019 -27.27612222 219.47815183 -33.24609375 214.1953125 C-35.92260105 211.77142718 -35.92260105 211.77142718 -38.96875 209.83203125 C-38.96875 209.17203125 -38.96875 208.51203125 -38.96875 207.83203125 C-39.56099365 207.56285889 -40.1532373 207.29368652 -40.76342773 207.01635742 C-61.90731522 195.66143678 -77.44657446 164.9601896 -84.31738281 143.05371094 C-94.85295261 107.11904632 -93.36513092 69.86653295 -92.96875 32.83203125 C-90.44150547 31.56840899 -88.55146918 31.64930242 -85.71875 31.51953125 C-56.4262579 29.43882149 -28.34604447 20.56071018 -5.21875 2.14453125 C-1.96875 -0.16796875 -1.96875 -0.16796875 0 0 Z M-6.61108398 17.98120117 C-28.89051056 33.65469987 -54.07165488 40.27817332 -80.96875 42.83203125 C-81.25867353 92.08780885 -81.43439659 144.74727738 -46.96875 183.83203125 C-46.25976562 184.6621875 -45.55078125 185.49234375 -44.8203125 186.34765625 C-34.72539039 197.9367726 -23.14150162 207.26064708 -10.84472656 216.37402344 C-9.05959271 217.76142836 -7.43112637 219.24236829 -5.7734375 220.77734375 C-3.22633464 223.02291093 -3.22633464 223.02291093 -0.59375 223.01171875 C3.39042445 221.22121178 6.61935411 218.65983751 10.03125 215.95703125 C10.7830957 215.37058838 11.53494141 214.78414551 12.30957031 214.17993164 C18.48630224 209.33231177 24.56383478 204.37858767 30.46630859 199.20019531 C31.52327517 198.2761328 32.58629196 197.35895188 33.65478516 196.44824219 C64.16320623 170.4015985 75.81905569 134.43054674 79.32788086 95.54467773 C80.18576314 84.49331291 80.14514693 73.47202529 80.09375 62.39453125 C80.08872031 60.4876314 80.08416003 58.58073024 80.08007812 56.67382812 C80.06919957 52.05986303 80.05201764 47.445962 80.03125 42.83203125 C79.41419189 42.77257324 78.79713379 42.71311523 78.16137695 42.65185547 C50.23931909 39.84958628 25.94926735 32.58266251 2.7890625 16.59375 C-1.5752009 13.80581403 -2.5971017 15.15201886 -6.61108398 17.98120117 Z " fill="#0A93E9" transform="translate(151.96875,27.16796875)"/>
<path d="M0 0 C3.31090015 2.04571797 6.5940111 4.11821692 9.84765625 6.25390625 C28.63754932 18.26223962 49.45333473 24.17114796 71.51953125 26.65234375 C72.29538574 26.74153076 73.07124023 26.83071777 73.87060547 26.92260742 C75.7585468 27.13932796 77.64681795 27.35317224 79.53515625 27.56640625 C79.95493886 72.51866523 79.95493886 72.51866523 77.53515625 91.56640625 C77.4386377 92.4078418 77.34211914 93.24927734 77.24267578 94.11621094 C72.6224362 134.00655528 53.27750282 165.92490326 22.20581055 190.94946289 C19.93167531 192.74307934 17.63103936 194.49796785 15.31298828 196.234375 C14.08023771 197.15800685 12.85235978 198.08816416 11.62841797 199.0234375 C9.73294785 200.46924012 7.82434565 201.89551288 5.91015625 203.31640625 C5.32999756 203.75952148 4.74983887 204.20263672 4.15209961 204.65917969 C0.06066067 207.63411362 0.06066067 207.63411362 -2.45825195 207.30957031 C-5.76867089 206.08351906 -8.31862225 203.77123104 -11.02734375 201.56640625 C-11.64794678 201.06874756 -12.2685498 200.57108887 -12.90795898 200.05834961 C-14.17156154 199.04308513 -15.4327316 198.02478544 -16.69140625 197.00341797 C-18.24377568 195.74553713 -19.80659725 194.50057786 -21.37109375 193.2578125 C-56.7798418 164.87874237 -75.01909005 130.95916932 -80.09375 85.69140625 C-81.92235771 66.37237517 -81.57892755 46.94836608 -81.46484375 27.56640625 C-80.60826172 27.48507446 -80.60826172 27.48507446 -79.734375 27.40209961 C-53.84178419 24.81129685 -28.38526802 18.51275614 -7.37084961 2.53979492 C-3.12662681 -0.55000884 -3.12662681 -0.55000884 0 0 Z M-6.02734375 10.00390625 C-26.4754258 23.82106073 -49.92731083 31.49517965 -74.46484375 33.56640625 C-75.14235776 69.75607769 -74.94482886 109.84633361 -57.46484375 142.56640625 C-56.93117188 143.57832031 -56.3975 144.59023437 -55.84765625 145.6328125 C-47.01772873 161.56330386 -33.61538933 175.12706936 -19.33203125 186.31640625 C-17.12526755 188.04814453 -14.98289544 189.81244295 -12.84765625 191.62890625 C-11.59534945 192.6709304 -10.34274844 193.71260106 -9.08984375 194.75390625 C-8.21489258 195.51417114 -8.21489258 195.51417114 -7.32226562 196.28979492 C-5.46527807 197.87337654 -5.46527807 197.87337654 -2.46484375 199.56640625 C2.39523334 198.91425533 6.35825106 194.70271416 10.03515625 191.62890625 C10.73785645 191.04842529 11.44055664 190.46794434 12.16455078 189.86987305 C13.60346388 188.67869504 15.03983421 187.4844387 16.47363281 186.28710938 C18.34971443 184.72119 20.23398409 183.16587231 22.12109375 181.61328125 C42.81873231 164.48420107 57.29732471 145.24956264 64.95849609 119.45776367 C65.45902872 117.81609296 66.02471679 116.19456079 66.6015625 114.578125 C74.45430694 89.24563144 72.9136401 59.82445136 72.53515625 33.56640625 C71.66117188 33.4684375 70.7871875 33.37046875 69.88671875 33.26953125 C45.68190286 30.32638802 20.97521383 23.85266633 1.22265625 8.8046875 C-1.86926853 6.53584454 -3.23320476 7.98622076 -6.02734375 10.00390625 Z " fill="#006DDF" transform="translate(152.46484375,42.43359375)"/>
</svg>
