<?xml version="1.0" encoding="UTF-8"?>
<svg version="1.1" xmlns="http://www.w3.org/2000/svg" width="213" height="207">
<path d="M0 0 C17.04115907 4.73554054 32.94721774 6.37916558 50.59963989 5.95852661 C53.65055508 6.14157644 55.78378327 6.83999824 58.53347778 8.134552 C58.37879028 9.37591919 58.22410278 10.61728638 58.06472778 11.89627075 C57.3196283 18.59560711 57.15710147 25.31388922 56.92800903 32.04666138 C56.89062622 33.0308606 56.85324341 34.01505981 56.81472778 35.02908325 C56.78443481 35.91442749 56.75414185 36.79977173 56.72293091 37.71194458 C56.54542831 39.98173616 56.09272917 41.93582221 55.53347778 44.134552 C55.33355404 45.93716307 55.17074013 47.74405864 55.03347778 49.55252075 C54.95154175 50.63082153 54.86960571 51.70912231 54.78518677 52.82009888 C54.66059082 54.55356567 54.66059082 54.55356567 54.53347778 56.322052 C54.4459021 57.5099231 54.35832642 58.69779419 54.26809692 59.92166138 C53.59640879 69.39165023 53.15769819 78.86084146 52.87527466 88.35012817 C52.84369263 89.33086304 52.8121106 90.3115979 52.77957153 91.322052 C52.7436792 92.61175903 52.7436792 92.61175903 52.70706177 93.92752075 C52.53347778 96.134552 52.53347778 96.134552 51.53347778 99.134552 C51.44089915 100.96555167 51.35198678 102.79695113 51.29568481 104.62942505 C50.79847795 118.80632017 45.31269393 127.09145225 35.53347778 137.134552 C34.87347778 137.134552 34.21347778 137.134552 33.53347778 137.134552 C33.28597778 137.753302 33.03847778 138.372052 32.78347778 139.009552 C31.2960741 141.53813827 30.0966977 141.85294205 27.53347778 143.134552 C27.27050903 143.71849731 27.00754028 144.30244263 26.73660278 144.90408325 C18.81138414 159.59661522 -7.91260488 171.46575414 -22.46652222 178.134552 C-27.28559261 178.134552 -30.32779271 176.15875181 -34.20870972 173.58377075 C-36.67087705 172.00338307 -39.19559016 170.63223029 -41.77902222 169.259552 C-59.6933921 159.56005892 -75.36043484 146.74987446 -88.46652222 131.134552 C-88.89449097 130.62907837 -89.32245972 130.12360474 -89.76339722 129.60281372 C-96.57607445 121.37681376 -98.46652222 114.79638193 -98.46652222 104.134552 C-98.79652222 103.144552 -99.12652222 102.154552 -99.46652222 101.134552 C-99.60150854 99.64030904 -99.69030949 98.14159143 -99.74777222 96.6423645 C-99.78515503 95.77224731 -99.82253784 94.90213013 -99.86105347 94.00564575 C-99.89585815 93.09943481 -99.93066284 92.19322388 -99.96652222 91.259552 C-100.03583148 89.47034612 -100.10864251 87.68127181 -100.18527222 85.8923645 C-100.21556519 85.0997522 -100.24585815 84.30713989 -100.27706909 83.49050903 C-100.42214736 81.10156655 -100.42214736 81.10156655 -100.96652222 78.66189575 C-101.48301513 76.0511855 -101.65589622 73.59729032 -101.74777222 70.9392395 C-101.78515503 69.97630981 -101.82253784 69.01338013 -101.86105347 68.02127075 C-101.93163922 66.0056553 -102.00194962 63.99003019 -102.07199097 61.97439575 C-102.10937378 61.01404419 -102.14675659 60.05369263 -102.18527222 59.0642395 C-102.23071167 57.75302124 -102.23071167 57.75302124 -102.27706909 56.41531372 C-102.38953075 53.97117673 -102.38953075 53.97117673 -103.46652222 51.134552 C-103.60520654 49.09414101 -103.69161129 47.04999316 -103.74777222 45.00564575 C-103.78515503 43.8061731 -103.82253784 42.60670044 -103.86105347 41.37088013 C-103.93147433 38.8344248 -104.0017865 36.29796645 -104.07199097 33.76150513 C-104.10937378 32.56332153 -104.14675659 31.36513794 -104.18527222 30.13064575 C-104.21556519 29.02906128 -104.24585815 27.92747681 -104.27706909 26.79251099 C-104.29440343 24.16004748 -104.29440343 24.16004748 -105.46652222 22.134552 C-105.53768604 19.76052699 -105.55061306 17.38454524 -105.52902222 15.009552 C-105.51999878 13.72822388 -105.51097534 12.44689575 -105.50167847 11.1267395 C-105.4900769 10.13931763 -105.47847534 9.15189575 -105.46652222 8.134552 C-101.86885209 5.88998049 -98.86110544 5.88172226 -94.67355347 5.8611145 C-93.3157131 5.84411269 -91.95788421 5.82617376 -90.60006714 5.80740356 C-89.89401337 5.800354 -89.18795959 5.79330444 -88.46051025 5.78604126 C-76.78584584 5.64427876 -65.7291882 5.19332035 -54.48849487 1.74343872 C-51.30983414 0.78623275 -48.0986313 -0.04275427 -44.88766479 -0.88400269 C-43.24601759 -1.3153109 -41.60633514 -1.75420329 -39.96920776 -2.20236206 C-25.68650603 -6.07114011 -13.97828383 -3.92857975 0 0 Z " fill="#63369B" transform="translate(129.46652221679688,16.865447998046875)"/>
<path d="M0 0 C3.5167792 0.87150505 7.03788564 1.72326125 10.5625 2.5625 C11.46178223 2.7797876 12.36106445 2.9970752 13.28759766 3.22094727 C24.37831991 5.76188284 35.66475902 6.39270415 47 7 C48.31383313 10.94149938 47.92235972 14.54379718 47.68359375 18.62890625 C47.63561142 19.50793106 47.58762909 20.38695587 47.53819275 21.2926178 C46.95812064 31.44989041 46.15994679 41.59066629 45.32543945 51.72973633 C45.06081479 54.95805898 44.80460529 58.18698131 44.54882812 61.41601562 C42.39217979 88.17845178 37.45803023 102.89570068 17.265625 121.37890625 C14.32570275 123.4824713 11.35811423 124.66567683 8 126 C4.68737782 111.28447795 1.6217111 96.56230106 -0.875 81.6875 C-1.19730591 79.79523682 -1.19730591 79.79523682 -1.52612305 77.86474609 C-2.45785414 72.18507347 -3.28921801 66.7588409 -3 61 C-0.26783636 63.63671687 2.10329616 66.33539627 4.375 69.375 C7.33816901 73.24695951 10.46978396 76.64198962 14 80 C12.3068404 72.46896718 9.75197967 65.28583317 7.0625 58.0625 C6.72669922 57.13864502 6.39089844 56.21479004 6.04492188 55.26293945 C3.68825729 48.83118371 3.68825729 48.83118371 -1 44 C-11.03806501 39.70255364 -20.42159998 40.08258658 -30.5546875 43.5390625 C-35.68769074 46.60574495 -37.72354304 52.33014741 -39.796875 57.7109375 C-40.15462006 58.63043686 -40.15462006 58.63043686 -40.51959229 59.56851196 C-41.26986566 61.5014578 -42.01007701 63.43807179 -42.75 65.375 C-43.26105454 66.69687157 -43.77276744 68.01848881 -44.28515625 69.33984375 C-45.53105324 72.55699437 -46.76796543 75.77751123 -48 79 C-47.67 79.33 -47.34 79.66 -47 80 C-41.35324752 74.69896706 -36.57297143 69.35056071 -32.3125 62.87109375 C-31.879375 62.25363281 -31.44625 61.63617188 -31 61 C-30.67 61 -30.34 61 -30 61 C-29.67276497 69.28475985 -30.62905639 76.93678076 -32.1875 85.0625 C-32.40946045 86.26100586 -32.6314209 87.45951172 -32.86010742 88.69433594 C-33.56201377 92.46513967 -34.27916163 96.23277291 -35 100 C-35.24008789 101.26376465 -35.48017578 102.5275293 -35.72753906 103.82958984 C-37.13305791 111.22338388 -38.55632118 118.61356355 -40 126 C-44.87645595 125.23361149 -47.62275857 123.21697604 -51.25 120 C-51.81920166 119.5037915 -52.38840332 119.00758301 -52.97485352 118.49633789 C-54.66294829 117.0114331 -56.33416763 115.50980399 -58 114 C-58.87011719 113.21496094 -59.74023438 112.42992187 -60.63671875 111.62109375 C-73.08445486 99.80736797 -74.99087535 88.1871943 -76.5 71.6875 C-76.62799917 70.31599824 -76.75601044 68.94449761 -76.8840332 67.57299805 C-78.74700866 47.3871629 -80.42070189 27.28718022 -80 7 C-78.43378906 6.96132813 -78.43378906 6.96132813 -76.8359375 6.921875 C-62.41009458 6.42259571 -48.29436185 4.25561316 -34.34375 0.51953125 C-21.77269608 -2.80372508 -12.56581095 -3.23240503 0 0 Z " fill="#6433A2" transform="translate(122,34)"/>
<path d="M0 0 C0.87769043 0.18353027 1.75538086 0.36706055 2.65966797 0.55615234 C6.90911828 1.4499313 11.14241366 2.39875412 15.3671875 3.40234375 C25.99021348 5.86904054 36.39823567 7.02900345 47.29541016 7.62939453 C48.36452637 7.69239746 49.43364258 7.75540039 50.53515625 7.8203125 C51.49301025 7.86816895 52.45086426 7.91602539 53.43774414 7.96533203 C55.75 8.3125 55.75 8.3125 57.75 10.3125 C58.00680542 12.31123352 58.00680542 12.31123352 58.01123047 14.80200195 C58.01632126 16.20605537 58.01632126 16.20605537 58.02151489 17.63847351 C58.01183685 18.66141006 58.00215881 19.68434662 57.9921875 20.73828125 C57.98645721 21.80516678 57.98072693 22.87205231 57.974823 23.9712677 C57.84506884 35.36538852 57.06196741 46.69835604 56.15087891 58.05297852 C55.87218188 61.53521153 55.60894289 65.0183745 55.34765625 68.50195312 C53.46124832 93.15275469 50.08425687 108.85288881 31.04785156 125.83056641 C20.22255492 135.04338953 4.66728355 148.11210424 -9.625 149.68359375 C-13.89122824 149.24685702 -17.14245617 147.85535509 -20.875 145.875 C-21.56867676 145.51591553 -22.26235352 145.15683105 -22.97705078 144.78686523 C-32.92975637 139.50967499 -41.8162618 133.07812033 -50.03125 125.35546875 C-52.22232707 123.27174733 -52.22232707 123.27174733 -54.6796875 121.4765625 C-57.87513629 118.78616945 -60.31673591 115.78568259 -62.875 112.5 C-63.59042969 111.61344727 -63.59042969 111.61344727 -64.3203125 110.70898438 C-64.784375 110.11794922 -65.2484375 109.52691406 -65.7265625 108.91796875 C-66.13986816 108.39356201 -66.55317383 107.86915527 -66.97900391 107.32885742 C-70.62737547 101.54093949 -71.78406808 96.26871105 -72.34765625 89.56640625 C-72.4665345 88.31218369 -72.4665345 88.31218369 -72.58781433 87.03262329 C-72.84160126 84.31437527 -73.07777804 81.59495541 -73.3125 78.875 C-73.48297704 76.98799899 -73.65387942 75.10103636 -73.82519531 73.21411133 C-74.85890954 61.65306766 -75.76433018 50.08383818 -76.5 38.5 C-76.58000244 37.24711182 -76.66000488 35.99422363 -76.74243164 34.70336914 C-78.04258243 12.50137364 -78.04258243 12.50137364 -75.25 8.3125 C-72.36417798 7.99724213 -69.64177848 7.85227296 -66.75 7.8125 C-52.04406207 7.30688355 -38.06345277 4.41254857 -23.7722168 1.02636719 C-15.23586029 -0.98956422 -8.60490099 -1.92063144 0 0 Z M-26.4375 5.625 C-39.23128428 8.72442178 -51.86550612 11.39123895 -65.0625 11.9375 C-66.52305224 12.00392045 -67.9835814 12.07084933 -69.4440918 12.13818359 C-70.7000415 12.19570801 -71.95599121 12.25323242 -73.25 12.3125 C-73.51724121 26.43273376 -72.83934265 40.34508213 -71.65087891 54.41455078 C-71.37360537 57.70404547 -71.10972448 60.99441863 -70.84765625 64.28515625 C-68.78704514 89.68375013 -66.90614502 105.53378706 -47.25 123.3125 C-40.94241358 129.0070366 -40.94241358 129.0070366 -33.25 131.3125 C-31.98423469 124.74760026 -30.72108315 118.18220143 -29.4597168 111.61645508 C-29.03062629 109.38456939 -28.60094544 107.15279711 -28.1706543 104.92114258 C-27.55100423 101.70684219 -26.9335032 98.49213515 -26.31640625 95.27734375 C-26.12470352 94.28540512 -25.93300079 93.29346649 -25.73548889 92.27146912 C-23.74916068 81.90062335 -23.74916068 81.90062335 -23.1875 71.375 C-23.19652344 70.41722656 -23.20554688 69.45945312 -23.21484375 68.47265625 C-23.22644531 67.75980469 -23.23804688 67.04695313 -23.25 66.3125 C-23.78367188 66.99957031 -24.31734375 67.68664062 -24.8671875 68.39453125 C-27.58238265 71.71953252 -30.45115905 74.85918302 -33.375 78 C-34.18130859 78.87108398 -34.18130859 78.87108398 -35.00390625 79.75976562 C-37.05743359 81.97460497 -39.11410927 84.17660927 -41.25 86.3125 C-38.8644509 78.95381922 -36.22625891 71.71522601 -33.4375 64.5 C-33.02435547 63.38173828 -32.61121094 62.26347656 -32.18554688 61.11132812 C-28.27531263 51.06762939 -28.27531263 51.06762939 -22.25 48.3125 C-13.17616871 44.82256489 -3.15445966 45.50036711 5.75 49.3125 C9.29764588 52.30612518 10.74039042 55.14136976 12.328125 59.46875 C12.76640625 60.65597656 13.2046875 61.84320313 13.65625 63.06640625 C14.0996875 64.30261719 14.543125 65.53882813 15 66.8125 C15.45890625 68.04871094 15.9178125 69.28492187 16.390625 70.55859375 C19.75 79.76688058 19.75 79.76688058 19.75 84.3125 C14.43570542 79.37089621 10.10239687 74.27603421 6.09765625 68.21875 C5.65292969 67.5896875 5.20820312 66.960625 4.75 66.3125 C4.42 66.3125 4.09 66.3125 3.75 66.3125 C4.14453879 78.72788031 6.28224795 90.58805342 8.6875 102.75 C9.05221824 104.63721807 9.41615494 106.52458735 9.77929688 108.41210938 C10.13210982 110.23190721 10.48560118 112.05157367 10.83984375 113.87109375 C11.00137436 114.70144638 11.16290497 115.53179901 11.32933044 116.38731384 C12.32309252 121.40629587 13.47060439 126.35843332 14.75 131.3125 C27.93441814 126.63415808 39.80601659 113.77569102 45.75 101.3125 C48.17880684 95.130799 49.32955504 89.28827547 49.84765625 82.6875 C49.9665345 81.34174896 49.9665345 81.34174896 50.08781433 79.96881104 C50.33998121 77.08417264 50.57660171 74.19851014 50.8125 71.3125 C50.98253915 69.3251216 51.15344126 67.33781686 51.32519531 65.35058594 C51.73923816 60.52953094 52.14057472 55.70752769 52.53717041 50.88500977 C52.83352847 47.30287629 53.14159018 43.72180777 53.44921875 40.140625 C53.63384912 37.94800371 53.81755186 35.75530395 54 33.5625 C54.12000366 32.13164063 54.12000366 32.13164063 54.24243164 30.671875 C55.20900686 21.37871211 55.20900686 21.37871211 53.75 12.3125 C53.16025391 12.28857178 52.57050781 12.26464355 51.96289062 12.23999023 C36.04829016 11.49988229 21.03842421 8.95792444 5.58332825 5.32232666 C2.64277173 4.63517672 -0.30387956 3.97531525 -3.25 3.3125 C-3.96696045 3.12985596 -4.6839209 2.94721191 -5.42260742 2.7590332 C-12.44569408 1.33094565 -19.62928645 3.94378973 -26.4375 5.625 Z " fill="#2A1046" transform="translate(115.25,28.6875)"/>
<path d="M0 0 C6.98979026 4.93396959 13.107495 10.60696544 19.33300781 16.44628906 C20.91661924 17.92228542 22.51283955 19.38253901 24.1171875 20.8359375 C30.95644172 27.03180827 37.52167056 33.42897816 44 40 C43.50016602 41.29417847 43.50016602 41.29417847 42.99023438 42.61450195 C41.75625031 45.8166043 40.52676505 49.02035862 39.30029297 52.2253418 C38.76855937 53.61209913 38.23504198 54.99817385 37.69970703 56.38354492 C36.93051643 58.37502078 36.16777516 60.36886369 35.40625 62.36328125 C34.71499023 64.16212769 34.71499023 64.16212769 34.00976562 65.99731445 C32.84062664 68.94593251 32.84062664 68.94593251 33 72 C38.64675248 66.69896706 43.42702857 61.35056071 47.6875 54.87109375 C48.120625 54.25363281 48.55375 53.63617188 49 53 C49.33 53 49.66 53 50 53 C50.32723503 61.28475985 49.37094361 68.93678076 47.8125 77.0625 C47.59053955 78.26100586 47.3685791 79.45951172 47.13989258 80.69433594 C46.43798623 84.46513967 45.72083837 88.23277291 45 92 C44.75991211 93.26376465 44.51982422 94.5275293 44.27246094 95.82958984 C42.86694209 103.22338388 41.44367882 110.61356355 40 118 C35.12354405 117.23361149 32.37724143 115.21697604 28.75 112 C28.18079834 111.5037915 27.61159668 111.00758301 27.02514648 110.49633789 C25.33705171 109.0114331 23.66583237 107.50980399 22 106 C21.12988281 105.21496094 20.25976562 104.42992187 19.36328125 103.62109375 C6.91549468 91.80732008 5.00922146 80.18722547 3.5 63.6875 C3.37200594 62.31673018 3.24399458 60.94596198 3.1159668 59.57519531 C1.28377669 39.73203434 -0.44210284 19.94375049 0 0 Z " fill="#7C44C7" transform="translate(42,42)"/>
<path d="M0 0 C2 2 2 2 2.04467773 5.69360352 C1.9567841 7.31854219 1.85621845 8.9428227 1.74609375 10.56640625 C1.6935997 11.44994278 1.64110565 12.33347931 1.58702087 13.24378967 C0.95954495 23.41450816 0.16129233 33.57431821 -0.67456055 43.72973633 C-0.93918521 46.95805898 -1.19539471 50.18698131 -1.45117188 53.41601562 C-3.60782021 80.17845178 -8.54196977 94.89570068 -28.734375 113.37890625 C-31.67429725 115.4824713 -34.64188577 116.66567683 -38 118 C-41.31262218 103.28447795 -44.3782889 88.56230106 -46.875 73.6875 C-47.08987061 72.42599121 -47.30474121 71.16448242 -47.52612305 69.86474609 C-48.45785414 64.18507347 -49.28921801 58.7588409 -49 53 C-46.26783636 55.63671687 -43.89670384 58.33539627 -41.625 61.375 C-38.66183099 65.24695951 -35.53021604 68.64198962 -32 72 C-33.90763396 63.91526559 -36.68124067 56.25585848 -39.75024414 48.55151367 C-40.20645142 47.36779175 -40.20645142 47.36779175 -40.671875 46.16015625 C-40.9512793 45.45511963 -41.23068359 44.75008301 -41.51855469 44.02368164 C-42.09077522 41.61844027 -41.85468502 40.30359394 -41 38 C-39.21484375 35.88671875 -39.21484375 35.88671875 -36.9375 33.6875 C-36.20402344 32.96949219 -35.47054687 32.25148437 -34.71484375 31.51171875 C-32.5802175 29.53680554 -30.42206939 27.61641563 -28.2265625 25.7109375 C-23.09771287 21.24806296 -18.19228564 16.55838967 -13.26757812 11.87304688 C-8.94751769 7.78097871 -4.55136398 3.8336719 0 0 Z " fill="#7C44C7" transform="translate(168,42)"/>
<path d="M0 0 C0.78153946 0.02311249 1.56307892 0.04622498 2.36830139 0.07003784 C4.01857876 0.12292957 5.66856379 0.18575018 7.31811523 0.2578125 C9.83487884 0.36663502 12.35107862 0.44374367 14.86914062 0.515625 C16.47532597 0.57104834 18.08145014 0.62828041 19.6875 0.6875 C20.43660141 0.71159943 21.18570282 0.73569885 21.95750427 0.76052856 C25.99741153 0.94771972 29.2606018 1.46832908 32.91015625 3.2421875 C32.75546875 4.48355469 32.60078125 5.72492187 32.44140625 7.00390625 C31.69630677 13.70324261 31.53377994 20.42152472 31.3046875 27.15429688 C31.26730469 28.13849609 31.22992188 29.12269531 31.19140625 30.13671875 C31.16111328 31.02206299 31.13082031 31.90740723 31.09960938 32.81958008 C30.92210678 35.08937166 30.46940764 37.04345771 29.91015625 39.2421875 C29.7102325 41.04479856 29.5474186 42.85169414 29.41015625 44.66015625 C29.32822021 45.73845703 29.24628418 46.81675781 29.16186523 47.92773438 C29.07880127 49.08337891 28.9957373 50.23902344 28.91015625 51.4296875 C28.82258057 52.61755859 28.73500488 53.80542969 28.64477539 55.02929688 C27.97308726 64.49928573 27.53437666 73.96847696 27.25195312 83.45776367 C27.22037109 84.43849854 27.18878906 85.4192334 27.15625 86.4296875 C27.12035767 87.71939453 27.12035767 87.71939453 27.08374023 89.03515625 C26.91015625 91.2421875 26.91015625 91.2421875 25.91015625 94.2421875 C25.81757762 96.07318717 25.72866525 97.90458662 25.67236328 99.73706055 C25.17515642 113.91395567 19.68937239 122.19908775 9.91015625 132.2421875 C9.25015625 132.2421875 8.59015625 132.2421875 7.91015625 132.2421875 C7.53890625 133.1703125 7.53890625 133.1703125 7.16015625 134.1171875 C5.67275256 136.64577377 4.47337616 136.96057754 1.91015625 138.2421875 C1.6471875 138.82613281 1.38421875 139.41007813 1.11328125 140.01171875 C-5.16085983 151.64332445 -23.56219587 159.88330964 -34.65234375 166.2421875 C-35.31911133 166.62834229 -35.98587891 167.01449707 -36.67285156 167.41235352 C-40.29904282 169.45081868 -42.92304011 170.40882677 -47.08984375 171.2421875 C-47.08984375 166.2921875 -47.08984375 161.3421875 -47.08984375 156.2421875 C-46.02507812 155.70851562 -44.9603125 155.17484375 -43.86328125 154.625 C-33.96477859 149.57937938 -24.84952445 144.0780131 -16.08984375 137.2421875 C-15.5278125 136.80648437 -14.96578125 136.37078125 -14.38671875 135.921875 C-2.84026854 126.86479708 10.23676334 115.49002238 12.17651367 100.22851562 C12.27424072 99.30490234 12.37196777 98.38128906 12.47265625 97.4296875 C12.64535034 95.92245117 12.64535034 95.92245117 12.8215332 94.38476562 C15.56772439 68.97833061 18.25149578 42.80502355 16.91015625 17.2421875 C15.1579848 15.49001605 12.65297271 15.90499011 10.265625 15.7421875 C9.11384766 15.6596875 7.96207031 15.5771875 6.77539062 15.4921875 C5.56173828 15.4096875 4.34808594 15.3271875 3.09765625 15.2421875 C0.71592391 15.07872276 -1.66559994 14.91218371 -4.046875 14.7421875 C-5.1088208 14.67 -6.1707666 14.5978125 -7.26489258 14.5234375 C-9.65091013 14.2858874 -11.79273541 13.90591181 -14.08984375 13.2421875 C-13.85925276 11.82223249 -13.60440237 10.40620772 -13.33984375 8.9921875 C-13.200625 8.20328125 -13.06140625 7.414375 -12.91796875 6.6015625 C-10.61393105 0.03722867 -6.27939829 -0.30300605 0 0 Z " fill="#63369A" transform="translate(155.08984375,21.7578125)"/>
<path d="M0 0 C2 1 2 1 3.5625 3.875 C8.39291437 12.60206834 15.31804599 19.7557695 23 26 C23.77472656 26.68449219 24.54945312 27.36898437 25.34765625 28.07421875 C36.19507954 37.44914114 49.69296393 46.61549399 64 49 C64 53.95 64 58.9 64 64 C64.66 64.33 65.32 64.66 66 65 C60.63550822 66.45118471 57.96459563 65.45108765 53.125 62.875 C52.50713623 62.54951172 51.88927246 62.22402344 51.25268555 61.88867188 C46.69351813 59.4590328 42.31436163 56.83369314 38 54 C36.72576172 53.21689453 36.72576172 53.21689453 35.42578125 52.41796875 C17.89874803 41.58885338 -0.77018691 26.18633438 -11 8 C-10 5 -10 5 -7.78515625 3.578125 C-6.88667969 3.13984375 -5.98820312 2.7015625 -5.0625 2.25 C-4.16660156 1.80140625 -3.27070312 1.3528125 -2.34765625 0.890625 C-1.18556641 0.44976562 -1.18556641 0.44976562 0 0 Z " fill="#65389C" transform="translate(44,129)"/>
<path d="M0 0 C1.48675162 0.38174668 2.97372985 0.76261192 4.4609375 1.14257812 C8.05995497 2.06409599 11.65578047 2.9974193 15.25 3.9375 C15.25 4.5975 15.25 5.2575 15.25 5.9375 C14.78980469 6.37707031 14.32960938 6.81664062 13.85546875 7.26953125 C11.91701711 9.28344573 11.37185634 10.96568631 10.5625 13.625 C10.31113281 14.43324219 10.05976563 15.24148437 9.80078125 16.07421875 C9.61902344 16.68910156 9.43726563 17.30398437 9.25 17.9375 C8.0640625 17.68355469 6.878125 17.42960937 5.65625 17.16796875 C3.14488129 16.63041564 0.63262834 16.1011667 -1.88427734 15.59008789 C-5.86154219 14.78103557 -9.79612679 13.95955798 -13.6953125 12.828125 C-25.64293987 9.73341048 -35.97072252 12.4443155 -47.75634766 15.25537109 C-52.39180871 16.31159995 -57.06482925 17.13533584 -61.75 17.9375 C-62.7265625 15.43098958 -63.703125 12.92447917 -64.6796875 10.41796875 C-65.73832155 7.76038409 -65.73832155 7.76038409 -67.75 4.9375 C-61.18350335 2.29825827 -54.55546251 0.49669537 -47.6875 -1.1875 C-46.63755859 -1.45175781 -45.58761719 -1.71601563 -44.50585938 -1.98828125 C-28.4458938 -5.97042501 -15.71645803 -4.11629929 0 0 Z " fill="#824CCA" transform="translate(131.75,17.0625)"/>
<path d="M0 0 C2.65047935 1.29465722 4.45287245 2.96064636 6.59375 4.9921875 C11.88960489 9.90920329 17.4001991 14.46379486 23.03125 18.9921875 C19.86470279 23.57766852 16.54887818 25.75292422 11.71875 28.2421875 C11.08001953 28.5928125 10.44128906 28.9434375 9.78320312 29.3046875 C5.56131046 31.52898758 1.89096488 32.9921875 -2.96875 32.9921875 C-6.08692652 31.90830018 -8.86151586 30.38272857 -11.71875 28.7421875 C-12.47285156 28.33355469 -13.22695312 27.92492187 -14.00390625 27.50390625 C-17.43480662 25.6086842 -20.27850243 23.87771173 -22.96875 20.9921875 C-21.7080637 17.21012859 -20.10040391 16.29421928 -16.96875 13.8671875 C-12.18776842 10.08716565 -8.01704824 6.07198031 -3.94140625 1.546875 C-1.96875 -0.0078125 -1.96875 -0.0078125 0 0 Z " fill="#5D2E97" transform="translate(105.96875,141.0078125)"/>
<path d="M0 0 C1.82299727 3.38556636 2.49845079 6.6803498 3.3125 10.4375 C-6.6345536 12.9410281 -16.51516893 12.62724296 -26.6875 12.4375 C-27.0175 13.4275 -27.3475 14.4175 -27.6875 15.4375 C-32.58728413 11.47998205 -36.69270914 7.30919618 -40.6875 2.4375 C-41.0175 6.3975 -41.3475 10.3575 -41.6875 14.4375 C-42.0175 14.4375 -42.3475 14.4375 -42.6875 14.4375 C-42.6875 9.8175 -42.6875 5.1975 -42.6875 0.4375 C-38.42674574 -1.69287713 -36.16645831 -1.87400257 -31.47265625 -2.01171875 C-30.43352333 -2.04432549 -30.43352333 -2.04432549 -29.37339783 -2.07759094 C-27.91190111 -2.12139378 -26.45026091 -2.16061925 -24.98852539 -2.19555664 C-22.7607403 -2.24973878 -20.5338943 -2.3200011 -18.30664062 -2.39257812 C-3.05450902 -2.8282491 -3.05450902 -2.8282491 0 0 Z " fill="#63369B" transform="translate(66.6875,24.5625)"/>
<path d="M0 0 C1.91796875 1.296875 1.91796875 1.296875 3.6875 2.6875 C5.234375 3.7084375 5.234375 3.7084375 6.8125 4.75 C9.01479675 8.20026491 8.84736029 9.12853271 8.25 13.0625 C6.94484805 18.52644122 5.33991888 23.49239472 0.875 27.1875 C-2.57501098 27.97607394 -4.90494546 27.64400654 -8.3125 26.6875 C-13.54386131 21.45613869 -15.79580148 17.05045397 -16.3125 9.6875 C-15.11571364 5.38444793 -13.41921472 3.52230899 -9.6875 1.125 C-5.94910199 -0.97886035 -3.96591548 -1.88853118 0 0 Z " fill="#2A1046" transform="translate(109.3125,42.3125)"/>
<path d="M0 0 C2 2 2 2 2.13525391 3.87939453 C2.08288574 4.62302246 2.03051758 5.36665039 1.9765625 6.1328125 C1.925 6.93847656 1.8734375 7.74414062 1.8203125 8.57421875 C1.75585938 9.41597656 1.69140625 10.25773437 1.625 11.125 C1.53992188 12.39923828 1.53992188 12.39923828 1.453125 13.69921875 C1.31149023 15.8001345 1.15695674 17.90017334 1 20 C-6.30953055 23.52190356 -13.62422214 27.03281605 -20.94384766 30.53369141 C-23.45016414 31.73619475 -25.95111562 32.94854961 -28.44921875 34.16796875 C-29.57972656 34.71066406 -30.71023437 35.25335938 -31.875 35.8125 C-32.82117188 36.27269531 -33.76734375 36.73289063 -34.7421875 37.20703125 C-37 38 -37 38 -40 37 C-38.83687329 35.80903249 -37.66923328 34.62247296 -36.5 33.4375 C-35.8503125 32.77621094 -35.200625 32.11492187 -34.53125 31.43359375 C-32.48072556 29.46217905 -30.40143541 27.58874266 -28.25390625 25.7265625 C-23.11264927 21.26166058 -18.20000397 16.56573285 -13.26757812 11.87304688 C-8.94751769 7.78097871 -4.55136398 3.8336719 0 0 Z " fill="#AE66F8" transform="translate(168,42)"/>
<path d="M0 0 C0.74900574 0.05005188 1.49801147 0.10010376 2.26971436 0.15167236 C4.65566716 0.31568211 7.03820457 0.5089712 9.421875 0.703125 C11.04152837 0.81964683 12.66132081 0.9342526 14.28125 1.046875 C18.24674655 1.32677168 22.2094362 1.63294071 26.171875 1.953125 C25.45946655 3.37262451 25.45946655 3.37262451 24.73266602 4.82080078 C23.86613573 6.55982527 23.01033083 8.3047593 22.19921875 10.0703125 C20.72287116 12.45151829 19.63252057 13.5487763 17.171875 14.953125 C6.84814438 16.29480031 -3.66697086 14.96381275 -13.828125 12.953125 C-13.59753401 11.53316999 -13.34268362 10.11714522 -13.078125 8.703125 C-12.93890625 7.91421875 -12.7996875 7.1253125 -12.65625 6.3125 C-10.36815569 -0.20641021 -6.2271599 -0.55456225 0 0 Z " fill="#5D2E97" transform="translate(154.828125,22.046875)"/>
<path d="M0 0 C6.98453714 4.93026151 13.09881249 10.59833649 19.31982422 16.43310547 C21.4584407 18.42753159 23.62102802 20.3946766 25.78515625 22.36132812 C31.00176886 27.10430967 36.08009922 31.94986655 41 37 C40.01 37.495 40.01 37.495 39 38 C36.5308155 36.97861043 34.18339256 35.89426727 31.796875 34.703125 C31.08146545 34.35368835 30.36605591 34.00425171 29.62896729 33.64422607 C27.33225886 32.52022246 25.04116352 31.38525688 22.75 30.25 C21.22040578 29.49927891 19.69046177 28.74927007 18.16015625 28 C12.09378889 25.02557947 6.04307046 22.02153523 0 19 C0 12.73 0 6.46 0 0 Z " fill="#AE66F8" transform="translate(42,42)"/>
<path d="M0 0 C0.33 0 0.66 0 1 0 C1 10.89 1 21.78 1 33 C-3.94381864 31.35206045 -7.80960039 29.65565147 -12.25 27.125 C-13.18585938 26.61646484 -13.18585938 26.61646484 -14.140625 26.09765625 C-17.51912748 24.18268609 -19.74832612 22.77193616 -21 19 C-20.07058594 18.21496094 -19.14117187 17.42992187 -18.18359375 16.62109375 C-11.88620064 11.27702645 -5.77698823 5.91133679 0 0 Z " fill="#7D45C7" transform="translate(104,141)"/>
<path d="M0 0 C3.72910066 -0.0582462 7.45808364 -0.09367917 11.1875 -0.125 C12.24259766 -0.14175781 13.29769531 -0.15851562 14.38476562 -0.17578125 C15.91713867 -0.18544922 15.91713867 -0.18544922 17.48046875 -0.1953125 C18.41785889 -0.20578613 19.35524902 -0.21625977 20.32104492 -0.22705078 C23.21630812 0.01833287 25.37062697 0.79478381 28 2 C27.67 4.97 27.34 7.94 27 11 C26.67 11 26.34 11 26 11 C25.67 9.02 25.34 7.04 25 5 C21.37 8.96 17.74 12.92 14 17 C13.01 16.01 12.02 15.02 11 14 C11.56589844 13.30132812 12.13179687 12.60265625 12.71484375 11.8828125 C13.44832031 10.97273438 14.18179688 10.06265625 14.9375 9.125 C15.66839844 8.22007813 16.39929688 7.31515625 17.15234375 6.3828125 C19.0036252 4.15497253 19.0036252 4.15497253 20 2 C13.4 1.67 6.8 1.34 0 1 C0 0.67 0 0.34 0 0 Z " fill="#C490F9" transform="translate(160,23)"/>
<path d="M0 0 C-0.66 0.66 -1.32 1.32 -2 2 C0.44299693 6.69940067 0.44299693 6.69940067 3.8125 10.6875 C4.204375 11.120625 4.59625 11.55375 5 12 C4.57421875 14.08203125 4.57421875 14.08203125 4 16 C-0.89978413 12.04248205 -5.00520914 7.87169618 -9 3 C-9.33 6.96 -9.66 10.92 -10 15 C-10.33 15 -10.66 15 -11 15 C-11 10.38 -11 5.76 -11 1 C-6.46780033 -1.26609984 -4.82227075 -0.92735976 0 0 Z " fill="#BE84F9" transform="translate(35,24)"/>
<path d="M0 0 C1.32 0 2.64 0 4 0 C4 4.95 4 9.9 4 15 C4.66 15.33 5.32 15.66 6 16 C3.1875 16.625 3.1875 16.625 0 17 C-0.99 16.34 -1.98 15.68 -3 15 C-2.34 15 -1.68 15 -1 15 C-1.01160156 14.25234375 -1.02320312 13.5046875 -1.03515625 12.734375 C-1.04417969 11.74953125 -1.05320312 10.7646875 -1.0625 9.75 C-1.07410156 8.77546875 -1.08570312 7.8009375 -1.09765625 6.796875 C-1.01195577 4.34241322 -0.70706066 2.33831086 0 0 Z " fill="#B472F8" transform="translate(104,178)"/>
<path d="M0 0 C4.40219569 0.66699935 8.00855246 2.08103484 12 4 C12.33 4.66 12.66 5.32 13 6 C12.34 7.65 11.68 9.3 11 11 C7.04 8.69 3.08 6.38 -1 4 C-0.67 2.68 -0.34 1.36 0 0 Z " fill="#B26FF8" transform="translate(166,129)"/>
<path d="M0 0 C0.66 0.33 1.32 0.66 2 1 C2 1.99 2 2.98 2 4 C0.3203125 5.38671875 0.3203125 5.38671875 -1.875 6.6875 C-2.59429687 7.12449219 -3.31359375 7.56148437 -4.0546875 8.01171875 C-6 9 -6 9 -8 9 C-8.33 9.66 -8.66 10.32 -9 11 C-9.66 9.35 -10.32 7.7 -11 6 C-9.73168307 5.18357746 -8.46024069 4.37200895 -7.1875 3.5625 C-6.47980469 3.11003906 -5.77210937 2.65757812 -5.04296875 2.19140625 C-3 1 -3 1 0 0 Z " fill="#B370F8" transform="translate(44,129)"/>
<path d="M0 0 C1.32 0 2.64 0 4 0 C4 4.95 4 9.9 4 15 C3.01 14.67 2.02 14.34 1 14 C-0.38226016 11.23547967 -0.09525387 8.9538637 -0.0625 5.875 C-0.05347656 4.77929688 -0.04445313 3.68359375 -0.03515625 2.5546875 C-0.02355469 1.71164062 -0.01195313 0.86859375 0 0 Z " fill="#AF68F8" transform="translate(103,12)"/>
</svg>
