<?xml version="1.0" encoding="UTF-8"?>
<svg version="1.1" xmlns="http://www.w3.org/2000/svg" width="267" height="291">
<path d="M0 0 C2.28251205 1.24500658 4.13680932 2.49278154 6.1875 4.0625 C29.57384027 21.95130506 56.6491776 29.97624515 85.90625 31.2890625 C88.75 31.5 88.75 31.5 90.75 32.5 C90.80164859 39.89336076 90.8361205 47.28667338 90.85986328 54.68017578 C90.86978423 57.18377418 90.8833252 59.68736145 90.90087891 62.19091797 C91.28562809 118.56799001 81.64564318 164.93854632 41.3125 206.125 C27.80432077 219.5 27.80432077 219.5 23.75 219.5 C23.75 220.16 23.75 220.82 23.75 221.5 C21.44767591 223.19376707 19.149819 224.76804243 16.75 226.3125 C16.06172119 226.76028809 15.37344238 227.20807617 14.66430664 227.66943359 C13.30287873 228.55367821 11.93971621 229.43525872 10.57470703 230.31396484 C9.09536702 231.27551606 7.63615867 232.26799105 6.18359375 233.26953125 C2.12746613 236.02388797 -0.37776059 236.96046707 -5.25 236.5 C-7.4609375 235.390625 -7.4609375 235.390625 -9.625 233.75 C-10.47707031 233.11578125 -11.32914062 232.4815625 -12.20703125 231.828125 C-13.71330078 230.67570312 -13.71330078 230.67570312 -15.25 229.5 C-16.54430488 228.53475568 -17.83996673 227.57132922 -19.13671875 226.609375 C-22.57615381 224.05309287 -25.99899593 221.47577474 -29.41455078 218.88769531 C-31.03052137 217.66593729 -32.65340366 216.4533325 -34.27734375 215.2421875 C-35.09332031 214.62601563 -35.90929687 214.00984375 -36.75 213.375 C-37.4409375 212.85679687 -38.131875 212.33859375 -38.84375 211.8046875 C-39.3078125 211.37414062 -39.771875 210.94359375 -40.25 210.5 C-40.25 209.84 -40.25 209.18 -40.25 208.5 C-41.24 208.17 -42.23 207.84 -43.25 207.5 C-43.25 206.84 -43.25 206.18 -43.25 205.5 C-43.848125 205.231875 -44.44625 204.96375 -45.0625 204.6875 C-47.24847854 203.50082594 -48.66332594 202.40400887 -50.25 200.5 C-50.25 199.84 -50.25 199.18 -50.25 198.5 C-50.83523437 198.25636719 -51.42046875 198.01273438 -52.0234375 197.76171875 C-69.34770762 187.94463235 -81.64124764 155.68563484 -86.84326172 137.41650391 C-93.01376127 114.0656091 -93.74834847 90.31880844 -93.91955566 66.32562256 C-93.94991869 62.49626604 -93.9962484 58.66710103 -94.04101562 54.83789062 C-94.12582156 47.39202447 -94.19369418 39.94614224 -94.25 32.5 C-91.19406999 31.48135666 -88.83043081 31.29541531 -85.625 31.125 C-60.12394134 29.25906888 -30.71104332 21.63160709 -10.484375 5.26171875 C-8.25 3.5 -8.25 3.5 -6.25 3.5 C-6.25 2.84 -6.25 2.18 -6.25 1.5 C-3.9048395 -0.06344033 -2.79922413 -0.62204981 0 0 Z " fill="#A826C1" transform="translate(133.25,25.5)"/>
<path d="M0 0 C2.28251205 1.24500658 4.13680932 2.49278154 6.1875 4.0625 C29.57384027 21.95130506 56.6491776 29.97624515 85.90625 31.2890625 C88.75 31.5 88.75 31.5 90.75 32.5 C90.80164859 39.89336076 90.8361205 47.28667338 90.85986328 54.68017578 C90.86978423 57.18377418 90.8833252 59.68736145 90.90087891 62.19091797 C91.28562809 118.56799001 81.64564318 164.93854632 41.3125 206.125 C27.80432077 219.5 27.80432077 219.5 23.75 219.5 C23.75 220.16 23.75 220.82 23.75 221.5 C21.44767591 223.19376707 19.149819 224.76804243 16.75 226.3125 C16.06172119 226.76028809 15.37344238 227.20807617 14.66430664 227.66943359 C13.30287873 228.55367821 11.93971621 229.43525872 10.57470703 230.31396484 C9.09536702 231.27551606 7.63615867 232.26799105 6.18359375 233.26953125 C2.12746613 236.02388797 -0.37776059 236.96046707 -5.25 236.5 C-7.4609375 235.390625 -7.4609375 235.390625 -9.625 233.75 C-10.47707031 233.11578125 -11.32914062 232.4815625 -12.20703125 231.828125 C-13.71330078 230.67570312 -13.71330078 230.67570312 -15.25 229.5 C-16.54430488 228.53475568 -17.83996673 227.57132922 -19.13671875 226.609375 C-22.57615381 224.05309287 -25.99899593 221.47577474 -29.41455078 218.88769531 C-31.03052137 217.66593729 -32.65340366 216.4533325 -34.27734375 215.2421875 C-35.09332031 214.62601563 -35.90929687 214.00984375 -36.75 213.375 C-37.4409375 212.85679687 -38.131875 212.33859375 -38.84375 211.8046875 C-39.3078125 211.37414062 -39.771875 210.94359375 -40.25 210.5 C-40.25 209.84 -40.25 209.18 -40.25 208.5 C-41.24 208.17 -42.23 207.84 -43.25 207.5 C-43.25 206.84 -43.25 206.18 -43.25 205.5 C-43.848125 205.231875 -44.44625 204.96375 -45.0625 204.6875 C-47.24847854 203.50082594 -48.66332594 202.40400887 -50.25 200.5 C-50.25 199.84 -50.25 199.18 -50.25 198.5 C-50.83523437 198.25636719 -51.42046875 198.01273438 -52.0234375 197.76171875 C-69.34770762 187.94463235 -81.64124764 155.68563484 -86.84326172 137.41650391 C-93.01376127 114.0656091 -93.74834847 90.31880844 -93.91955566 66.32562256 C-93.94991869 62.49626604 -93.9962484 58.66710103 -94.04101562 54.83789062 C-94.12582156 47.39202447 -94.19369418 39.94614224 -94.25 32.5 C-91.19406999 31.48135666 -88.83043081 31.29541531 -85.625 31.125 C-60.12394134 29.25906888 -30.71104332 21.63160709 -10.484375 5.26171875 C-8.25 3.5 -8.25 3.5 -6.25 3.5 C-6.25 2.84 -6.25 2.18 -6.25 1.5 C-3.9048395 -0.06344033 -2.79922413 -0.62204981 0 0 Z M-7.1472168 25.29370117 C-28.56662639 37.95773166 -51.6831581 45.08043959 -76.25 48.5 C-77.23546516 98.4656107 -73.85710518 147.07506636 -38.25 185.5 C-37.77836426 186.01014648 -37.30672852 186.52029297 -36.82080078 187.04589844 C-29.2999851 195.07862877 -21.08037967 201.95474631 -12.25 208.5 C-10.90808594 209.51707031 -10.90808594 209.51707031 -9.5390625 210.5546875 C-5.62598103 213.63149847 -5.62598103 213.63149847 -0.91015625 214.41015625 C2.56334765 213.22171806 5.31829835 211.3391662 8.25 209.1875 C9.16422729 208.52415649 9.16422729 208.52415649 10.09692383 207.84741211 C16.20756296 203.31747787 21.7680896 198.27180647 27.22265625 192.98046875 C28.68969604 191.5584532 30.1716799 190.1536671 31.65625 188.75 C49.2215781 171.77676161 61.93171203 150.67403623 67.20703125 126.6953125 C67.75 124.5 67.75 124.5 68.75 123.5 C74.09010747 99.40220413 73.00799369 74.01336933 72.75 49.5 C72.11723145 49.37995605 71.48446289 49.25991211 70.83251953 49.13623047 C46.40565632 44.43994622 23.13163292 37.74046606 2.15625 23.96875 C-1.86013538 21.51719009 -3.3044991 23.02038169 -7.1472168 25.29370117 Z " fill="#A52ABD" transform="translate(133.25,25.5)"/>
<path d="M0 0 C3.11271382 1.45980871 6.00197335 3.209071 8.92114258 5.02026367 C31.36083978 18.86874597 55.70303739 26.7381564 82 29 C82.69967188 86.60990646 79.49634625 137.45890625 38 181 C37.23429687 181.83015625 36.46859375 182.6603125 35.6796875 183.515625 C28.7805874 190.7655268 20.95317148 196.68781093 12.90722656 202.59228516 C11.29404151 203.78296936 9.70297132 205.00352761 8.1171875 206.23046875 C6.97636719 207.07544922 6.97636719 207.07544922 5.8125 207.9375 C5.20019531 208.40027344 4.58789062 208.86304688 3.95703125 209.33984375 C0.77383761 210.41361566 -0.98681871 209.36631558 -4 208 C-6.61618008 206.35282943 -9.05548497 204.51531723 -11.5 202.625 C-12.19488525 202.09479248 -12.88977051 201.56458496 -13.60571289 201.01831055 C-47.15655741 175.16978514 -71.31061425 143.63720945 -78 101 C-78.78719264 94.89567176 -79.24105777 88.76192172 -79.6875 82.625 C-79.78280502 81.37588333 -79.78280502 81.37588333 -79.8800354 80.10153198 C-81.16576073 63.05608776 -81.33744041 46.08486764 -81 29 C-80.40276123 28.90501221 -79.80552246 28.81002441 -79.19018555 28.7121582 C-51.37831404 24.23151918 -22.73440782 17.77318213 0 0 Z M-4.8972168 11.79370117 C-26.31662639 24.45773166 -49.4331581 31.58043959 -74 35 C-74.98546516 84.9656107 -71.60710518 133.57506636 -36 172 C-35.52836426 172.51014648 -35.05672852 173.02029297 -34.57080078 173.54589844 C-27.0499851 181.57862877 -18.83037967 188.45474631 -10 195 C-8.65808594 196.01707031 -8.65808594 196.01707031 -7.2890625 197.0546875 C-3.37598103 200.13149847 -3.37598103 200.13149847 1.33984375 200.91015625 C4.81334765 199.72171806 7.56829835 197.8391662 10.5 195.6875 C11.41422729 195.02415649 11.41422729 195.02415649 12.34692383 194.34741211 C18.45756296 189.81747787 24.0180896 184.77180647 29.47265625 179.48046875 C30.93969604 178.0584532 32.4216799 176.6536671 33.90625 175.25 C51.4715781 158.27676161 64.18171203 137.17403623 69.45703125 113.1953125 C70 111 70 111 71 110 C76.34010747 85.90220413 75.25799369 60.51336933 75 36 C74.36723145 35.87995605 73.73446289 35.75991211 73.08251953 35.63623047 C48.65565632 30.93994622 25.38163292 24.24046606 4.40625 10.46875 C0.38986462 8.01719009 -1.0544991 9.52038169 -4.8972168 11.79370117 Z " fill="#8624A8" transform="translate(131,39)"/>
</svg>
