<?xml version="1.0" encoding="UTF-8"?>
<svg version="1.1" xmlns="http://www.w3.org/2000/svg" width="308" height="292">
<path d="M0 0 C3.06867265 1.35021596 5.75964625 3.19554077 8.5234375 5.0703125 C30.29193411 19.39590402 55.45268111 27.14799641 81.55078125 27.70703125 C84.1484375 27.9453125 84.1484375 27.9453125 86.1484375 29.9453125 C86.33723819 32.60825609 86.40365902 35.16512884 86.37890625 37.828125 C86.37899185 38.62572739 86.37907745 39.42332977 86.37916565 40.24510193 C86.37586803 42.85367597 86.35696626 45.46182495 86.3359375 48.0703125 C86.32639823 49.87101185 86.3169585 51.67171172 86.30761719 53.47241211 C86.27489394 58.63034784 86.21559679 63.78772557 86.1484375 68.9453125 C86.13441895 70.16976074 86.12040039 71.39420898 86.10595703 72.65576172 C85.92519609 84.71829343 84.86619552 96.60844947 83.3359375 108.5703125 C83.18286133 109.79177979 83.02978516 111.01324707 82.87207031 112.27172852 C81.70535772 120.75927381 79.71283632 128.7762417 77.1484375 136.9453125 C76.89392822 137.76483398 76.63941895 138.58435547 76.37719727 139.42871094 C70.89680544 156.57420163 62.62145844 171.2960403 50.36328125 184.5390625 C47.66936667 187.46578451 45.10952684 190.49540422 42.55859375 193.546875 C41.1484375 194.9453125 41.1484375 194.9453125 39.1484375 194.9453125 C39.1484375 195.6053125 39.1484375 196.2653125 39.1484375 196.9453125 C31.80379042 203.89295163 23.20608354 209.75559518 14.98974609 215.62744141 C13.78582345 216.48911927 12.58545537 217.355791 11.38916016 218.22802734 C9.77848181 219.39938747 8.15132186 220.54798441 6.5234375 221.6953125 C5.60304688 222.35015625 4.68265625 223.005 3.734375 223.6796875 C1.1484375 224.9453125 1.1484375 224.9453125 -1.26953125 224.9375 C-4.76057068 223.59601132 -7.57520177 221.54993113 -10.5390625 219.3203125 C-11.77426654 218.41081553 -13.00994732 217.50196569 -14.24609375 216.59375 C-14.85275879 216.14483398 -15.45942383 215.69591797 -16.08447266 215.23339844 C-19.37573513 212.83429636 -22.77120672 210.58426427 -26.15625 208.3203125 C-26.71570313 207.8665625 -27.27515625 207.4128125 -27.8515625 206.9453125 C-27.8515625 206.2853125 -27.8515625 205.6253125 -27.8515625 204.9453125 C-28.41746094 204.69652344 -28.98335937 204.44773438 -29.56640625 204.19140625 C-34.26645283 201.62847487 -37.97302601 197.58895171 -41.8515625 193.9453125 C-42.74617188 193.11644531 -43.64078125 192.28757813 -44.5625 191.43359375 C-74.27662808 162.95400681 -85.16188254 122.93556682 -86.05688477 82.75634766 C-86.09786785 80.24908497 -86.13476501 77.74175278 -86.16796875 75.234375 C-86.18861861 73.886744 -86.20961663 72.53911829 -86.23094177 71.1914978 C-86.28533567 67.6966184 -86.33509841 64.20168896 -86.38378906 60.70672607 C-86.43462019 57.11954456 -86.48997984 53.53243298 -86.54492188 49.9453125 C-86.65148709 42.94537345 -86.75314416 35.94537124 -86.8515625 28.9453125 C-84.05413413 27.54659832 -81.60530708 27.75158263 -78.4765625 27.6328125 C-53.17914783 26.25244478 -23.34625822 18.03156062 -3.80859375 1.18359375 C-1.8515625 -0.0546875 -1.8515625 -0.0546875 0 0 Z " fill="#DFAD3A" transform="translate(149.8515625,32.0546875)"/>
<path d="M0 0 C3.06867265 1.35021596 5.75964625 3.19554077 8.5234375 5.0703125 C30.29193411 19.39590402 55.45268111 27.14799641 81.55078125 27.70703125 C84.1484375 27.9453125 84.1484375 27.9453125 86.1484375 29.9453125 C86.33723819 32.60825609 86.40365902 35.16512884 86.37890625 37.828125 C86.37899185 38.62572739 86.37907745 39.42332977 86.37916565 40.24510193 C86.37586803 42.85367597 86.35696626 45.46182495 86.3359375 48.0703125 C86.32639823 49.87101185 86.3169585 51.67171172 86.30761719 53.47241211 C86.27489394 58.63034784 86.21559679 63.78772557 86.1484375 68.9453125 C86.13441895 70.16976074 86.12040039 71.39420898 86.10595703 72.65576172 C85.92519609 84.71829343 84.86619552 96.60844947 83.3359375 108.5703125 C83.18286133 109.79177979 83.02978516 111.01324707 82.87207031 112.27172852 C81.70535772 120.75927381 79.71283632 128.7762417 77.1484375 136.9453125 C76.89392822 137.76483398 76.63941895 138.58435547 76.37719727 139.42871094 C70.89680544 156.57420163 62.62145844 171.2960403 50.36328125 184.5390625 C47.66936667 187.46578451 45.10952684 190.49540422 42.55859375 193.546875 C41.1484375 194.9453125 41.1484375 194.9453125 39.1484375 194.9453125 C39.1484375 195.6053125 39.1484375 196.2653125 39.1484375 196.9453125 C31.80379042 203.89295163 23.20608354 209.75559518 14.98974609 215.62744141 C13.78582345 216.48911927 12.58545537 217.355791 11.38916016 218.22802734 C9.77848181 219.39938747 8.15132186 220.54798441 6.5234375 221.6953125 C5.60304688 222.35015625 4.68265625 223.005 3.734375 223.6796875 C1.1484375 224.9453125 1.1484375 224.9453125 -1.26953125 224.9375 C-4.76057068 223.59601132 -7.57520177 221.54993113 -10.5390625 219.3203125 C-11.77426654 218.41081553 -13.00994732 217.50196569 -14.24609375 216.59375 C-14.85275879 216.14483398 -15.45942383 215.69591797 -16.08447266 215.23339844 C-19.37573513 212.83429636 -22.77120672 210.58426427 -26.15625 208.3203125 C-26.71570313 207.8665625 -27.27515625 207.4128125 -27.8515625 206.9453125 C-27.8515625 206.2853125 -27.8515625 205.6253125 -27.8515625 204.9453125 C-28.41746094 204.69652344 -28.98335937 204.44773438 -29.56640625 204.19140625 C-34.26645283 201.62847487 -37.97302601 197.58895171 -41.8515625 193.9453125 C-42.74617188 193.11644531 -43.64078125 192.28757813 -44.5625 191.43359375 C-74.27662808 162.95400681 -85.16188254 122.93556682 -86.05688477 82.75634766 C-86.09786785 80.24908497 -86.13476501 77.74175278 -86.16796875 75.234375 C-86.18861861 73.886744 -86.20961663 72.53911829 -86.23094177 71.1914978 C-86.28533567 67.6966184 -86.33509841 64.20168896 -86.38378906 60.70672607 C-86.43462019 57.11954456 -86.48997984 53.53243298 -86.54492188 49.9453125 C-86.65148709 42.94537345 -86.75314416 35.94537124 -86.8515625 28.9453125 C-84.05413413 27.54659832 -81.60530708 27.75158263 -78.4765625 27.6328125 C-53.17914783 26.25244478 -23.34625822 18.03156062 -3.80859375 1.18359375 C-1.8515625 -0.0546875 -1.8515625 -0.0546875 0 0 Z M-5.765625 23.7890625 C-6.89278931 24.41711792 -6.89278931 24.41711792 -8.04272461 25.05786133 C-8.84589111 25.51572021 -9.64905762 25.9735791 -10.4765625 26.4453125 C-27.03428593 35.48183613 -45.20325399 42.72920389 -64.14648438 44.50439453 C-65.03203003 44.58867706 -65.91757568 44.67295959 -66.82995605 44.75979614 C-67.49708618 44.82101654 -68.16421631 44.88223694 -68.8515625 44.9453125 C-70.47774317 89.69438247 -70.47774317 89.69438247 -60.8515625 132.9453125 C-60.42101562 134.10417969 -59.99046875 135.26304687 -59.546875 136.45703125 C-48.63829049 163.9750142 -26.25285735 187.6777826 -1.8515625 203.9453125 C9.99012864 202.91131868 27.49764322 183.61880178 35.1484375 174.9453125 C46.31111087 161.48478474 55.22925541 146.91310126 61.2109375 130.4453125 C61.53191406 129.56875 61.85289062 128.6921875 62.18359375 127.7890625 C64.81075655 120.04584582 65.9574313 112.71733928 66.7734375 104.5703125 C66.83947174 103.91988983 66.90550598 103.26946716 66.97354126 102.59933472 C68.82904665 83.76704748 68.4234286 64.84354717 68.1484375 45.9453125 C63.61063601 44.62159113 59.18169562 43.55560613 54.5234375 42.7578125 C36.69075862 39.33958095 20.48758079 32.14173806 4.38061523 23.95751953 C0.24073891 22.08024432 -1.72087405 21.46424346 -5.765625 23.7890625 Z " fill="#CEA137" transform="translate(149.8515625,32.0546875)"/>
<path d="M0 0 C2.07460865 0.76391205 3.84124054 1.65911555 5.73876953 2.79150391 C19.53742049 10.84714532 33.19874599 16.77583752 48.73095703 20.62744141 C49.53702393 20.83087158 50.34309082 21.03430176 51.17358398 21.24389648 C58.72563603 22.98424051 66.32497048 23.3715207 74.04345703 23.75244141 C75.3016607 128.04139456 75.3016607 128.04139456 37.04345703 167.75244141 C36.59486328 168.22681641 36.14626953 168.70119141 35.68408203 169.18994141 C28.38162603 176.89363125 20.68056098 183.5845954 12.04345703 189.75244141 C10.51398438 190.84685547 10.51398438 190.84685547 8.95361328 191.96337891 C1.8619664 196.77998739 1.8619664 196.77998739 -1.39404297 196.67041016 C-28.8913293 186.82001033 -50.75502133 155.32879463 -62.70654297 130.12744141 C-68.45672341 117.57258787 -71.30165939 105.38563087 -72.95654297 91.75244141 C-73.08141083 90.76334778 -73.08141083 90.76334778 -73.20880127 89.75427246 C-74.97339731 75.47769461 -75.1992085 61.37317676 -75.08154297 47.00244141 C-75.07147747 44.82926852 -75.06235803 42.65609104 -75.05419922 40.48291016 C-75.03250442 35.23930376 -74.99817826 29.9959258 -74.95654297 24.75244141 C-74.24278503 24.6571666 -73.5290271 24.56189178 -72.79364014 24.46372986 C-53.36902294 21.84732328 -15.52242572 -1.96403041 0 0 Z M-5.87060547 9.59619141 C-6.99776978 10.22424683 -6.99776978 10.22424683 -8.14770508 10.86499023 C-8.95087158 11.32284912 -9.75403809 11.78070801 -10.58154297 12.25244141 C-27.1392664 21.28896504 -45.30823446 28.53633279 -64.25146484 30.31152344 C-65.1370105 30.39580597 -66.02255615 30.4800885 -66.93493652 30.56692505 C-67.60206665 30.62814545 -68.26919678 30.68936584 -68.95654297 30.75244141 C-70.58272364 75.50151138 -70.58272364 75.50151138 -60.95654297 118.75244141 C-60.52599609 119.91130859 -60.09544922 121.07017578 -59.65185547 122.26416016 C-48.74327096 149.78214311 -26.35783782 173.48491151 -1.95654297 189.75244141 C9.88514818 188.71844758 27.39266275 169.42593069 35.04345703 160.75244141 C46.2061304 147.29191365 55.12427494 132.72023017 61.10595703 116.25244141 C61.42693359 115.37587891 61.74791016 114.49931641 62.07861328 113.59619141 C64.70577608 105.85297473 65.85245083 98.52446819 66.66845703 90.37744141 C66.73449127 89.72701874 66.80052551 89.07659607 66.86856079 88.40646362 C68.72406618 69.57417639 68.31844813 50.65067608 68.04345703 31.75244141 C63.50565554 30.42872004 59.07671515 29.36273504 54.41845703 28.56494141 C36.58577815 25.14670986 20.38260032 17.94886697 4.27563477 9.76464844 C0.13575844 7.88737323 -1.82585452 7.27137237 -5.87060547 9.59619141 Z " fill="#B9841C" transform="translate(149.95654296875,46.24755859375)"/>
</svg>
