<?xml version="1.0" encoding="UTF-8"?>
<svg version="1.1" xmlns="http://www.w3.org/2000/svg" width="207" height="202">
<path d="M0 0 C0.88173386 -0.00335861 1.76346771 -0.00671722 2.67192078 -0.01017761 C5.58533132 -0.01967348 8.49868433 -0.02162988 11.41210938 -0.02270508 C13.43705265 -0.02591802 15.46199569 -0.02928212 17.48693848 -0.03279114 C21.73039285 -0.03877857 25.97382686 -0.04063137 30.21728516 -0.04003906 C35.65817797 -0.03993733 41.09894062 -0.05360301 46.53980255 -0.07081127 C50.72105511 -0.08192053 54.90227606 -0.08395862 59.08354187 -0.08342934 C61.08982289 -0.08461056 63.0961047 -0.08904026 65.10237122 -0.0967617 C67.90558043 -0.10654218 70.70850511 -0.10369148 73.51171875 -0.09765625 C74.34197067 -0.10327576 75.1722226 -0.10889526 76.02763367 -0.11468506 C83.23494951 -0.07518837 83.23494951 -0.07518837 86.25585938 2.14526367 C87.37300521 4.76950248 87.7095575 7.32270398 88.25585938 10.14526367 C95.46532974 12.27533446 100.72082547 9.26991317 107.25585938 6.14526367 C107.95324219 5.73920898 108.650625 5.3331543 109.36914062 4.91479492 C111.72058265 3.95571815 112.90637406 4.30616177 115.25585938 5.14526367 C115.35809568 10.27979835 115.28400817 15.33248913 114.78320312 20.44604492 C114.03380621 29.05780362 113.90460442 37.690202 113.70361328 46.328125 C113.65171858 48.50556 113.59462223 50.68281468 113.53710938 52.86010742 C113.50681641 54.14006592 113.47652344 55.42002441 113.4453125 56.73876953 C113.28194123 59.67629446 112.83765526 62.27544903 112.25585938 65.14526367 C112.12397128 67.40518875 112.03160309 69.66757747 111.96679688 71.93041992 C111.38335875 88.03186317 110.04014309 102.30150217 103.25585938 117.14526367 C102.70671875 118.39581543 102.70671875 118.39581543 102.14648438 119.67163086 C91.22363687 144.48183156 75.15401881 163.49677885 52.09277344 177.98901367 C50.33137646 179.09772926 48.58687654 180.22986488 46.84179688 181.36401367 C45.28332031 182.33854492 45.28332031 182.33854492 43.69335938 183.33276367 C42.78457031 183.90381836 41.87578125 184.47487305 40.93945312 185.06323242 C37.52872828 186.43844462 35.76482994 186.15773344 32.25585938 185.14526367 C28.37676292 183.16206002 24.85954805 180.58814879 21.25585938 178.14526367 C19.98607901 177.32592119 18.7151907 176.5082939 17.44335938 175.69213867 C8.47767809 169.84623175 0.90576622 163.3980805 -6.38964844 155.57275391 C-7.65472174 154.23950164 -8.97708008 152.96126532 -10.30273438 151.68823242 C-18.83904038 142.79681609 -24.39504785 131.6130584 -28.89550781 120.26489258 C-29.78686566 118.03854942 -30.72031193 115.8328402 -31.65820312 113.62573242 C-32.29269287 112.09126863 -32.9255433 110.55612582 -33.55664062 109.02026367 C-33.84692139 108.34116943 -34.13720215 107.6620752 -34.4362793 106.96240234 C-39.77424683 93.57574372 -39.26096283 78.3352639 -39.80664062 64.14526367 C-39.9611225 60.31180084 -40.11967298 56.47851546 -40.27929688 52.64526367 C-40.31677536 51.72403717 -40.35425385 50.80281067 -40.39286804 49.85366821 C-40.6069048 44.76083981 -40.89987599 39.68781433 -41.29882812 34.60620117 C-41.80674006 27.98607009 -41.85836591 21.40701578 -41.80664062 14.77026367 C-41.80212891 13.64104492 -41.79761719 12.51182617 -41.79296875 11.34838867 C-41.78138216 8.61395354 -41.76507519 5.87964039 -41.74414062 3.14526367 C-41.16446533 3.39284424 -40.58479004 3.6404248 -39.98754883 3.89550781 C-37.34945549 5.01323671 -34.70335473 6.11061367 -32.05664062 7.20776367 C-31.14462891 7.59770508 -30.23261719 7.98764648 -29.29296875 8.3894043 C-28.40673828 8.75356445 -27.52050781 9.11772461 -26.60742188 9.49291992 C-25.79571533 9.83331299 -24.98400879 10.17370605 -24.14770508 10.52441406 C-21.27803156 11.26566137 -19.55042079 11.05552907 -16.74414062 10.14526367 C-14.58870652 7.29701146 -13.39324096 4.65040548 -12.74414062 1.14526367 C-8.50254079 -0.04249828 -4.37516677 -0.00238815 0 0 Z " fill="#2D7487" transform="translate(59.744140625,9.854736328125)"/>
<path d="M0 0 C1.70580967 -0.00217744 3.41161781 -0.00658061 5.11741638 -0.0131073 C8.68609294 -0.01890442 12.25353732 0.00001256 15.82202148 0.03686523 C20.39134223 0.08238127 24.95827917 0.06974567 29.52764988 0.03905773 C33.04773708 0.02124514 36.56726771 0.03250807 40.08732414 0.05269814 C41.77178792 0.05920444 43.45630802 0.05711185 45.14074898 0.04619408 C47.49690181 0.03563555 49.84952659 0.06382023 52.20532227 0.10229492 C52.89792648 0.09172058 53.5905307 0.08114624 54.30412292 0.07025146 C57.04329515 0.14810791 59.1414287 0.35410491 61.2282238 2.21920204 C62.46473092 3.72745944 63.60965718 5.30950691 64.74609375 6.89453125 C68.46609723 9.40337081 71.56915289 10.07930178 75.953125 10.46875 C77.30047729 10.59189575 77.30047729 10.59189575 78.67504883 10.7175293 C79.35849365 10.77593994 80.04193848 10.83435059 80.74609375 10.89453125 C81.08282227 25.17009353 80.87360188 39.24607621 79.37109375 53.45703125 C79.24500732 54.64965576 79.1189209 55.84228027 78.98901367 57.07104492 C78.61698693 60.35291031 78.19982405 63.62303269 77.74609375 66.89453125 C77.61460937 67.87180176 77.483125 68.84907227 77.34765625 69.85595703 C77.20328125 70.74911621 77.05890625 71.64227539 76.91015625 72.5625 C76.78850098 73.33746826 76.6668457 74.11243652 76.54150391 74.91088867 C75.46083838 77.60591856 74.02229517 78.30879704 71.49609375 79.64453125 C69.59517447 80.43359208 67.67615091 81.17969527 65.74609375 81.89453125 C63.34371208 82.83632871 60.9480435 83.79539058 58.55859375 84.76953125 C57.43066406 85.20007813 56.30273438 85.630625 55.140625 86.07421875 C45.90242564 91.02818987 40.90320936 100.27520189 35.37109375 108.83203125 C34.14735356 110.71280509 32.92124558 112.59195174 31.69125366 114.46864319 C30.58941632 116.15150245 29.49495249 117.83918261 28.40087891 119.52709961 C27.8547998 120.30835205 27.3087207 121.08960449 26.74609375 121.89453125 C26.41609375 121.89453125 26.08609375 121.89453125 25.74609375 121.89453125 C25.32454363 117.56611482 25.00912453 113.23505486 24.74609375 108.89453125 C24.69855957 108.17265625 24.65102539 107.45078125 24.60205078 106.70703125 C24.46875508 104.45711695 24.38335914 102.20958459 24.30859375 99.95703125 C24.2621875 99.24812744 24.21578125 98.53922363 24.16796875 97.80883789 C24.10566453 94.81221717 24.24687505 92.53964523 26.11279297 90.12841797 C27.61362125 88.67083614 29.17685014 87.27818757 30.74609375 85.89453125 C30.74609375 85.23453125 30.74609375 84.57453125 30.74609375 83.89453125 C30.08609375 83.46140625 29.42609375 83.02828125 28.74609375 82.58203125 C26.74609375 80.89453125 26.74609375 80.89453125 26.49609375 78.20703125 C26.57859375 77.44390625 26.66109375 76.68078125 26.74609375 75.89453125 C33.60491663 72.93582334 40.36003708 71.85156603 47.74609375 70.89453125 C47.58882813 70.03601563 47.4315625 69.1775 47.26953125 68.29296875 C45.01540778 53.65798798 48.4755637 40.09034505 51.74609375 25.89453125 C52.41719799 22.89550062 53.08139578 19.89499032 53.74609375 16.89453125 C48.16566176 21.6701582 42.87851848 26.63925593 37.74609375 31.89453125 C38.42027344 32.36503906 39.09445313 32.83554687 39.7890625 33.3203125 C42.35945072 36.70132215 41.93648516 38.47773617 41.43554688 42.56054688 C41.31115234 43.39263672 41.18675781 44.22472656 41.05859375 45.08203125 C40.90100586 46.30116211 40.90100586 46.30116211 40.74023438 47.54492188 C40.52871652 49.17607487 40.30887845 50.8061714 40.08056641 52.43505859 C39.5621311 56.24726099 39.15743594 60.06943327 38.74609375 63.89453125 C30.61112442 66.44667849 30.61112442 66.44667849 26.74609375 65.89453125 C24.42549792 62.41363751 24.49987018 61.04754412 24.515625 56.94140625 C24.51755859 55.76449219 24.51949219 54.58757812 24.52148438 53.375 C24.53373047 52.14394531 24.54597656 50.91289063 24.55859375 49.64453125 C24.55923828 48.42894531 24.55988281 47.21335938 24.56054688 45.9609375 C24.63838696 30.09885771 24.63838696 30.09885771 27.28833008 27.21777344 C27.76939209 26.78110352 28.2504541 26.34443359 28.74609375 25.89453125 C27.988125 24.21423828 27.988125 24.21423828 27.21484375 22.5 C26.55830317 21.02747327 25.90206909 19.55480986 25.24609375 18.08203125 C24.91222656 17.34404297 24.57835937 16.60605469 24.234375 15.84570312 C23.91855469 15.13349609 23.60273437 14.42128906 23.27734375 13.6875 C22.98408203 13.03289795 22.69082031 12.3782959 22.38867188 11.70385742 C21.74609375 9.89453125 21.74609375 9.89453125 21.74609375 6.89453125 C18.28042703 9.63167944 17.08813301 13.4651226 15.55859375 17.45703125 C15.28595703 18.14216797 15.01332031 18.82730469 14.73242188 19.53320312 C13.25238477 23.10648812 13.25238477 23.10648812 12.74609375 26.89453125 C13.39731201 27.45076172 14.04853027 28.00699219 14.71948242 28.58007812 C17.49918508 31.75458495 17.22047443 33.75213732 17.171875 37.92578125 C17.16858688 38.59871216 17.16529877 39.27164307 17.16191101 39.96496582 C17.14620225 42.10881477 17.10217534 44.25108769 17.05859375 46.39453125 C17.04709758 47.83592474 17.03731384 49.27733296 17.02929688 50.71875 C16.91845662 62.12314549 16.91845662 62.12314549 15.74609375 65.89453125 C10.45463528 66.07699534 6.78302914 65.72745616 1.74609375 63.89453125 C1.61332031 62.62738281 1.48054688 61.36023438 1.34375 60.0546875 C1.16537881 58.35546726 0.98699259 56.65624859 0.80859375 54.95703125 C0.67807617 53.71083008 0.67807617 53.71083008 0.54492188 52.43945312 C-0.03471742 46.92214581 -0.63638354 41.40772951 -1.25390625 35.89453125 C-0.26390625 35.23453125 0.72609375 34.57453125 1.74609375 33.89453125 C1.27065739 29.33356552 -0.28460716 27.39556574 -3.56640625 24.26953125 C-4.73623047 23.13644531 -4.73623047 23.13644531 -5.9296875 21.98046875 C-7.96740412 20.15166089 -10.03205744 18.49100843 -12.25390625 16.89453125 C-11.99996094 17.95027344 -11.74601562 19.00601563 -11.484375 20.09375 C-2.5983038 57.92772389 -2.5983038 57.92772389 -7.25390625 71.89453125 C-5.71669922 71.96800781 -5.71669922 71.96800781 -4.1484375 72.04296875 C-2.78773565 72.11804196 -1.42705981 72.1935878 -0.06640625 72.26953125 C0.60712891 72.30046875 1.28066406 72.33140625 1.97460938 72.36328125 C6.83526275 72.6478073 10.66494689 73.36835689 14.62109375 76.26953125 C15.74609375 77.89453125 15.74609375 77.89453125 15.68359375 79.89453125 C14.50765865 82.40319279 13.04721454 83.40993719 10.74609375 84.89453125 C11.56102295 85.56959717 12.37595215 86.24466309 13.21557617 86.94018555 C16.38248825 90.63751339 16.33320348 92.36099825 16.234375 97.1640625 C16.22730026 97.84506516 16.22022552 98.52606781 16.2129364 99.22770691 C16.18509444 101.3886312 16.12238902 103.54689947 16.05859375 105.70703125 C16.03349707 107.17769677 16.01068628 108.64840318 15.99023438 110.11914062 C15.93530563 113.71179082 15.84911022 117.30290153 15.74609375 120.89453125 C12.7623318 118.03016966 10.18952339 115.37954244 8.1328125 111.78515625 C7.69388672 111.03451904 7.25496094 110.28388184 6.80273438 109.51049805 C6.35091797 108.729729 5.89910156 107.94895996 5.43359375 107.14453125 C-1.32544888 95.86701885 -6.68922841 88.69130285 -19.25390625 83.89453125 C-33.17850942 78.0453249 -33.17850942 78.0453249 -35.25390625 73.89453125 C-35.4563896 72.43468225 -35.60873874 70.96770646 -35.73461914 69.49926758 C-35.85463036 68.13062309 -35.85463036 68.13062309 -35.97706604 66.73432922 C-36.05939987 65.7417662 -36.1417337 64.74920319 -36.2265625 63.7265625 C-36.35761635 62.18605476 -36.35761635 62.18605476 -36.49131775 60.61442566 C-36.67577387 58.42973311 -36.85804618 56.24485526 -37.03833008 54.05981445 C-37.31159045 50.76509562 -37.59575277 47.47144639 -37.88085938 44.17773438 C-38.82096606 33.05635783 -39.56959839 22.05917061 -39.25390625 10.89453125 C-38.16851562 10.75917969 -37.083125 10.62382813 -35.96484375 10.484375 C-34.51929819 10.26848183 -33.07399729 10.05094609 -31.62890625 9.83203125 C-30.91605469 9.74759766 -30.20320313 9.66316406 -29.46875 9.57617188 C-27.2169423 9.21464312 -25.35707954 8.787876 -23.25390625 7.89453125 C-22.10674742 6.24903388 -22.10674742 6.24903388 -21.0769043 4.36669922 C-16.1246758 -1.63642983 -7.10706336 -0.08195658 0 0 Z " fill="#1FA8D9" transform="translate(75.25390625,26.10546875)"/>
<path d="M0 0 C0.66 0 1.32 0 2 0 C4.64 6.27 7.28 12.54 10 19 C9.01 19.99 8.02 20.98 7 22 C5.37191992 28.76495344 5.85308077 35.89698168 5.875 42.8125 C5.87113281 44.05193359 5.86726563 45.29136719 5.86328125 46.56835938 C5.86521484 48.33856445 5.86521484 48.33856445 5.8671875 50.14453125 C5.86887939 51.75871948 5.86887939 51.75871948 5.87060547 53.40551758 C5.82494183 55.98497207 5.82494183 55.98497207 7 58 C12.94 57.505 12.94 57.505 19 57 C18.97421875 55.71738281 18.9484375 54.43476562 18.921875 53.11328125 C18.91922027 49.72385723 19.12819882 46.46442365 19.578125 43.10546875 C19.68640625 42.29529297 19.7946875 41.48511719 19.90625 40.65039062 C20.13839587 38.98711823 20.38352232 37.32561346 20.640625 35.66601562 C21.39172086 30.69855536 21.39172086 30.69855536 19.046875 26.42578125 C18.37140625 25.95527344 17.6959375 25.48476563 17 25 C19.4293086 22.51269138 21.86977494 20.03662833 24.3125 17.5625 C25.00279297 16.85544922 25.69308594 16.14839844 26.40429688 15.41992188 C27.07138672 14.74638672 27.73847656 14.07285156 28.42578125 13.37890625 C29.03848877 12.7557251 29.65119629 12.13254395 30.2824707 11.49047852 C32 10 32 10 35 9 C34.74605469 10.11375 34.49210937 11.2275 34.23046875 12.375 C33.31276709 16.42639343 32.41729937 20.48233099 31.53466797 24.54150391 C31.19818383 26.08871635 30.85904671 27.63535657 30.51611328 29.18115234 C27.85671453 41.30004113 27.05349401 52.67736128 29 65 C27.74703125 65.20496094 26.4940625 65.40992187 25.203125 65.62109375 C23.55206909 65.89314274 21.90102821 66.16528293 20.25 66.4375 C19.425 66.57220703 18.6 66.70691406 17.75 66.84570312 C16.95078125 66.97783203 16.1515625 67.10996094 15.328125 67.24609375 C14.5949707 67.36654053 13.86181641 67.4869873 13.10644531 67.61108398 C11.04378041 67.99191676 9.02862484 68.46878895 7 69 C8.26946514 73.82442184 8.26946514 73.82442184 12 77 C10.92122777 79.51713521 10.09583964 80.92159923 7.94848633 82.67822266 C5.31614931 85.8148628 5.47395511 88.49072207 5.57421875 92.3984375 C5.57750687 93.11101715 5.58079498 93.8235968 5.58418274 94.55776978 C5.59989795 96.83080175 5.64390636 99.10235052 5.6875 101.375 C5.69899684 102.89582123 5.70878038 104.41665644 5.71679688 105.9375 C5.73023015 107.40366076 5.74515565 108.86980876 5.76171875 110.3359375 C5.76910568 111.01425629 5.77649261 111.69257507 5.78410339 112.39144897 C5.8443747 115.43111848 6.05151548 118.29383872 6.57714844 121.29199219 C7.13445492 124.86107039 6.16079619 126.67840763 4.5625 129.875 C4.08941406 130.84179688 3.61632812 131.80859375 3.12890625 132.8046875 C2.75636719 133.52914062 2.38382813 134.25359375 2 135 C1.34 135 0.68 135 0 135 C-7.05019101 125.71515023 -5.39115879 114.73969937 -5 103.75 C-4.86659579 99.97402553 -4.766963 96.19932627 -4.6875 92.421875 C-4.6460083 91.56551453 -4.6045166 90.70915405 -4.56176758 89.82684326 C-4.47264196 85.46588331 -4.67795779 82.84232023 -7.51953125 79.41113281 C-8.33808594 78.61545898 -9.15664062 77.81978516 -10 77 C-8.35 76.01 -6.7 75.02 -5 74 C-5.57344937 71.13275314 -5.8614515 70.1385485 -8 68 C-10.02429322 67.44771934 -10.02429322 67.44771934 -12.3515625 67.1484375 C-13.20234375 67.01953125 -14.053125 66.890625 -14.9296875 66.7578125 C-15.81914063 66.63148437 -16.70859375 66.50515625 -17.625 66.375 C-18.5221875 66.2409375 -19.419375 66.106875 -20.34375 65.96875 C-22.56151817 65.6384441 -24.78013575 65.3158575 -27 65 C-26.88140625 64.14664063 -26.7628125 63.29328125 -26.640625 62.4140625 C-25.69446334 53.23629444 -26.3227618 44.80596626 -27.75 35.6875 C-27.91918945 34.60355957 -28.08837891 33.51961914 -28.26269531 32.40283203 C-29.2956557 26.20790233 -30.66335325 20.25453442 -32.52050781 14.25317383 C-33 12 -33 12 -32 9 C-30.0585604 10.74579065 -28.12184216 12.49637493 -26.1875 14.25 C-25.64029297 14.74113281 -25.09308594 15.23226562 -24.52929688 15.73828125 C-19.01154891 20.75441576 -19.01154891 20.75441576 -17 24 C-17.1875 26.1875 -17.1875 26.1875 -18 28 C-18.66 28.33 -19.32 28.66 -20 29 C-19.855625 29.93199219 -19.71125 30.86398438 -19.5625 31.82421875 C-18.32618532 40.31529666 -17.80651566 48.38994682 -18 57 C-13.38 57.66 -8.76 58.32 -4 59 C-3.90101385 54.08876411 -3.82847753 49.17811062 -3.78027344 44.26611328 C-3.76017607 42.59576298 -3.73289317 40.92548287 -3.69824219 39.25537109 C-3.64963881 36.8523628 -3.62701344 34.45028566 -3.609375 32.046875 C-3.58872986 31.30193787 -3.56808472 30.55700073 -3.54681396 29.78948975 C-3.54524804 26.15915537 -3.70464033 24.36517455 -6.02441406 21.49707031 C-6.67635742 21.00303711 -7.32830078 20.50900391 -8 20 C-6.12849037 12.84870304 -3.50213658 6.50594543 0 0 Z " fill="#BAEDF5" transform="translate(95,33)"/>
<path d="M0 0 C3.87163515 3.31854441 6.46276764 7.14459536 8 12 C7.50431479 16.29593848 6.5258087 17.5676684 3.1875 20.3125 C-1.29533891 22.68576766 -4.67786165 23.03362358 -9.66796875 23.015625 C-10.47903076 23.01336914 -11.29009277 23.01111328 -12.12573242 23.00878906 C-12.74424072 23.00588867 -13.36274902 23.00298828 -14 23 C-13.65951009 37.94017047 -12.90265548 52.80070471 -11.625 67.6875 C-11.56782806 68.38454041 -11.51065613 69.08158081 -11.45175171 69.79974365 C-10.31287159 83.53390523 -8.77037201 97.285964 -3.3125 110.0625 C-2.79901001 111.31075562 -2.79901001 111.31075562 -2.27514648 112.58422852 C0.28312105 118.66615854 3.19190288 124.52053929 6.47338867 130.24438477 C9.81846468 136.12909895 10.39132219 139.69311081 8.6875 146.25 C8.42324219 147.30703125 8.15898438 148.3640625 7.88671875 149.453125 C7 152 7 152 5 153 C-4.90132455 143.64483393 -11.17925611 131.65708982 -16.15136719 119.11962891 C-17.04272503 116.89328575 -17.9761713 114.68757653 -18.9140625 112.48046875 C-19.54855225 110.94600496 -20.18140267 109.41086215 -20.8125 107.875 C-21.10278076 107.19590576 -21.39306152 106.51681152 -21.69213867 105.81713867 C-27.03010621 92.43048005 -26.51682221 77.19000023 -27.0625 63 C-27.21698187 59.16653716 -27.37553235 55.33325179 -27.53515625 51.5 C-27.57263474 50.5787735 -27.61011322 49.657547 -27.64872742 48.70840454 C-27.86276417 43.61557614 -28.15573536 38.54255066 -28.5546875 33.4609375 C-29.06259944 26.84080642 -29.11422529 20.26175211 -29.0625 13.625 C-29.05798828 12.49578125 -29.05347656 11.3665625 -29.04882812 10.203125 C-29.03724154 7.46868986 -29.02093457 4.73437672 -29 2 C-28.42032471 2.24758057 -27.84064941 2.49516113 -27.2434082 2.75024414 C-24.60531486 3.86797304 -21.95921411 4.96535 -19.3125 6.0625 C-18.40048828 6.45244141 -17.48847656 6.84238281 -16.54882812 7.24414062 C-15.66259766 7.60830078 -14.77636719 7.97246094 -13.86328125 8.34765625 C-13.05157471 8.68804932 -12.23986816 9.02844238 -11.40356445 9.37915039 C-8.53389093 10.1203977 -6.80628017 9.9102654 -4 9 C-1.84456589 6.15174779 -0.64910033 3.5051418 0 0 Z " fill="#90D4DD" transform="translate(47,11)"/>
<path d="M0 0 C2 1 2 1 2.6328125 2.84765625 C2.87644531 3.94400391 2.87644531 3.94400391 3.125 5.0625 C3.29257813 5.79597656 3.46015625 6.52945312 3.6328125 7.28515625 C3.75398437 7.85105469 3.87515625 8.41695312 4 9 C11.20947036 11.13007079 16.46496609 8.1246495 23 5 C23.69738281 4.59394531 24.39476562 4.18789062 25.11328125 3.76953125 C27.46472327 2.81045448 28.65051468 3.1608981 31 4 C31.10223631 9.13453467 31.02814879 14.18722546 30.52734375 19.30078125 C29.77794684 27.91253995 29.64874505 36.54493833 29.44775391 45.18286133 C29.39585921 47.36029633 29.33876286 49.53755101 29.28125 51.71484375 C29.25095703 52.99480225 29.22066406 54.27476074 29.18945312 55.59350586 C29.02608185 58.53103079 28.58179589 61.13018535 28 64 C27.8681119 66.25992508 27.77574371 68.52231379 27.7109375 70.78515625 C27.12749938 86.8865995 25.78428371 101.1562385 19 116 C18.63390625 116.83370117 18.2678125 117.66740234 17.890625 118.52636719 C12.13031183 131.6103662 5.78631832 142.49336891 -4 153 C-6 152 -6 152 -7.1328125 149.11328125 C-9.76783288 139.01928587 -9.76783288 139.01928587 -7.69140625 133.55859375 C-6.29943495 131.26034874 -4.88432423 129.02207283 -3.40234375 126.78515625 C16.05086145 97.3418295 14.32352772 56.89836254 15 23 C14.11957031 22.96261719 13.23914063 22.92523438 12.33203125 22.88671875 C11.17058594 22.82097656 10.00914062 22.75523438 8.8125 22.6875 C7.66394531 22.62949219 6.51539063 22.57148437 5.33203125 22.51171875 C0.92605535 21.83506829 -1.75045768 20.24954232 -4.875 17.125 C-6.3829706 14.27661108 -5.83335944 13.07941911 -5 10 C-4.20028505 8.20391888 -3.34455414 6.43183488 -2.4375 4.6875 C-1.98246094 3.80449219 -1.52742187 2.92148438 -1.05859375 2.01171875 C-0.70925781 1.34785156 -0.35992187 0.68398437 0 0 Z " fill="#8FD4DD" transform="translate(144,11)"/>
<path d="M0 0 C0.33 0 0.66 0 1 0 C1.34408187 13.92384634 1.08744421 27.63938793 -0.375 41.5 C-0.50108643 42.6964917 -0.62717285 43.8929834 -0.75708008 45.12573242 C-1.12933125 48.42443981 -1.54628218 51.71157699 -2 55 C-2.13148438 55.9787207 -2.26296875 56.95744141 -2.3984375 57.96582031 C-2.5428125 58.85881836 -2.6871875 59.75181641 -2.8359375 60.671875 C-2.95759277 61.4462793 -3.07924805 62.22068359 -3.20458984 63.01855469 C-4.28563587 65.71154718 -5.72542996 66.41485081 -8.25 67.75 C-10.15091928 68.53906083 -12.06994284 69.28516402 -14 70 C-16.40238167 70.94179746 -18.79805025 71.90085933 -21.1875 72.875 C-22.31542969 73.30554688 -23.44335938 73.73609375 -24.60546875 74.1796875 C-33.84366811 79.13365862 -38.84288439 88.38067064 -44.375 96.9375 C-45.59874019 98.81827384 -46.82484817 100.69742049 -48.05484009 102.57411194 C-49.15667743 104.2569712 -50.25114126 105.94465136 -51.34521484 107.63256836 C-51.89129395 108.4138208 -52.43737305 109.19507324 -53 110 C-53.33 110 -53.66 110 -54 110 C-54.42155012 105.67158357 -54.73696922 101.34052361 -55 97 C-55.04753418 96.278125 -55.09506836 95.55625 -55.14404297 94.8125 C-55.27733867 92.5625857 -55.36273461 90.31505334 -55.4375 88.0625 C-55.48390625 87.35359619 -55.5303125 86.64469238 -55.578125 85.91430664 C-55.64042922 82.91768592 -55.4992187 80.64511398 -53.63330078 78.23388672 C-52.1324725 76.77630489 -50.56924361 75.38365632 -49 74 C-49 73.34 -49 72.68 -49 72 C-49.66 71.566875 -50.32 71.13375 -51 70.6875 C-53 69 -53 69 -53.25 66.3125 C-53.1675 65.549375 -53.085 64.78625 -53 64 C-46.14117712 61.04129209 -39.38605667 59.95703478 -32 59 C-32.1546875 58.16210938 -32.309375 57.32421875 -32.46875 56.4609375 C-34.76510156 41.50088249 -34.76510156 41.50088249 -31.82421875 35.66796875 C-30.00566307 33.60636028 -28.05113884 31.83073918 -26 30 C-24.19074274 28.05470836 -22.40181033 26.09919938 -20.625 24.125 C-19.67699661 23.09003128 -18.72777967 22.05617282 -17.77734375 21.0234375 C-17.31183105 20.51651367 -16.84631836 20.00958984 -16.36669922 19.48730469 C-15.08000241 18.08706229 -13.79199746 16.68802228 -12.50390625 15.2890625 C-8.43008201 10.8236565 -4.59958384 6.32608173 -1.09375 1.3984375 C-0.7328125 0.93695313 -0.371875 0.47546875 0 0 Z " fill="#118DAD" transform="translate(155,38)"/>
<path d="M0 0 C5.11801623 3.80570438 8.79746026 8.32288997 12.76953125 13.29296875 C15.13172846 16.15987359 17.63665503 18.73584533 20.30859375 21.30859375 C22.80523032 23.80523032 25.05751039 26.49822242 27.32421875 29.203125 C28.93437888 31.09516252 28.93437888 31.09516252 31.15234375 32.29296875 C33.98072067 34.90607808 33.68349049 37.297423 33.875 41.0625 C33.92611938 42.06035522 33.92611938 42.06035522 33.97827148 43.07836914 C34.1766687 48.61411906 33.5120855 53.68895589 32 59 C33.02480469 59.04898438 34.04960938 59.09796875 35.10546875 59.1484375 C36.4661706 59.22351071 37.82684644 59.29905655 39.1875 59.375 C40.19780273 59.42140625 40.19780273 59.42140625 41.22851562 59.46875 C46.089169 59.75327605 49.91885314 60.47382564 53.875 63.375 C55 65 55 65 54.9375 67 C53.7615649 69.50866154 52.30112079 70.51540594 50 72 C50.8149292 72.67506592 51.6298584 73.35013184 52.46948242 74.0456543 C55.6363945 77.74298214 55.58710973 79.466467 55.48828125 84.26953125 C55.48120651 84.95053391 55.47413177 85.63153656 55.46684265 86.33317566 C55.43900069 88.49409995 55.37629527 90.65236822 55.3125 92.8125 C55.28740332 94.28316552 55.26459253 95.75387193 55.24414062 97.22460938 C55.18921188 100.81725957 55.10301647 104.40837028 55 108 C52.01623805 105.13563841 49.44342964 102.48501119 47.38671875 98.890625 C46.94779297 98.13998779 46.50886719 97.38935059 46.05664062 96.6159668 C45.60482422 95.83519775 45.15300781 95.05442871 44.6875 94.25 C37.92845737 82.9724876 32.56467784 75.7967716 20 71 C6.07539683 65.15079365 6.07539683 65.15079365 4 61 C3.79743519 59.52954509 3.64512734 58.0519958 3.51928711 56.57299805 C3.43927963 55.65411301 3.35927216 54.73522797 3.27684021 53.78849792 C3.19450638 52.7896608 3.11217255 51.79082367 3.02734375 50.76171875 C2.93997452 49.72997025 2.85260529 48.69822174 2.7625885 47.63520813 C2.57816504 45.44211981 2.39589102 43.24884987 2.21557617 41.05541992 C1.94173474 37.73878907 1.6578722 34.42312517 1.37304688 31.10742188 C0.49936765 20.7242048 -0.35951028 10.42837527 0 0 Z " fill="#118DAD" transform="translate(36,39)"/>
<path d="M0 0 C7.61211817 2.32234114 11.04347293 5.50052069 14.921875 12.4375 C15.21964844 13.01951172 15.51742187 13.60152344 15.82421875 14.20117188 C22.54802233 27.26577757 32.80396681 30.4340106 46 35 C45.95875 36.22976562 45.9175 37.45953125 45.875 38.7265625 C45.875 42.13069707 46.24677451 44.39208164 48 47.375 C50 50.86111111 50 50.86111111 50 53 C50.66 53 51.32 53 52 53 C55.54522932 44.13884494 55.54522932 44.13884494 55 35 C56.19496094 34.63648438 57.38992187 34.27296875 58.62109375 33.8984375 C74.9168659 29.1091368 74.9168659 29.1091368 85.61694336 16.70629883 C86.77155995 14.45483185 87.86604963 12.18124351 88.95703125 9.8984375 C90.55566373 6.67234102 92.12684279 4.26438925 95 2 C98.75 0.75 98.75 0.75 102 0 C99.05436579 13.78015087 91.20903701 26.54262686 82 37 C81.21625 38.03125 80.4325 39.0625 79.625 40.125 C72.30921624 48.13752507 61.41380159 56.5287328 51 60 C27.00978595 50.76334964 11.77683555 28.84511006 1.46875 6.5546875 C0 3 0 3 0 0 Z " fill="#118DAD" transform="translate(45,115)"/>
<path d="M0 0 C0.99 5.28 1.98 10.56 3 16 C-4.87113727 22.50224383 -12.80409029 28.39301259 -21.5 33.75 C-22.34788086 34.2872168 -23.19576172 34.82443359 -24.06933594 35.37792969 C-30.08499851 38.9978266 -30.08499851 38.9978266 -34.2890625 39.0078125 C-37.10841173 37.95969708 -39.37308202 36.79560977 -41.875 35.125 C-42.81214844 34.50109375 -43.74929687 33.8771875 -44.71484375 33.234375 C-45.79894531 32.49703125 -46.88304688 31.7596875 -48 31 C-49.37587602 30.08789864 -50.75220375 29.17647841 -52.12890625 28.265625 C-53.56586133 27.30321288 -55.00206243 26.33967403 -56.4375 25.375 C-57.12376465 24.92012207 -57.8100293 24.46524414 -58.51708984 23.99658203 C-62.29765775 21.42116926 -65.7241516 19.06708219 -68 15 C-67.734375 11.66796875 -67.734375 11.66796875 -66.75 8.1875 C-66.27820313 6.44533203 -66.27820313 6.44533203 -65.796875 4.66796875 C-65.40242188 3.34732422 -65.40242188 3.34732422 -65 2 C-60.98197622 2 -59.21139793 4.0014755 -56.25 6.4375 C-51.35118144 10.31166947 -46.35226223 13.92641997 -41.0625 17.25 C-40.44858398 17.65661865 -39.83466797 18.0632373 -39.20214844 18.48217773 C-36.17798723 20.3316954 -34.51258702 21.08730514 -30.97265625 20.484375 C-27.64890723 18.82468429 -24.48042133 17.03239206 -21.375 15 C-20.77397461 14.61207275 -20.17294922 14.22414551 -19.55371094 13.82446289 C-14.12103915 10.23812871 -9.21405576 6.16261315 -4.328125 1.87109375 C-2 0 -2 0 0 0 Z " fill="#BDEDF5" transform="translate(129,157)"/>
<path d="M0 0 C0.33 0 0.66 0 1 0 C1 24.75 1 49.5 1 75 C-4 70 -4 70 -6.1875 67.25 C-7.80309077 64.92512612 -7.80309077 64.92512612 -10 64 C-10 64.66 -10 65.32 -10 66 C-12.08326131 66.02709444 -14.16662441 66.04643873 -16.25 66.0625 C-17.99023438 66.07990234 -17.99023438 66.07990234 -19.765625 66.09765625 C-22.40977128 66.01782092 -24.49826091 65.78643778 -27 65 C-26.88140625 64.14664063 -26.7628125 63.29328125 -26.640625 62.4140625 C-25.69446334 53.23629444 -26.3227618 44.80596626 -27.75 35.6875 C-27.91918945 34.60355957 -28.08837891 33.51961914 -28.26269531 32.40283203 C-29.2956557 26.20790233 -30.66335325 20.25453442 -32.52050781 14.25317383 C-33 12 -33 12 -32 9 C-30.0585604 10.74579065 -28.12184216 12.49637493 -26.1875 14.25 C-25.64029297 14.74113281 -25.09308594 15.23226562 -24.52929688 15.73828125 C-19.01154891 20.75441576 -19.01154891 20.75441576 -17 24 C-17.1875 26.1875 -17.1875 26.1875 -18 28 C-18.66 28.33 -19.32 28.66 -20 29 C-19.855625 29.93199219 -19.71125 30.86398438 -19.5625 31.82421875 C-18.32618532 40.31529666 -17.80651566 48.38994682 -18 57 C-13.38 57.66 -8.76 58.32 -4 59 C-3.90101385 54.08876411 -3.82847753 49.17811062 -3.78027344 44.26611328 C-3.76017607 42.59576298 -3.73289317 40.92548287 -3.69824219 39.25537109 C-3.64963881 36.8523628 -3.62701344 34.45028566 -3.609375 32.046875 C-3.58872986 31.30193787 -3.56808472 30.55700073 -3.54681396 29.78948975 C-3.54524804 26.15915537 -3.70464033 24.36517455 -6.02441406 21.49707031 C-6.67635742 21.00303711 -7.32830078 20.50900391 -8 20 C-6.12849037 12.84870304 -3.50213658 6.50594543 0 0 Z " fill="#D4EBF2" transform="translate(95,33)"/>
<path d="M0 0 C0.66 0.33 1.32 0.66 2 1 C1.4178975 4.88068334 0.65619128 8.42883756 -1 12 C-3.2227318 13.55759615 -5.14226153 14.29207346 -7.74609375 15.0234375 C-13.62849799 17.57213951 -15.79734237 24.40012449 -18.26757812 29.91601562 C-21.87853881 37.55935347 -28.42197256 40.95253588 -36 44 C-40.31581191 45.2004245 -44.60350085 46.11134592 -49 47 C-49 42.05 -49 37.1 -49 32 C-48.67 32 -48.34 32 -48 32 C-47.67 35.63 -47.34 39.26 -47 43 C-46.14277344 41.73285156 -45.28554687 40.46570313 -44.40234375 39.16015625 C-43.24755331 37.46083048 -42.09259645 35.76161778 -40.9375 34.0625 C-40.37611328 33.23169922 -39.81472656 32.40089844 -39.23632812 31.54492188 C-29.14947019 16.7316505 -21.55991471 9.06622603 -4.79003906 2.77441406 C-2.71894323 1.94170912 -2.71894323 1.94170912 0 0 Z " fill="#50CFE5" transform="translate(149,103)"/>
<path d="M0 0 C0.72703125 0.37511719 1.4540625 0.75023438 2.203125 1.13671875 C7.48349157 3.82428994 12.71426985 6.31923591 18.25 8.4375 C29.42244104 13.09510205 34.61415196 21.34741412 40.87207031 31.22753906 C42.37765653 33.59346026 43.93568685 35.92260727 45.5 38.25 C50 45 50 45 50 48 C40.53701332 46.42283555 31.03398105 42.70864541 24 36 C21.69579332 32.54231898 19.78850173 28.86400325 17.83789062 25.19921875 C14.64877057 19.46382489 11.41308325 16.50810655 5.3125 13.8125 C1.76922286 11.03533684 0.95788357 7.29879456 0 3 C0 2.01 0 1.02 0 0 Z " fill="#50CFE5" transform="translate(41,102)"/>
<path d="M0 0 C1.60967142 2.41450714 2.61535955 4.3093495 3.6640625 6.95703125 C3.97802979 7.73328857 4.29199707 8.5095459 4.61547852 9.30932617 C4.94862061 10.13537354 5.2817627 10.9614209 5.625 11.8125 C8.67669976 19.31041312 12.17828583 26.06836205 16.62890625 32.82421875 C19.00997899 38.33935304 17.41602262 43.49454576 15.4375 49 C15.03337891 50.1446875 15.03337891 50.1446875 14.62109375 51.3125 C14.41613281 51.869375 14.21117188 52.42625 14 53 C9.60514005 51.4880069 7.66293785 48.10267055 5.25 44.375 C4.59801636 43.37944092 4.59801636 43.37944092 3.93286133 42.36376953 C-13 15.95358355 -13 15.95358355 -13 5 C-8.71 3.35 -4.42 1.7 0 0 Z " fill="#BDEEF5" transform="translate(39,111)"/>
<path d="M0 0 C4.83628305 0.99043705 9.47618873 1.95698846 14 4 C12.70114737 11.10039439 10.41388602 17.03098304 7.25 23.5 C6.62351563 24.82837891 6.62351563 24.82837891 5.984375 26.18359375 C2.13226912 34.18141114 -2.34314657 41.5106592 -8.375 48.0625 C-9.06335938 48.81660156 -9.75171875 49.57070312 -10.4609375 50.34765625 C-10.96882812 50.89292969 -11.47671875 51.43820313 -12 52 C-14 51 -14 51 -15.1328125 48.11328125 C-17.76783288 38.01928587 -17.76783288 38.01928587 -15.69140625 32.55859375 C-14.3063431 30.27175459 -12.8975178 28.05832762 -11.4140625 25.83984375 C-8.49671677 21.43547848 -6.55313096 16.68943079 -4.5625 11.8125 C-4.22114014 10.98588867 -3.87978027 10.15927734 -3.52807617 9.30761719 C-2.2659596 6.22265696 -1.05440283 3.16320848 0 0 Z " fill="#BDEEF5" transform="translate(152,112)"/>
<path d="M0 0 C1.52519276 0.08937803 3.04681929 0.24537146 4.5625 0.4375 C5.80193359 0.59025391 5.80193359 0.59025391 7.06640625 0.74609375 C7.70449219 0.82988281 8.34257813 0.91367188 9 1 C8.99476318 1.99854004 8.98952637 2.99708008 8.98413086 4.02587891 C8.96595758 7.74950251 8.9545231 11.47312224 8.94506836 15.19677734 C8.94005625 16.80485698 8.93324481 18.4129321 8.92456055 20.02099609 C8.91235774 22.33952961 8.90674036 24.65800259 8.90234375 26.9765625 C8.89718246 27.68930328 8.89202118 28.40204407 8.88670349 29.13638306 C8.88635464 32.27819876 9.03661431 35.21352059 9.56835938 38.31445312 C10.14018465 41.87218956 9.15629855 43.68740291 7.5625 46.875 C6.85287109 48.32519531 6.85287109 48.32519531 6.12890625 49.8046875 C5.75636719 50.52914062 5.38382812 51.25359375 5 52 C4.34 52 3.68 52 3 52 C-4.04654524 42.7147902 -2.37564311 31.90741857 -1.875 20.9375 C-1.81017851 19.01635297 -1.74765808 17.09512684 -1.6875 15.17382812 C-1.20255864 1.20255864 -1.20255864 1.20255864 0 0 Z " fill="#E1F3F5" transform="translate(92,116)"/>
<path d="M0 0 C0.33 0 0.66 0 1 0 C1 24.75 1 49.5 1 75 C-4 70 -4 70 -5.6875 67.5 C-9.12861199 63.77987893 -13.42283587 62.05273582 -18 60 C-18 59.67 -18 59.34 -18 59 C-13.38 59 -8.76 59 -4 59 C-3.90101385 54.08876411 -3.82847753 49.17811062 -3.78027344 44.26611328 C-3.76017607 42.59576298 -3.73289317 40.92548287 -3.69824219 39.25537109 C-3.64963881 36.8523628 -3.62701344 34.45028566 -3.609375 32.046875 C-3.58872986 31.30193787 -3.56808472 30.55700073 -3.54681396 29.78948975 C-3.54524804 26.15915537 -3.70464033 24.36517455 -6.02441406 21.49707031 C-6.67635742 21.00303711 -7.32830078 20.50900391 -8 20 C-6.12849037 12.84870304 -3.50213658 6.50594543 0 0 Z " fill="#E1F3F5" transform="translate(95,33)"/>
<path d="M0 0 C10.23 0 20.46 0 31 0 C31 4.62 31 9.24 31 14 C23.08 14 15.16 14 7 14 C4.69 9.38 2.38 4.76 0 0 Z " fill="#BAEDF5" transform="translate(63,10)"/>
<path d="M0 0 C3.87163515 3.31854441 6.46276764 7.14459536 8 12 C7.51642872 16.19095112 6.49462327 17.55248371 3.375 20.375 C-0.62942257 22.30305531 -3.69306297 22.99939975 -8 22 C-16.40279057 18.26193616 -22.75147851 10.53398693 -29 4 C-28.67 3.34 -28.34 2.68 -28 2 C-26.92621094 2.49371094 -25.85242188 2.98742187 -24.74609375 3.49609375 C-23.31010625 4.14369595 -21.87389639 4.79080524 -20.4375 5.4375 C-19.73302734 5.76298828 -19.02855469 6.08847656 -18.30273438 6.42382812 C-13.87096162 8.40485097 -9.90669576 9.6583946 -5 10 C-2.03011299 8.36144165 -1.86524758 6.58155826 -0.8125 3.3125 C-0.544375 2.219375 -0.27625 1.12625 0 0 Z " fill="#93D5DE" transform="translate(47,11)"/>
<path d="M0 0 C9.9 0 19.8 0 30 0 C28.02 3.63 26.04 7.26 24 11 C23.67 11.66 23.34 12.32 23 13 C15.41 13 7.82 13 0 13 C0 8.71 0 4.42 0 0 Z " fill="#BAEDF5" transform="translate(99,11)"/>
<path d="M0 0 C2 1 2 1 2.6328125 2.84765625 C2.87644531 3.94400391 2.87644531 3.94400391 3.125 5.0625 C3.29257813 5.79597656 3.46015625 6.52945312 3.6328125 7.28515625 C3.75398437 7.85105469 3.87515625 8.41695312 4 9 C11.20947036 11.13007079 16.46496609 8.1246495 23 5 C23.71800781 4.59394531 24.43601563 4.18789062 25.17578125 3.76953125 C27 3 27 3 30 4 C12.29457718 22.2365855 12.29457718 22.2365855 5.8125 22.5625 C0.97522518 21.84880372 -1.45972077 20.54027923 -4.875 17.125 C-6.3829706 14.27661108 -5.83335944 13.07941911 -5 10 C-4.20028505 8.20391888 -3.34455414 6.43183488 -2.4375 4.6875 C-1.98246094 3.80449219 -1.52742187 2.92148438 -1.05859375 2.01171875 C-0.53458984 1.01591797 -0.53458984 1.01591797 0 0 Z " fill="#93D5DE" transform="translate(144,11)"/>
<path d="M0 0 C1.43072241 2.86144482 0.58879795 4.51077496 -0.14453125 7.6015625 C-0.40943359 8.73207031 -0.67433594 9.86257812 -0.94726562 11.02734375 C-1.23279297 12.21457031 -1.51832031 13.40179688 -1.8125 14.625 C-2.08642578 15.78902344 -2.36035156 16.95304687 -2.64257812 18.15234375 C-3.17769893 20.41858676 -3.71933368 22.68330341 -4.26806641 24.94628906 C-4.71185192 26.79781314 -5.1404063 28.65320004 -5.54052734 30.51464844 C-6.79655335 36.20255897 -8.28508462 37.85672308 -13 41 C-13.66 41 -14.32 41 -15 41 C-14.9184668 40.38479492 -14.83693359 39.76958984 -14.75292969 39.13574219 C-14.3957872 36.34286684 -14.0725975 33.54706696 -13.75 30.75 C-13.62109375 29.78191406 -13.4921875 28.81382813 -13.359375 27.81640625 C-12.56991482 22.20897791 -12.56991482 22.20897791 -14.953125 17.328125 C-15.62859375 16.88984375 -16.3040625 16.4515625 -17 16 C-14.5457323 13.51677995 -12.08591435 11.03913187 -9.625 8.5625 C-8.92632812 7.85544922 -8.22765625 7.14839844 -7.5078125 6.41992188 C-6.8375 5.74638672 -6.1671875 5.07285156 -5.4765625 4.37890625 C-4.85861816 3.7557251 -4.24067383 3.13254395 -3.60400391 2.49047852 C-2 1 -2 1 0 0 Z " fill="#E1F3F5" transform="translate(129,42)"/>
<path d="M0 0 C5.19827586 0.34913793 5.19827586 0.34913793 7.75 1.625 C6.25111257 6.62129144 4.13829052 11.00763833 1.75 15.625 C-3.53 15.295 -8.81 14.965 -14.25 14.625 C-8.41210375 0.03025937 -8.41210375 0.03025937 0 0 Z " fill="#69A6B0" transform="translate(136.25,9.375)"/>
<path d="M0 0 C2.31 4.62 4.62 9.24 7 14 C-2.95336788 15.05699482 -2.95336788 15.05699482 -8 14 C-11.41181523 10.43167949 -13.24673782 6.58440539 -15 2 C-10.25368713 -1.16420858 -5.63243123 -0.12112755 0 0 Z " fill="#68A5AF" transform="translate(63,10)"/>
<path d="M0 0 C1.98 0 3.96 0 6 0 C5.99214478 1.49781006 5.99214478 1.49781006 5.98413086 3.02587891 C5.96595758 6.74950251 5.9545231 10.47312224 5.94506836 14.19677734 C5.94005625 15.80485698 5.93324481 17.4129321 5.92456055 19.02099609 C5.91235774 21.33952961 5.90674036 23.65800259 5.90234375 25.9765625 C5.89718246 26.68930328 5.89202118 27.40204407 5.88670349 28.13638306 C5.8863523 31.29934595 6.04155891 34.23382634 6.59594727 37.35302734 C7 40 7 40 5.5625 42.375 C5.046875 42.91125 4.53125 43.4475 4 44 C3.690625 43.195625 3.38125 42.39125 3.0625 41.5625 C2.23664655 39.10919595 2.23664655 39.10919595 1 38 C0.83982834 35.19023482 0.74049466 32.40226404 0.68359375 29.58984375 C0.66281265 28.74780899 0.64203156 27.90577423 0.62062073 27.03822327 C0.55503188 24.33806821 0.49619724 21.63781283 0.4375 18.9375 C0.39432363 17.11131759 0.35070964 15.28514546 0.30664062 13.45898438 C0.19934106 8.97276008 0.09810034 4.4864345 0 0 Z " fill="#D4EBF2" transform="translate(95,117)"/>
<path d="M0 0 C7.04255319 5.35846438 7.04255319 5.35846438 8 10 C7.5390625 13.33203125 7.5390625 13.33203125 6.625 16.8125 C6.18027344 18.55466797 6.18027344 18.55466797 5.7265625 20.33203125 C5.48679687 21.21246094 5.24703125 22.09289062 5 23 C1.11776293 21.41834786 -1.50085238 19.37316646 -4 16 C-4.03403821 13.04926514 -3.21284325 10.47831468 -2.3125 7.6875 C-2.09916016 6.94693359 -1.88582031 6.20636719 -1.66601562 5.44335938 C-1.13696338 3.6210683 -0.5719162 1.80929624 0 0 Z " fill="#6EA9B2" transform="translate(57,149)"/>
<path d="M0 0 C6.02917342 7.43598055 6.02917342 7.43598055 5.8125 11.625 C5.1049837 16.26699719 3.61752647 20.60521111 2 25 C-1.36853655 23.60612281 -3.36389123 22.31026659 -5 19 C-4.77938256 16.14962272 -4.4264047 13.69882842 -3.8125 10.9375 C-3.67263672 10.21755859 -3.53277344 9.49761719 -3.38867188 8.75585938 C-2.68080635 5.30621608 -1.9731017 2.95965255 0 0 Z " fill="#E2F3F5" transform="translate(51,139)"/>
<path d="M0 0 C3.33820203 3.33820203 2.72578602 7.76359477 3 12.3125 C3.08894531 13.26318359 3.17789063 14.21386719 3.26953125 15.19335938 C3.68399914 22.08991223 3.68399914 22.08991223 1.66015625 24.78271484 C0 26.16796875 0 26.16796875 -3 28 C-3.72881089 26.02179902 -4.37513559 24.01345199 -5 22 C-5.27199219 21.27296875 -5.54398438 20.5459375 -5.82421875 19.796875 C-7.15963101 15.41615755 -7.42492201 12.98183614 -5.56640625 8.6875 C-3.81632901 5.70145271 -1.99284611 2.82886936 0 0 Z " fill="#E2F3F5" transform="translate(142,136)"/>
<path d="M0 0 C0.53181175 2.24743045 1.05007126 4.49807102 1.5625 6.75 C1.85253906 8.00296875 2.14257812 9.2559375 2.44140625 10.546875 C3.1981982 15.22522523 3.1981982 15.22522523 2 18 C-0.4375 20.75 -0.4375 20.75 -3 23 C-3.66 23 -4.32 23 -5 23 C-8.76379158 8.87730457 -8.76379158 8.87730457 -6.93359375 4.37890625 C-3.15553534 0 -3.15553534 0 0 0 Z " fill="#6EA9B2" transform="translate(136,149)"/>
<path d="M0 0 C1.77260631 0.45142775 3.5430368 0.91140523 5.3125 1.375 C6.79169922 1.75785156 6.79169922 1.75785156 8.30078125 2.1484375 C11 3 11 3 14 5 C13.125 10.75 13.125 10.75 12 13 C7.16371695 12.00956295 2.52381127 11.04301154 -2 9 C-1.125 1.125 -1.125 1.125 0 0 Z " fill="#6CA8B1" transform="translate(155,103)"/>
<path d="M0 0 C1.87620422 3.16609462 2.09662822 5.35832401 2 9 C0.23141309 9.67260351 -1.53996016 10.33788395 -3.3125 11 C-4.29863281 11.37125 -5.28476562 11.7425 -6.30078125 12.125 C-9 13 -9 13 -12 13 C-12.33 10.36 -12.66 7.72 -13 5 C-11.58521865 4.35004703 -10.16808513 3.70521278 -8.75 3.0625 C-7.96109375 2.70285156 -7.1721875 2.34320313 -6.359375 1.97265625 C-4.24176302 1.09966721 -2.23330638 0.48661492 0 0 Z " fill="#6BA7B1" transform="translate(37,103)"/>
<path d="M0 0 C7.26 0.33 14.52 0.66 22 1 C17 7 17 7 14.31640625 7.83203125 C13.40761719 7.82558594 12.49882813 7.81914063 11.5625 7.8125 C10.65628906 7.83957031 9.75007813 7.86664063 8.81640625 7.89453125 C6 7 6 7 0 0 Z " fill="#8CD3DC" transform="translate(85,110)"/>
<path d="M0 0 C2.28978985 2.09640639 3.65150975 3.9821583 4.9375 6.80078125 C5.27523437 7.53103516 5.61296875 8.26128906 5.9609375 9.01367188 C6.30382813 9.77228516 6.64671875 10.53089844 7 11.3125 C7.68686535 12.80888523 8.37435459 14.30498426 9.0625 15.80078125 C9.38863281 16.51314941 9.71476562 17.22551758 10.05078125 17.95947266 C11.31092182 20.66838594 12.64536467 23.33729494 14 26 C10.93037807 25.45028261 8.69326874 24.91647408 6.75488281 22.35400391 C5.5988091 20.21107586 4.59525179 18.04558924 3.625 15.8125 C3.27050781 15.06935547 2.91601562 14.32621094 2.55078125 13.56054688 C0.38890413 8.7985743 -0.40096036 5.21939784 0 0 Z " fill="#256D87" transform="translate(44,117)"/>
<path d="M0 0 C1.65 0 3.3 0 5 0 C5 4.62 5 9.24 5 14 C6.98 14 8.96 14 11 14 C11 14.33 11 14.66 11 15 C9.54176788 15.0270043 8.08339325 15.04639787 6.625 15.0625 C5.81289062 15.07410156 5.00078125 15.08570313 4.1640625 15.09765625 C2 15 2 15 0 14 C0 9.38 0 4.76 0 0 Z " fill="#6AA7B1" transform="translate(94,10)"/>
<path d="M0 0 C0.33 0.99 0.66 1.98 1 3 C0.57589844 3.40089844 0.15179688 3.80179688 -0.28515625 4.21484375 C-5.01786946 8.80193501 -9.06179417 13.72112835 -13 19 C-14.98 18.67 -16.96 18.34 -19 18 C-14.98445593 13.85060446 -10.71700293 10.01958504 -6.40234375 6.18359375 C-4.19974259 4.18155465 -2.08496952 2.1234909 0 0 Z " fill="#67A5AF" transform="translate(173,15)"/>
<path d="M0 0 C3.64886715 3.05313373 7.08960335 6.06335507 10.3125 9.5625 C14.24398463 13.60169654 18.88397242 15.76624148 24 18 C24 18.33 24 18.66 24 19 C20.38403522 19.64154214 18.48154862 19.92943997 15 19 C11.14856982 15.74503024 8.11701094 11.94785183 5 8 C3.9612922 6.80991101 2.92040927 5.62170655 1.875 4.4375 C0 2 0 2 0 0 Z " fill="#67A5AF" transform="translate(18,15)"/>
<path d="M0 0 C-1.82748903 2.46313739 -3.22976216 3.83428618 -6.26953125 4.48828125 C-8.51479346 4.72518293 -10.74455578 4.90361349 -13 5 C-12.67 3.68 -12.34 2.36 -12 1 C-3.96428571 -1.27678571 -3.96428571 -1.27678571 0 0 Z " fill="#D4EBF2" transform="translate(115,91)"/>
</svg>
