<?xml version="1.0" encoding="UTF-8"?>
<svg version="1.1" xmlns="http://www.w3.org/2000/svg" width="197" height="202">
<path d="M0 0 C2.15868232 0.00533547 4.31715425 0.00003823 6.47583008 -0.00634766 C24.98299191 -0.01852081 24.98299191 -0.01852081 31.8605957 1.13037109 C33.8605957 3.13037109 33.8605957 3.13037109 33.8605957 6.13037109 C39.39026485 6.32364108 43.73759106 6.40726205 48.8605957 4.13037109 C54.14177261 3.53264477 57.26401701 5.13950148 61.4855957 8.06787109 C62.0851709 8.48190186 62.68474609 8.89593262 63.30249023 9.32250977 C64.54240322 10.18104914 65.77986774 11.04313509 67.01489258 11.90869141 C68.77912971 13.07644836 70.56048205 14.05848929 72.4387207 15.02880859 C76.0925593 17.15011299 78.37508831 18.69164044 80.8605957 22.13037109 C82.27582108 28.69112689 81.60480969 35.51354547 80.8605957 42.13037109 C81.8505957 42.13037109 82.8405957 42.13037109 83.8605957 42.13037109 C85.16326746 47.63054074 84.57093001 52.60069169 83.8605957 58.13037109 C81.3855957 58.62537109 81.3855957 58.62537109 78.8605957 59.13037109 C78.87219727 59.73365234 78.88379883 60.33693359 78.89575195 60.95849609 C78.90477539 61.75771484 78.91379883 62.55693359 78.9230957 63.38037109 C78.93469727 64.16927734 78.94629883 64.95818359 78.95825195 65.77099609 C78.8605957 68.13037109 78.8605957 68.13037109 78.36987305 69.86254883 C77.69807376 72.85408459 77.67654038 75.7095357 77.61450195 78.77490234 C77.56519531 80.75200195 77.56519531 80.75200195 77.51489258 82.76904297 C77.46812409 84.83727647 77.42381892 86.9055018 77.38378906 88.97387695 C76.9818662 108.82694074 75.35833319 123.31400202 60.8605957 138.13037109 C59.9943457 139.01724609 59.1280957 139.90412109 58.2355957 140.81787109 C57.4518457 141.58099609 56.6680957 142.34412109 55.8605957 143.13037109 C55.27149414 143.74138672 54.68239258 144.35240234 54.07543945 144.98193359 C53.44766602 145.62904297 52.81989258 146.27615234 52.1730957 146.94287109 C51.59172852 147.54744141 51.01036133 148.15201172 50.41137695 148.77490234 C48.8605957 150.13037109 48.8605957 150.13037109 46.8605957 150.13037109 C46.8605957 152.77037109 46.8605957 155.41037109 46.8605957 158.13037109 C36.8605957 163.13037109 36.8605957 163.13037109 34.99755859 163.98608398 C29.84470813 166.41121275 25.65474723 169.42139473 21.2980957 173.06787109 C8.34841708 183.75841575 8.34841708 183.75841575 3.6105957 184.94287109 C-2.37463606 183.64607088 -6.43914728 179.9215249 -11.1394043 176.13037109 C-12.04819336 175.41365234 -12.95698242 174.69693359 -13.89331055 173.95849609 C-17.20686332 171.33135738 -20.49254143 168.67741548 -23.72143555 165.94677734 C-26.1043728 163.90902204 -26.1043728 163.90902204 -29.4519043 163.31787109 C-34.34340781 161.74264115 -37.85616736 159.08535076 -41.1394043 155.13037109 C-41.41655273 154.18548828 -41.69370117 153.24060547 -41.97924805 152.26708984 C-43.53632109 148.05722568 -46.03489937 146.05623396 -49.3894043 143.19287109 C-50.57418161 142.1409766 -51.75650793 141.08631454 -52.9362793 140.02880859 C-53.49637695 139.52833008 -54.05647461 139.02785156 -54.63354492 138.51220703 C-57.43365998 135.94271105 -59.8294608 133.13779753 -62.1394043 130.13037109 C-62.82776367 129.30859375 -62.82776367 129.30859375 -63.5300293 128.47021484 C-69.26174893 121.23968347 -69.42949244 112.67187622 -69.7019043 103.75537109 C-69.76186333 101.99742331 -69.82550359 100.23959616 -69.89331055 98.48193359 C-69.91723877 97.71703613 -69.94116699 96.95213867 -69.96582031 96.1640625 C-70.07665222 93.92795828 -70.07665222 93.92795828 -71.1394043 91.13037109 C-71.23258293 88.80885072 -71.27114337 86.48499367 -71.2800293 84.16162109 C-71.29834817 82.77228166 -71.31791762 81.38295826 -71.33862305 79.99365234 C-71.36765146 77.80766529 -71.389406 75.62271617 -71.38989258 73.43652344 C-71.39322226 71.32312382 -71.42771977 69.21210739 -71.4675293 67.09912109 C-71.48154785 65.20323242 -71.48154785 65.20323242 -71.49584961 63.26904297 C-71.81092635 59.94401248 -71.81092635 59.94401248 -74.61889648 58.31982422 C-75.45066406 57.92730469 -76.28243164 57.53478516 -77.1394043 57.13037109 C-78.46169619 54.4857873 -78.23617624 52.45275808 -78.2019043 49.50537109 C-78.19288086 48.50248047 -78.18385742 47.49958984 -78.17456055 46.46630859 C-78.16295898 45.69544922 -78.15135742 44.92458984 -78.1394043 44.13037109 C-76.8194043 43.47037109 -75.4994043 42.81037109 -74.1394043 42.13037109 C-74.24381836 40.85162109 -74.34823242 39.57287109 -74.45581055 38.25537109 C-75.22264206 25.14940592 -75.22264206 25.14940592 -72.7331543 20.50927734 C-70.35308211 18.38094356 -67.85185694 16.8196454 -65.1394043 15.13037109 C-63.80848762 14.06536432 -62.48902721 12.98595482 -61.1784668 11.89599609 C-50.41163725 3.19405475 -50.41163725 3.19405475 -44.6550293 3.03271484 C-41.67960248 3.85208999 -38.97260307 4.91675352 -36.1394043 6.13037109 C-33.13606942 6.6647371 -31.22024824 6.57049166 -28.1394043 6.13037109 C-27.5206543 5.32599609 -26.9019043 4.52162109 -26.2644043 3.69287109 C-24.1394043 1.13037109 -24.1394043 1.13037109 -22.31787109 0.66577148 C-14.88067755 0.05650315 -7.4571896 -0.02186612 0 0 Z " fill="#1FA8D8" transform="translate(95.139404296875,9.86962890625)"/>
<path d="M0 0 C2.15868232 0.00533547 4.31715425 0.00003823 6.47583008 -0.00634766 C24.98299191 -0.01852081 24.98299191 -0.01852081 31.8605957 1.13037109 C33.8605957 3.13037109 33.8605957 3.13037109 33.8605957 6.13037109 C39.39026485 6.32364108 43.73759106 6.40726205 48.8605957 4.13037109 C54.14177261 3.53264477 57.26401701 5.13950148 61.4855957 8.06787109 C62.0851709 8.48190186 62.68474609 8.89593262 63.30249023 9.32250977 C64.54240322 10.18104914 65.77986774 11.04313509 67.01489258 11.90869141 C68.77912971 13.07644836 70.56048205 14.05848929 72.4387207 15.02880859 C76.0925593 17.15011299 78.37508831 18.69164044 80.8605957 22.13037109 C82.27582108 28.69112689 81.60480969 35.51354547 80.8605957 42.13037109 C81.8505957 42.13037109 82.8405957 42.13037109 83.8605957 42.13037109 C85.16326746 47.63054074 84.57093001 52.60069169 83.8605957 58.13037109 C81.3855957 58.62537109 81.3855957 58.62537109 78.8605957 59.13037109 C78.87219727 59.73365234 78.88379883 60.33693359 78.89575195 60.95849609 C78.90477539 61.75771484 78.91379883 62.55693359 78.9230957 63.38037109 C78.93469727 64.16927734 78.94629883 64.95818359 78.95825195 65.77099609 C78.8605957 68.13037109 78.8605957 68.13037109 78.36987305 69.86254883 C77.69807376 72.85408459 77.67654038 75.7095357 77.61450195 78.77490234 C77.56519531 80.75200195 77.56519531 80.75200195 77.51489258 82.76904297 C77.46812409 84.83727647 77.42381892 86.9055018 77.38378906 88.97387695 C76.9818662 108.82694074 75.35833319 123.31400202 60.8605957 138.13037109 C59.9943457 139.01724609 59.1280957 139.90412109 58.2355957 140.81787109 C57.4518457 141.58099609 56.6680957 142.34412109 55.8605957 143.13037109 C55.27149414 143.74138672 54.68239258 144.35240234 54.07543945 144.98193359 C53.44766602 145.62904297 52.81989258 146.27615234 52.1730957 146.94287109 C51.59172852 147.54744141 51.01036133 148.15201172 50.41137695 148.77490234 C48.8605957 150.13037109 48.8605957 150.13037109 46.8605957 150.13037109 C46.8605957 152.77037109 46.8605957 155.41037109 46.8605957 158.13037109 C36.8605957 163.13037109 36.8605957 163.13037109 34.99755859 163.98608398 C29.84470813 166.41121275 25.65474723 169.42139473 21.2980957 173.06787109 C8.34841708 183.75841575 8.34841708 183.75841575 3.6105957 184.94287109 C-2.37463606 183.64607088 -6.43914728 179.9215249 -11.1394043 176.13037109 C-12.04819336 175.41365234 -12.95698242 174.69693359 -13.89331055 173.95849609 C-17.20686332 171.33135738 -20.49254143 168.67741548 -23.72143555 165.94677734 C-26.1043728 163.90902204 -26.1043728 163.90902204 -29.4519043 163.31787109 C-34.34340781 161.74264115 -37.85616736 159.08535076 -41.1394043 155.13037109 C-41.41655273 154.18548828 -41.69370117 153.24060547 -41.97924805 152.26708984 C-43.53632109 148.05722568 -46.03489937 146.05623396 -49.3894043 143.19287109 C-50.57418161 142.1409766 -51.75650793 141.08631454 -52.9362793 140.02880859 C-53.49637695 139.52833008 -54.05647461 139.02785156 -54.63354492 138.51220703 C-57.43365998 135.94271105 -59.8294608 133.13779753 -62.1394043 130.13037109 C-62.82776367 129.30859375 -62.82776367 129.30859375 -63.5300293 128.47021484 C-69.26174893 121.23968347 -69.42949244 112.67187622 -69.7019043 103.75537109 C-69.76186333 101.99742331 -69.82550359 100.23959616 -69.89331055 98.48193359 C-69.91723877 97.71703613 -69.94116699 96.95213867 -69.96582031 96.1640625 C-70.07665222 93.92795828 -70.07665222 93.92795828 -71.1394043 91.13037109 C-71.23258293 88.80885072 -71.27114337 86.48499367 -71.2800293 84.16162109 C-71.29834817 82.77228166 -71.31791762 81.38295826 -71.33862305 79.99365234 C-71.36765146 77.80766529 -71.389406 75.62271617 -71.38989258 73.43652344 C-71.39322226 71.32312382 -71.42771977 69.21210739 -71.4675293 67.09912109 C-71.48154785 65.20323242 -71.48154785 65.20323242 -71.49584961 63.26904297 C-71.81092635 59.94401248 -71.81092635 59.94401248 -74.61889648 58.31982422 C-75.45066406 57.92730469 -76.28243164 57.53478516 -77.1394043 57.13037109 C-78.46169619 54.4857873 -78.23617624 52.45275808 -78.2019043 49.50537109 C-78.19288086 48.50248047 -78.18385742 47.49958984 -78.17456055 46.46630859 C-78.16295898 45.69544922 -78.15135742 44.92458984 -78.1394043 44.13037109 C-76.8194043 43.47037109 -75.4994043 42.81037109 -74.1394043 42.13037109 C-74.24381836 40.85162109 -74.34823242 39.57287109 -74.45581055 38.25537109 C-75.22264206 25.14940592 -75.22264206 25.14940592 -72.7331543 20.50927734 C-70.35308211 18.38094356 -67.85185694 16.8196454 -65.1394043 15.13037109 C-63.80848762 14.06536432 -62.48902721 12.98595482 -61.1784668 11.89599609 C-50.41163725 3.19405475 -50.41163725 3.19405475 -44.6550293 3.03271484 C-41.67960248 3.85208999 -38.97260307 4.91675352 -36.1394043 6.13037109 C-33.13606942 6.6647371 -31.22024824 6.57049166 -28.1394043 6.13037109 C-27.5206543 5.32599609 -26.9019043 4.52162109 -26.2644043 3.69287109 C-24.1394043 1.13037109 -24.1394043 1.13037109 -22.31787109 0.66577148 C-14.88067755 0.05650315 -7.4571896 -0.02186612 0 0 Z M-13.7644043 23.63037109 C-22.71523517 24.93081904 -30.49435391 25.89382587 -39.3894043 23.69287109 C-46.00354079 22.65626959 -50.33702291 23.84528783 -55.91674805 27.52099609 C-59.66554433 31.9220434 -59.11889862 36.24253996 -58.7565918 41.70458984 C-58.11467905 45.72962603 -58.11467905 45.72962603 -56.1394043 49.13037109 C-53.39299751 50.48745206 -53.39299751 50.48745206 -50.2019043 51.38037109 C-49.14100586 51.71552734 -48.08010742 52.05068359 -46.98706055 52.39599609 C-44.14538244 53.25522976 -44.14538244 53.25522976 -41.1394043 53.13037109 C-41.15100586 53.97341797 -41.16260742 54.81646484 -41.17456055 55.68505859 C-41.18358398 56.78076172 -41.19260742 57.87646484 -41.2019043 59.00537109 C-41.21350586 60.09591797 -41.22510742 61.18646484 -41.23706055 62.31005859 C-41.33684733 65.08214655 -41.33684733 65.08214655 -40.1394043 67.13037109 C-40.95924805 66.91380859 -41.7790918 66.69724609 -42.6237793 66.47412109 C-43.70143555 66.19568359 -44.7790918 65.91724609 -45.8894043 65.63037109 C-46.95674805 65.35193359 -48.0240918 65.07349609 -49.1237793 64.78662109 C-52.27645731 63.98861121 -52.27645731 63.98861121 -56.1394043 64.13037109 C-56.39468288 74.31315031 -56.04845155 84.40692404 -55.3269043 94.56787109 C-55.25681152 95.65632324 -55.18671875 96.74477539 -55.11450195 97.86621094 C-54.10435203 111.07074554 -50.60989499 121.63017289 -40.4519043 130.63037109 C-38.03706203 132.61296235 -36.03199703 133.68407473 -33.1394043 135.13037109 C-31.1594043 131.83037109 -29.1794043 128.53037109 -27.1394043 125.13037109 C-24.4994043 127.11037109 -21.8594043 129.09037109 -19.1394043 131.13037109 C-19.9206543 133.37646484 -20.7019043 135.62255859 -21.4831543 137.86865234 C-22.27873537 140.21806531 -22.27873537 140.21806531 -22.1394043 143.13037109 C-18.05789692 145.49214222 -13.9677514 147.83712727 -9.86157227 150.15576172 C-8.46203157 150.94778985 -7.06752033 151.74870035 -5.67456055 152.55224609 C-1.2129585 154.99066622 1.81769557 155.64681267 6.8605957 155.13037109 C10.28862374 153.77985904 13.45901661 152.04893099 16.6730957 150.25537109 C17.5309668 149.79517578 18.38883789 149.33498047 19.27270508 148.86083984 C23.87224982 146.41739632 23.87224982 146.41739632 27.8605957 143.13037109 C27.69689825 141.03261876 27.69689825 141.03261876 27.0480957 138.75537109 C26.85602539 137.98451172 26.66395508 137.21365234 26.46606445 136.41943359 C26.26625977 135.66404297 26.06645508 134.90865234 25.8605957 134.13037109 C25.52619196 132.79730582 25.19249592 131.46406189 24.8605957 130.13037109 C25.9434082 129.72818359 25.9434082 129.72818359 27.0480957 129.31787109 C29.83649697 128.14054612 32.30155294 126.73891226 34.8605957 125.13037109 C35.1493457 126.03787109 35.4380957 126.94537109 35.7355957 127.88037109 C36.62591346 130.45240017 37.57553983 132.74383875 38.8605957 135.13037109 C45.58214085 134.12368806 50.87380691 127.76590724 54.7746582 122.59130859 C60.46473948 113.53763247 61.27512809 104.60283876 61.9855957 94.13037109 C62.0705127 92.93951904 62.15542969 91.74866699 62.24291992 90.52172852 C62.83740183 81.7067699 63.10405412 72.96250159 62.8605957 64.13037109 C60.94359711 64.44082841 59.02700847 64.75381781 57.1105957 65.06787109 C56.04325195 65.24189453 54.9759082 65.41591797 53.8762207 65.59521484 C51.49711977 66.01741281 49.1914436 66.50239994 46.8605957 67.13037109 C47.0255957 66.49099609 47.1905957 65.85162109 47.3605957 65.19287109 C48.01992085 61.15450457 47.9406335 57.21229851 47.8605957 53.13037109 C48.42907227 53.02080078 48.99754883 52.91123047 49.58325195 52.79833984 C50.35540039 52.63978516 51.12754883 52.48123047 51.9230957 52.31787109 C52.67719727 52.16705078 53.43129883 52.01623047 54.20825195 51.86083984 C57.59827237 50.92721124 60.6503176 49.56458347 63.8605957 48.13037109 C65.41676465 37.14581459 65.41676465 37.14581459 61.6574707 27.34130859 C57.56286615 24.62275967 54.36864379 23.13037109 49.4230957 23.13037109 C48.2474707 23.46037109 47.0718457 23.79037109 45.8605957 24.13037109 C37.27112094 25.38535122 29.29603389 24.87761961 20.7355957 23.69287109 C8.77171813 22.090691 -1.81673443 21.88077828 -13.7644043 23.63037109 Z " fill="#FCD149" transform="translate(95.139404296875,9.86962890625)"/>
<path d="M0 0 C1.87274795 0.7687037 3.72831499 1.58084626 5.5625 2.4375 C7.41080009 2.93881975 9.26491238 3.41935894 11.125 3.875 C14.95417989 4.87473662 16.47857725 6.05426397 18.5625 9.4375 C19.28601427 11.41764432 19.96515389 13.41571315 20.5625 15.4375 C25.97808353 15.68366289 30.89360691 14.93035601 36.20703125 13.875 C45.80598687 12.62344816 54.58082072 14.16015175 63.99609375 16.015625 C76.06337322 18.29013354 76.06337322 18.29013354 87.6875 15.3125 C92.54397107 13.873028 95.62675368 14.80960838 100.04101562 16.94165039 C108.62877352 21.7850775 108.62877352 21.7850775 110.30419922 26.54443359 C111.25169924 32.6639814 111.04339744 39.21615383 107.5625 44.4375 C106.9025 44.4375 106.2425 44.4375 105.5625 44.4375 C105.62824219 42.59285156 105.62824219 42.59285156 105.6953125 40.7109375 C106.05261218 31.72861218 106.05261218 31.72861218 102.515625 23.87109375 C98.65854011 21.44580552 95.75369821 20.41544077 91.1875 20.5 C89.99125 20.809375 88.795 21.11875 87.5625 21.4375 C78.96586251 22.66964024 71.00472104 22.18568725 62.4375 21 C50.47362243 19.3978199 39.88516987 19.18790718 27.9375 20.9375 C18.9818554 22.23864732 11.16734764 23.1700307 2.25 21.0625 C-4.3365027 19.92371215 -7.95151788 21.53201066 -13.48828125 25.0546875 C-14.13152344 25.51101562 -14.77476563 25.96734375 -15.4375 26.4375 C-15.46448422 28.87507413 -15.48433099 31.31234915 -15.5 33.75 C-15.50837891 34.44029297 -15.51675781 35.13058594 -15.52539062 35.84179688 C-15.54057906 38.9858025 -15.43943327 41.43170019 -14.4375 44.4375 C-11.9032993 45.47754769 -9.48564798 46.33728397 -6.875 47.125 C-6.16408203 47.34994141 -5.45316406 47.57488281 -4.72070312 47.80664062 C-2.96301181 48.36108017 -1.20065902 48.90070189 0.5625 49.4375 C1.0575 56.3675 1.0575 56.3675 1.5625 63.4375 C-3.95481548 62.84635906 -9.06006328 61.80099596 -14.4375 60.4375 C-14.0802574 66.37929071 -13.70738123 72.31982727 -13.32055664 78.25976562 C-13.19134943 80.27675312 -13.0662724 82.29400992 -12.94555664 84.31152344 C-12.77038449 87.22673397 -12.57992956 90.14062338 -12.38671875 93.0546875 C-12.31151253 94.38812698 -12.31151253 94.38812698 -12.23478699 95.74850464 C-11.40217536 107.71728798 -7.84752918 117.68155543 1.2421875 125.84375 C3.6349029 127.76876749 6.09361238 129.61119957 8.5625 131.4375 C6.5825 136.8825 6.5825 136.8825 4.5625 142.4375 C1.69228587 141.00239293 -0.29185329 139.90544577 -2.71484375 137.9765625 C-3.31103516 137.50476563 -3.90722656 137.03296875 -4.52148438 136.546875 C-5.43897461 135.81210937 -5.43897461 135.81210937 -6.375 135.0625 C-6.98279297 134.58039063 -7.59058594 134.09828125 -8.21679688 133.6015625 C-10.89627952 131.47416311 -13.56367972 129.33456858 -16.21484375 127.171875 C-18.41063832 125.35169416 -18.41063832 125.35169416 -21.0625 124.0625 C-24.80524463 121.50167473 -26.05478311 118.23080201 -26.984375 113.875 C-27.70059957 108.44157223 -27.83172901 102.99025206 -28.04296875 97.51757812 C-28.08035156 96.65197266 -28.11773437 95.78636719 -28.15625 94.89453125 C-28.18654297 94.11053955 -28.21683594 93.32654785 -28.24804688 92.51879883 C-28.37513 90.24306653 -28.37513 90.24306653 -29.4375 87.4375 C-29.53067863 85.11597963 -29.56923908 82.79212258 -29.578125 80.46875 C-29.59644387 79.07941057 -29.61601333 77.69008716 -29.63671875 76.30078125 C-29.66574716 74.1147942 -29.6875017 71.92984508 -29.68798828 69.74365234 C-29.69131797 67.63025272 -29.72581548 65.51923629 -29.765625 63.40625 C-29.77964355 61.51036133 -29.77964355 61.51036133 -29.79394531 59.57617188 C-30.10902206 56.25114139 -30.10902206 56.25114139 -32.91699219 54.62695312 C-33.74875977 54.23443359 -34.58052734 53.84191406 -35.4375 53.4375 C-36.75979189 50.79291621 -36.53427194 48.75988699 -36.5 45.8125 C-36.49097656 44.80960938 -36.48195313 43.80671875 -36.47265625 42.7734375 C-36.46105469 42.00257812 -36.44945313 41.23171875 -36.4375 40.4375 C-35.1175 39.7775 -33.7975 39.1175 -32.4375 38.4375 C-32.54191406 37.15875 -32.64632812 35.88 -32.75390625 34.5625 C-33.52073776 21.45653482 -33.52073776 21.45653482 -31.03125 16.81640625 C-28.65117781 14.68807247 -26.14995265 13.12677431 -23.4375 11.4375 C-22.10658333 10.37249323 -20.78712291 9.29308373 -19.4765625 8.203125 C-7.10791222 -1.79993643 -7.10791222 -1.79993643 0 0 Z " fill="#F3A01A" transform="translate(53.4375,13.5625)"/>
<path d="M0 0 C2.15868232 0.00533547 4.31715425 0.00003823 6.47583008 -0.00634766 C24.98299191 -0.01852081 24.98299191 -0.01852081 31.8605957 1.13037109 C33.8605957 3.13037109 33.8605957 3.13037109 33.8605957 6.13037109 C39.39026485 6.32364108 43.73759106 6.40726205 48.8605957 4.13037109 C54.14177261 3.53264477 57.26401701 5.13950148 61.4855957 8.06787109 C62.0851709 8.48190186 62.68474609 8.89593262 63.30249023 9.32250977 C64.54240322 10.18104914 65.77986774 11.04313509 67.01489258 11.90869141 C68.77912971 13.07644836 70.56048205 14.05848929 72.4387207 15.02880859 C76.0925593 17.15011299 78.37508831 18.69164044 80.8605957 22.13037109 C82.27582108 28.69112689 81.60480969 35.51354547 80.8605957 42.13037109 C81.8505957 42.13037109 82.8405957 42.13037109 83.8605957 42.13037109 C85.16326746 47.63054074 84.57093001 52.60069169 83.8605957 58.13037109 C82.2105957 58.46037109 80.5605957 58.79037109 78.8605957 59.13037109 C78.8605957 62.10037109 78.8605957 65.07037109 78.8605957 68.13037109 C78.5305957 68.13037109 78.2005957 68.13037109 77.8605957 68.13037109 C77.8605957 65.49037109 77.8605957 62.85037109 77.8605957 60.13037109 C68.87823518 62.05389072 68.87823518 62.05389072 60.1105957 64.75537109 C55.71058025 66.31456024 51.50603457 66.76168547 46.8605957 67.13037109 C47.1905957 62.51037109 47.5205957 57.89037109 47.8605957 53.13037109 C49.14836914 52.72044922 50.43614258 52.31052734 51.76293945 51.88818359 C53.4414529 51.34430773 55.11983143 50.80001535 56.7980957 50.25537109 C58.07330078 49.85125 58.07330078 49.85125 59.37426758 49.43896484 C60.58759766 49.04257813 60.58759766 49.04257813 61.82543945 48.63818359 C62.5743042 48.39729004 63.32316895 48.15639648 64.09472656 47.90820312 C66.05782983 47.26778806 66.05782983 47.26778806 66.8605957 45.13037109 C67.09333779 42.25126522 67.28032327 39.38890614 67.4230957 36.50537109 C67.48787109 35.30267578 67.48787109 35.30267578 67.55395508 34.07568359 C67.66011027 32.09411999 67.76086425 30.11226839 67.8605957 28.13037109 C67.14129883 27.87900391 66.42200195 27.62763672 65.6809082 27.36865234 C62.6353904 26.03149287 60.38272425 24.32099673 57.7355957 22.31787109 C53.71380626 19.6547921 53.71380626 19.6547921 49.05200195 19.34130859 C46.3181666 20.13589628 46.3181666 20.13589628 43.85668945 21.22802734 C34.87788093 23.93220566 25.36886612 21.31442438 16.42700195 19.55224609 C7.99150412 17.96705187 0.14219717 17.44823232 -8.3269043 19.13037109 C-12.70946404 19.93336914 -16.6943024 20.33242118 -21.1394043 20.13037109 C-21.4075293 19.43169922 -21.6756543 18.73302734 -21.9519043 18.01318359 C-24.06247594 12.64594012 -24.06247594 12.64594012 -28.25268555 9.02099609 C-30.67880338 8.40244697 -30.67880338 8.40244697 -34.1394043 8.13037109 C-34.1394043 7.80037109 -34.1394043 7.47037109 -34.1394043 7.13037109 C-32.7781543 7.03755859 -32.7781543 7.03755859 -31.3894043 6.94287109 C-27.9661689 6.46442358 -27.9661689 6.46442358 -26.3894043 3.63037109 C-23.39128069 0.29912264 -21.6214888 0.60483335 -17.30493164 0.27392578 C-11.5364866 0.0123304 -5.77302247 -0.01692778 0 0 Z " fill="#F3A11B" transform="translate(95.139404296875,9.86962890625)"/>
<path d="M0 0 C1.9480957 0.07734375 1.9480957 0.07734375 3.93554688 0.15625 C5.30730243 0.22112701 6.67904712 0.28623413 8.05078125 0.3515625 C9.43420451 0.40981871 10.81766827 0.46712165 12.20117188 0.5234375 C15.58905756 0.66509126 18.97622229 0.81652404 22.36328125 0.9765625 C21.15509785 4.84443227 19.77862156 8.33506122 17.82421875 11.8828125 C17.32954102 12.78563965 16.83486328 13.6884668 16.32519531 14.61865234 C15.80151367 15.5617627 15.27783203 16.50487305 14.73828125 17.4765625 C14.20428711 18.44674316 13.67029297 19.41692383 13.12011719 20.41650391 C8.94554367 27.9811926 4.69932902 35.50325664 0.36328125 42.9765625 C2.76870054 44.17927214 4.46694716 44.17972913 7.15234375 44.29296875 C8.09335938 44.33486328 9.034375 44.37675781 10.00390625 44.41992188 C11.48117188 44.47889648 11.48117188 44.47889648 12.98828125 44.5390625 C14.47714844 44.60383789 14.47714844 44.60383789 15.99609375 44.66992188 C18.45167963 44.77617319 20.90736828 44.87821214 23.36328125 44.9765625 C20.43674595 50.33954346 17.12139693 55.19652625 13.48828125 60.1015625 C5.09548942 71.57859724 -2.82304736 83.38313072 -10.44921875 95.3828125 C-10.86655273 96.03926758 -11.28388672 96.69572266 -11.71386719 97.37207031 C-12.80389264 99.09559932 -13.88475176 100.82491612 -14.96484375 102.5546875 C-16.63671875 104.9765625 -16.63671875 104.9765625 -18.63671875 105.9765625 C-17.40639997 99.94531929 -15.83427928 94.1529945 -13.8515625 88.328125 C-13.59041153 87.54891693 -13.32926056 86.76970886 -13.06019592 85.96688843 C-12.23580578 83.51031957 -11.40514601 81.05592689 -10.57421875 78.6015625 C-10.0132517 76.93373501 -9.45270126 75.26576734 -8.89257812 73.59765625 C-7.87097514 70.55723264 -6.84711508 67.51759294 -5.82006836 64.47900391 C-5.08821721 62.3128936 -4.35974295 60.14563511 -3.63671875 57.9765625 C-15.02171875 57.4815625 -15.02171875 57.4815625 -26.63671875 56.9765625 C-23.20880782 44.75913637 -19.64267769 32.59654999 -15.88671875 20.4765625 C-15.49814697 19.21884033 -15.1095752 17.96111816 -14.70922852 16.6652832 C-14.33983154 15.47894287 -13.97043457 14.29260254 -13.58984375 13.0703125 C-13.26145508 12.01521484 -12.93306641 10.96011719 -12.59472656 9.87304688 C-10.04752522 2.17172254 -8.61597725 -0.37624355 0 0 Z " fill="#F8B42A" transform="translate(100.63671875,42.0234375)"/>
<path d="M0 0 C-0.09471238 5.8494519 -0.20104051 11.69854567 -0.31738281 17.54760742 C-0.35527997 19.53062411 -0.39019515 21.51370042 -0.421875 23.49682617 C-1.02356151 60.71677786 -1.02356151 60.71677786 -14.62109375 75.87109375 C-17.23651231 78.21165715 -19.84354173 79.50003016 -23 81 C-23.639375 81.70125 -24.27875 82.4025 -24.9375 83.125 C-27.77257168 85.70233789 -30.26159539 85.71243041 -34 86 C-34.67408308 84.73308493 -35.33900497 83.46129251 -36 82.1875 C-36.37125 81.47980469 -36.7425 80.77210938 -37.125 80.04296875 C-38 78 -38 78 -38 75 C-36.2421875 73.421875 -36.2421875 73.421875 -33.875 71.75 C-26.00603677 65.85754245 -20.18137847 58.99823605 -18.2421875 49.15234375 C-18.10210991 47.74904846 -17.98076043 46.34379802 -17.875 44.9375 C-17.8042627 44.16108154 -17.73352539 43.38466309 -17.66064453 42.5847168 C-16.52007143 29.41321891 -15.78765904 16.19645475 -15 3 C-9.91263179 0.88241526 -5.53238294 0 0 0 Z " fill="#F3A11B" transform="translate(173,70)"/>
<path d="M0 0 C2.97 1.65 5.94 3.3 9 5 C9 10.94 9 16.88 9 23 C-1.57142857 27.42857143 -1.57142857 27.42857143 -7 28 C-6.98839844 28.59167969 -6.97679687 29.18335937 -6.96484375 29.79296875 C-6.95130859 30.97826172 -6.95130859 30.97826172 -6.9375 32.1875 C-6.92589844 32.96480469 -6.91429687 33.74210937 -6.90234375 34.54296875 C-7.00481427 37.12112711 -7.43302447 39.48655731 -8 42 C-7.09636719 41.7834375 -6.19273437 41.566875 -5.26171875 41.34375 C-4.08222656 41.0653125 -2.90273437 40.786875 -1.6875 40.5 C-0.51574219 40.2215625 0.65601563 39.943125 1.86328125 39.65625 C5 39 5 39 8 39 C8.38269012 53.07449206 7.20634311 66.98588647 6 81 C-0.61242722 79.17778624 -6.80520671 76.94776396 -13 74 C-12.95810547 72.97753174 -12.91621094 71.95506348 -12.87304688 70.90161133 C-12.72637976 67.04607949 -12.63574975 63.19078368 -12.56054688 59.33325195 C-12.52073115 57.67560141 -12.46645353 56.01822399 -12.39648438 54.36157227 C-11.89681324 42.2114808 -13.30853964 34.68911558 -21 25 C-16.82651197 19.08755863 -12.18367141 13.82421023 -7.22753906 8.56958008 C-6.72577148 8.0361499 -6.22400391 7.50271973 -5.70703125 6.953125 C-5.2581958 6.48036133 -4.80936035 6.00759766 -4.34692383 5.52050781 C-2.79386229 3.76729641 -1.40530073 1.8737343 0 0 Z " fill="#118DAD" transform="translate(150,35)"/>
<path d="M0 0 C0.94842773 0.39735352 0.94842773 0.39735352 1.91601562 0.80273438 C6.56073778 2.80897556 6.56073778 2.80897556 7.6875 5.0625 C4.04186143 14.12320842 -2.15389542 21.68896124 -10.3125 27.0625 C-11.3025 27.0625 -12.2925 27.0625 -13.3125 27.0625 C-13.98404933 25.77336513 -14.64958859 24.48109796 -15.3125 23.1875 C-15.68375 22.46820313 -16.055 21.74890625 -16.4375 21.0078125 C-17.3125 19.0625 -17.3125 19.0625 -17.3125 17.0625 C-18.405625 17.701875 -19.49875 18.34125 -20.625 19 C-22.8963291 20.32851325 -24.78689892 21.22063297 -27.3125 22.0625 C-26.97025391 23.07570312 -26.97025391 23.07570312 -26.62109375 24.109375 C-26.33363281 25.00140625 -26.04617187 25.8934375 -25.75 26.8125 C-25.31494141 28.13507813 -25.31494141 28.13507813 -24.87109375 29.484375 C-24.28116755 32.20711131 -24.20150499 33.52463885 -25.3125 36.0625 C-30.68670433 40.86247428 -38.70985019 44.36049254 -45.3125 47.0625 C-45.9725 46.7325 -46.6325 46.4025 -47.3125 46.0625 C-47.41744363 41.91646044 -47.4556764 37.77650611 -47.43457031 33.62963867 C-47.43650639 32.22227335 -47.45605106 30.8148101 -47.49414062 29.40795898 C-47.78923973 17.84581212 -47.78923973 17.84581212 -44.42382812 13.78173828 C-41.81312285 11.91851147 -39.18199234 10.49293258 -36.3125 9.0625 C-34.37484174 7.88377705 -32.44260706 6.69609677 -30.515625 5.5 C-28.53434579 4.34882196 -26.54994175 3.20300579 -24.5625 2.0625 C-23.56089844 1.46566406 -22.55929688 0.86882812 -21.52734375 0.25390625 C-20.55410156 -0.30425781 -19.58085938 -0.86242187 -18.578125 -1.4375 C-17.70961914 -1.9428125 -16.84111328 -2.448125 -15.94628906 -2.96875 C-10.3709148 -5.01946237 -5.15981658 -2.26250632 0 0 Z " fill="#118DAD" transform="translate(147.3125,117.9375)"/>
<path d="M0 0 C5.53657294 -0.42589023 9.89665983 1.094753 15 3 C15.11275269 4.92078369 15.11275269 4.92078369 15.2277832 6.88037109 C15.51217023 11.67086413 15.81228318 16.46026883 16.11694336 21.24951172 C16.24617795 23.31500633 16.37125361 25.38076583 16.49194336 27.44677734 C16.66704744 30.43147316 16.85752405 33.41486849 17.05078125 36.3984375 C17.10091873 37.30927094 17.15105621 38.22010437 17.20271301 39.15853882 C18.02088028 51.19343987 21.53441439 61.19416802 30.6796875 69.40625 C33.0724029 71.33126749 35.53111238 73.17369957 38 75 C36.68 78.63 35.36 82.26 34 86 C31.12978587 84.56489293 29.14564671 83.46794577 26.72265625 81.5390625 C26.12646484 81.06726563 25.53027344 80.59546875 24.91601562 80.109375 C24.30435547 79.61953125 23.69269531 79.1296875 23.0625 78.625 C22.45470703 78.14289063 21.84691406 77.66078125 21.22070312 77.1640625 C18.54122048 75.03666311 15.87382028 72.89706858 13.22265625 70.734375 C11.02686168 68.91419416 11.02686168 68.91419416 8.375 67.625 C4.63225537 65.06417473 3.38271689 61.79330201 2.453125 57.4375 C1.73690043 52.00407223 1.60577099 46.55275206 1.39453125 41.08007812 C1.35714844 40.21447266 1.31976562 39.34886719 1.28125 38.45703125 C1.25095703 37.67303955 1.22066406 36.88904785 1.18945312 36.08129883 C1.06237 33.80556653 1.06237 33.80556653 0 31 C-0.08397157 28.64319787 -0.10728187 26.28405919 -0.09765625 23.92578125 C-0.0962413 23.2419487 -0.09482635 22.55811615 -0.09336853 21.8535614 C-0.08777876 19.67316278 -0.07522822 17.49286749 -0.0625 15.3125 C-0.05748367 13.83268378 -0.052921 12.35286594 -0.04882812 10.87304688 C-0.03781271 7.24866443 -0.02055512 3.6243423 0 0 Z " fill="#F3A11A" transform="translate(24,70)"/>
<path d="M0 0 C2.05612619 1.97492516 3.93525601 3.93027776 5.8125 6.0625 C6.33932373 6.65160156 6.86614746 7.24070312 7.40893555 7.84765625 C8.45924212 9.02350968 9.50659164 10.20201197 10.55078125 11.38330078 C11.7952351 12.77157123 13.08137067 14.12227778 14.375 15.46484375 C15.014375 16.13644531 15.65375 16.80804688 16.3125 17.5 C16.86550781 18.0671875 17.41851562 18.634375 17.98828125 19.21875 C19 21 19 21 18.78417969 23.31713867 C17.87238287 26.43660791 16.47225217 28.16404188 14.46484375 30.70703125 C9.45028083 38.34100807 10.22130565 45.90565409 10.5625 54.6875 C10.59769121 56.27532111 10.62961636 57.86321813 10.65820312 59.45117188 C10.73454424 63.30268999 10.85487371 67.15048529 11 71 C8.75243216 72.15082685 6.50218252 73.29576858 4.25 74.4375 C3.61578125 74.76298828 2.9815625 75.08847656 2.328125 75.42382812 C-0.73359908 76.97063665 -3.60615621 78.3915078 -7 79 C-8.27141886 64.97550602 -9.3487886 51.08718386 -9 37 C-3.49153077 37.642269 1.64235597 38.56491678 7 40 C6.67 39.34 6.34 38.68 6 38 C5.92934383 35.95944995 5.91578024 33.91665743 5.9375 31.875 C5.94652344 30.77929688 5.95554687 29.68359375 5.96484375 28.5546875 C5.97644531 27.71164063 5.98804687 26.86859375 6 26 C5.43152344 25.89042969 4.86304688 25.78085937 4.27734375 25.66796875 C-0.81040897 24.62323822 -5.37971295 23.40639951 -10 21 C-11.2062252 17.38132441 -11.10816918 14.07493749 -11.0625 10.3125 C-11.05798828 9.61060547 -11.05347656 8.90871094 -11.04882812 8.18554688 C-11.03706927 6.45699462 -11.01913454 4.72848635 -11 3 C-4.0503801 -1.4103357 -4.0503801 -1.4103357 0 0 Z " fill="#118DAC" transform="translate(48,37)"/>
<path d="M0 0 C1.2140328 0.82874487 2.4160109 1.6754169 3.60546875 2.5390625 C6.01870841 4.25918595 8.54176265 5.75769751 11.08642578 7.2734375 C13.55741453 8.75085162 15.98814009 10.29043537 18.41943359 11.83203125 C18.22607422 12.46109375 18.03271484 13.09015625 17.83349609 13.73828125 C17.57310547 14.59421875 17.31271484 15.45015625 17.04443359 16.33203125 C16.66158203 17.585 16.66158203 17.585 16.27099609 18.86328125 C15.2293731 22.49462748 14.33568086 26.16704218 13.41943359 29.83203125 C16.71943359 24.88203125 20.01943359 19.93203125 23.41943359 14.83203125 C27.24012849 18.65272615 26.47925876 24.63267172 26.51708984 29.765625 C26.51050021 31.93361541 26.49865951 34.10159535 26.48193359 36.26953125 C26.47742188 37.38263672 26.47291016 38.49574219 26.46826172 39.64257812 C26.45654552 42.37245226 26.44014058 45.10221299 26.41943359 47.83203125 C23.70816279 46.58810745 21.00051525 45.33715465 18.29443359 44.08203125 C17.53388672 43.73398438 16.77333984 43.3859375 15.98974609 43.02734375 C11.51140236 40.94259753 7.4498959 38.69069781 3.41943359 35.83203125 C4.16193956 31.74824842 5.2486666 27.81263902 6.41943359 23.83203125 C3.77943359 21.85203125 1.13943359 19.87203125 -1.58056641 17.83203125 C-4.55056641 22.78203125 -4.55056641 22.78203125 -7.58056641 27.83203125 C-16.2140852 22.46878472 -22.07976611 17.00673955 -26.58056641 7.83203125 C-26.58056641 6.51203125 -26.58056641 5.19203125 -26.58056641 3.83203125 C-17.06705508 -2.22308 -10.19395488 -6.50411845 0 0 Z " fill="#118DAC" transform="translate(69.58056640625,117.16796875)"/>
<path d="M0 0 C4.74922994 0.56067298 7.98331797 1.97830968 11.37890625 5.390625 C17.90251055 14.49332868 17.86814523 22.7488358 17.07958984 33.640625 C16.92621541 36.27148944 16.92621541 36.27148944 17.51953125 39.9375 C17.94792963 44.15557632 17.92394059 46.1841845 16 50 C10.35777737 54.87788881 3.58693387 58.20423122 -3.05371094 61.5078125 C-7.05069269 63.53213736 -10.9254517 65.75997867 -14.80712891 67.99609375 C-15.53077637 68.32738281 -16.25442383 68.65867187 -17 69 C-17.66 68.67 -18.32 68.34 -19 68 C-13.04603429 58.88761005 -6.88791669 49.95975545 -0.46801758 41.16845703 C2.45065662 37.16870915 5.28965274 33.14408169 8 29 C7.40985107 28.98018066 6.81970215 28.96036133 6.21166992 28.93994141 C3.53649904 28.84465341 0.86210502 28.73499061 -1.8125 28.625 C-2.74126953 28.5940625 -3.67003906 28.563125 -4.62695312 28.53125 C-5.51962891 28.49257812 -6.41230469 28.45390625 -7.33203125 28.4140625 C-8.56530151 28.36693115 -8.56530151 28.36693115 -9.82348633 28.31884766 C-12 28 -12 28 -15 26 C-13.02662692 22.45673442 -11.05107963 18.91469128 -9.07348633 15.3737793 C-8.40068258 14.16838663 -7.72847976 12.96265835 -7.05688477 11.7565918 C-6.09288084 10.02565339 -5.12655352 8.29600957 -4.16015625 6.56640625 C-3.57886963 5.52427979 -2.99758301 4.48215332 -2.39868164 3.40844727 C-1 1 -1 1 0 0 Z " fill="#118DAC" transform="translate(115,59)"/>
<path d="M0 0 C1.32 0.33 2.64 0.66 4 1 C4 4.96985187 2.6578871 5.98507557 0.125 9 C-0.68582031 9.96550781 -1.49664062 10.93101563 -2.33203125 11.92578125 C-6.45279939 16.70955566 -10.70912116 21.36871741 -15 26 C-14.043419 27.77178053 -13.08467012 29.54239076 -12.125 31.3125 C-11.59132812 32.29863281 -11.05765625 33.28476563 -10.5078125 34.30078125 C-8.99277874 37.09586458 -8.99277874 37.09586458 -7 40 C-6.81666847 42.50731199 -6.7436964 44.90046861 -6.76953125 47.40625 C-6.76998947 48.12735962 -6.77044769 48.84846924 -6.7709198 49.59143066 C-6.77393788 51.11451871 -6.78181093 52.63760379 -6.79418945 54.16064453 C-6.81243208 56.49132226 -6.81469914 58.8216021 -6.81445312 61.15234375 C-6.81936921 62.63281593 -6.82519792 64.11328543 -6.83203125 65.59375 C-6.83314407 66.2906897 -6.8342569 66.98762939 -6.83540344 67.70568848 C-6.86518903 70.74395975 -7.03124524 73.09373573 -8 76 C-7.46632812 76.17015625 -6.93265625 76.3403125 -6.3828125 76.515625 C-0.4828829 78.43463324 5.26304469 80.64054239 11 83 C10.67 84.98 10.34 86.96 10 89 C9.22136597 88.6740686 9.22136597 88.6740686 8.42700195 88.34155273 C6.06086025 87.35999323 3.68700083 86.39865107 1.3125 85.4375 C0.49587891 85.09525391 -0.32074219 84.75300781 -1.16210938 84.40039062 C-1.95810547 84.08134766 -2.75410156 83.76230469 -3.57421875 83.43359375 C-4.30213623 83.13509521 -5.03005371 82.83659668 -5.7800293 82.52905273 C-10.90856031 81.3068459 -14.68595757 83.74138597 -19.03515625 86.2734375 C-20.17404297 86.9334375 -21.31292969 87.5934375 -22.48632812 88.2734375 C-23.07357666 88.61858398 -23.6608252 88.96373047 -24.26586914 89.31933594 C-26.0564459 90.37144273 -27.8527586 91.41312791 -29.65039062 92.453125 C-34.34834461 95.18791034 -34.34834461 95.18791034 -39 98 C-39.76916748 98.42659912 -40.53833496 98.85319824 -41.33081055 99.29272461 C-43.90672033 101.92740899 -43.54837169 104.24102289 -43.609375 107.85546875 C-43.62591125 108.51710526 -43.64244751 109.17874176 -43.65948486 109.86042786 C-43.70799288 111.96954601 -43.72933927 114.07794323 -43.75 116.1875 C-43.77815777 117.61917695 -43.80808495 119.05082028 -43.83984375 120.48242188 C-43.91374893 123.98812393 -43.96330788 127.49368875 -44 131 C-45.65 131.33 -47.3 131.66 -49 132 C-50.21946544 129.56106913 -50.08501668 128.06446379 -50.02734375 125.34375 C-50.01509766 124.40273437 -50.00285156 123.46171875 -49.99023438 122.4921875 C-49.9556274 120.52856225 -49.91670838 118.56500729 -49.87304688 116.6015625 C-49.80638322 110.81358853 -50.2808647 105.68376246 -51.76000977 100.07617188 C-52 98 -52 98 -50 95 C-47.70333151 93.74350008 -45.42903706 92.60761996 -43.0625 91.5 C-41.62347759 90.78691822 -40.1860469 90.07061771 -38.75 89.3515625 C-36.31150685 88.13540002 -33.86898707 86.93848303 -31.40234375 85.78027344 C-20.79056391 81.22974224 -20.79056391 81.22974224 -13.578125 72.88671875 C-13.3358839 69.85514261 -13.44880624 67.09986587 -13.82714844 64.08691406 C-14.02314706 61.72053525 -13.89667762 59.48500607 -13.7265625 57.1171875 C-13.0844194 46.99455496 -13.68349835 39.75334158 -19.6875 31.390625 C-22.96298161 28.00448523 -25.40923879 26.90175667 -30 26 C-29.01 24.02 -28.02 22.04 -27 20 C-24.03 20.99 -21.06 21.98 -18 23 C-17.34 21.68 -16.68 20.36 -16 19 C-14.26184985 16.83360996 -12.50596447 14.72118481 -10.6875 12.625 C-9.73286101 11.51320275 -8.77843283 10.40122446 -7.82421875 9.2890625 C-7.12498291 8.47743652 -7.12498291 8.47743652 -6.41162109 7.64941406 C-4.24801647 5.12134197 -2.12410589 2.56130802 0 0 Z " fill="#50CFE5" transform="translate(145,33)"/>
<path d="M0 0 C-2.16718208 9.2113313 -4.8448275 18.22961316 -7.6875 27.25 C-8.10773506 28.59234991 -8.52765868 29.93479736 -8.94726562 31.27734375 C-9.96179831 34.51918381 -10.98046866 37.7597285 -12 41 C-4.41 41.33 3.18 41.66 11 42 C8.69 49.59 6.38 57.18 4 65 C-5.31700194 63.13659961 -14.8506639 58.32130079 -22 52 C-24.07718948 47.44948222 -23.89346816 43.97478559 -23.20507812 39.07421875 C-22.98271843 36.82520925 -23.08665458 34.7515634 -23.265625 32.5 C-23.9613309 22.83571546 -22.77151222 16.66120778 -17.3359375 8.6015625 C-12.79779399 3.54737591 -6.98352704 0 0 0 Z " fill="#118DAD" transform="translate(87,57)"/>
<path d="M0 0 C2.15868232 0.00533547 4.31715425 0.00003823 6.47583008 -0.00634766 C24.98299191 -0.01852081 24.98299191 -0.01852081 31.8605957 1.13037109 C33.8605957 3.13037109 33.8605957 3.13037109 33.8605957 6.13037109 C34.8505957 6.62537109 34.8505957 6.62537109 35.8605957 7.13037109 C34.8705957 7.13037109 33.8805957 7.13037109 32.8605957 7.13037109 C32.7780957 7.79037109 32.6955957 8.45037109 32.6105957 9.13037109 C31.6129978 13.12076273 29.78892887 16.51586752 27.8605957 20.13037109 C23.05193339 20.31531964 18.72450788 19.99978392 13.9855957 19.13037109 C5.11418741 17.57398367 -2.52103434 18.06658589 -11.35424805 19.68505859 C-14.6937878 20.21901025 -17.76870541 20.28358468 -21.1394043 20.13037109 C-21.4075293 19.43169922 -21.6756543 18.73302734 -21.9519043 18.01318359 C-24.06247594 12.64594012 -24.06247594 12.64594012 -28.25268555 9.02099609 C-30.67880338 8.40244697 -30.67880338 8.40244697 -34.1394043 8.13037109 C-34.1394043 7.80037109 -34.1394043 7.47037109 -34.1394043 7.13037109 C-32.7781543 7.03755859 -32.7781543 7.03755859 -31.3894043 6.94287109 C-27.9661689 6.46442358 -27.9661689 6.46442358 -26.3894043 3.63037109 C-23.39128069 0.29912264 -21.6214888 0.60483335 -17.30493164 0.27392578 C-11.5364866 0.0123304 -5.77302247 -0.01692778 0 0 Z " fill="#FDEB76" transform="translate(95.139404296875,9.86962890625)"/>
<path d="M0 0 C3.41229155 1.45896564 5.32141156 4.24092465 7.5859375 7.0703125 C8.55847874 8.25400076 9.53113416 9.43759521 10.50390625 10.62109375 C10.96845215 11.1929541 11.43299805 11.76481445 11.91162109 12.35400391 C13.54155847 14.35023312 15.21371109 16.30771152 16.8984375 18.2578125 C17.6615625 19.1446875 18.4246875 20.0315625 19.2109375 20.9453125 C25.56544073 19.69829099 31.89421185 18.37166991 38.2109375 16.9453125 C37.94657642 21.43945084 37.94657642 21.43945084 36.2109375 23.9453125 C33.39453125 25.20703125 33.39453125 25.20703125 29.9609375 26.3203125 C22.96427787 28.65253238 20.45112863 31.50901447 17.2109375 37.9453125 C16.69829346 38.65840576 16.18564941 39.37149902 15.6574707 40.10620117 C13.83762832 43.67800659 13.83099919 46.74289948 13.91796875 50.65234375 C13.92433601 51.74043587 13.92433601 51.74043587 13.93083191 52.85050964 C13.94754207 55.15333141 13.9851779 57.45525803 14.0234375 59.7578125 C14.03849434 61.3248571 14.052181 62.8919155 14.06445312 64.45898438 C14.09742019 68.28810207 14.14914758 72.11655584 14.2109375 75.9453125 C14.93563232 76.22165527 15.66032715 76.49799805 16.40698242 76.78271484 C19.08103968 77.89145326 21.54456882 79.1433273 24.07421875 80.546875 C24.96044922 81.03671875 25.84667969 81.5265625 26.75976562 82.03125 C28.1277832 82.79308594 28.1277832 82.79308594 29.5234375 83.5703125 C30.45478516 84.0859375 31.38613281 84.6015625 32.34570312 85.1328125 C34.63557219 86.40104767 36.92391465 87.67195412 39.2109375 88.9453125 C38.8359375 91.8828125 38.8359375 91.8828125 38.2109375 94.9453125 C37.2209375 95.4403125 37.2209375 95.4403125 36.2109375 95.9453125 C33.93603516 94.8972168 33.93603516 94.8972168 31.125 93.26953125 C30.11179688 92.68880859 29.09859375 92.10808594 28.0546875 91.50976562 C26.9925 90.89037109 25.9303125 90.27097656 24.8359375 89.6328125 C22.74519031 88.42769355 20.65405957 87.22323971 18.5625 86.01953125 C17.63260254 85.47901123 16.70270508 84.93849121 15.74462891 84.3815918 C14.49045166 83.67063354 14.49045166 83.67063354 13.2109375 82.9453125 C12.5298291 82.51984131 11.8487207 82.09437012 11.14697266 81.65600586 C9.20611417 80.74038915 9.20611417 80.74038915 7.10449219 81.45263672 C6.37133789 81.7982666 5.63818359 82.14389648 4.8828125 82.5 C3.68398438 83.05107422 3.68398438 83.05107422 2.4609375 83.61328125 C1.6359375 84.01160156 0.8109375 84.40992187 -0.0390625 84.8203125 C-0.87953125 85.21089844 -1.72 85.60148437 -2.5859375 86.00390625 C-4.66064597 86.97053179 -6.72740479 87.95123108 -8.7890625 88.9453125 C-9.2840625 85.9753125 -9.2840625 85.9753125 -9.7890625 82.9453125 C-8.19964844 82.20474609 -8.19964844 82.20474609 -6.578125 81.44921875 C-5.19009743 80.80209779 -3.80207696 80.15496158 -2.4140625 79.5078125 C-1.71539062 79.18232422 -1.01671875 78.85683594 -0.296875 78.52148438 C3.47340731 76.76749814 3.47340731 76.76749814 7.2109375 74.9453125 C7.17427979 73.97295654 7.13762207 73.00060059 7.09985352 71.9987793 C6.97175456 68.34072186 6.89229822 64.68285566 6.82641602 61.02319336 C6.79152594 59.44895947 6.74399273 57.87494706 6.68286133 56.30151367 C6.32174951 46.75784422 6.4103504 40.05580087 12.59741211 32.21801758 C14.39387012 29.68764571 15.03486805 28.03707944 15.2109375 24.9453125 C13.44635302 22.58548291 11.78504312 20.68333499 9.7109375 18.6328125 C8.60103981 17.48357749 7.49166323 16.33383897 6.3828125 15.18359375 C5.56780273 14.35335693 5.56780273 14.35335693 4.73632812 13.50634766 C2.76269001 11.48659059 0.84762099 9.42139184 -1.0390625 7.3203125 C-1.58046875 6.72992188 -2.121875 6.13953125 -2.6796875 5.53125 C-3.7890625 3.9453125 -3.7890625 3.9453125 -3.7890625 0.9453125 C-1.7890625 -0.0546875 -1.7890625 -0.0546875 0 0 Z " fill="#50CFE4" transform="translate(50.7890625,33.0546875)"/>
<path d="M0 0 C1.29550781 0.05478516 2.59101562 0.10957031 3.92578125 0.16601562 C5.28908084 0.2392426 6.65236194 0.31281469 8.015625 0.38671875 C9.39446574 0.45001139 10.7733728 0.51187632 12.15234375 0.57226562 C15.52435462 0.72553885 18.89499721 0.89340059 22.265625 1.07421875 C21.01865871 5.0934058 19.54379691 8.68260704 17.515625 12.3671875 C16.9896875 13.32689453 16.46375 14.28660156 15.921875 15.27539062 C15.10203125 16.75362305 15.10203125 16.75362305 14.265625 18.26171875 C13.7190625 19.25880859 13.1725 20.25589844 12.609375 21.28320312 C8.59115589 28.58592242 8.59115589 28.58592242 6.265625 32.07421875 C3.25499489 32.18516827 0.5017618 32.1206013 -2.484375 31.88671875 C-3.68320313 31.82000977 -3.68320313 31.82000977 -4.90625 31.75195312 C-9.48124747 31.44720412 -13.42484798 30.76327531 -17.734375 29.07421875 C-16.76537243 25.06607175 -15.75596112 21.06927254 -14.734375 17.07421875 C-14.26451172 15.18896484 -14.26451172 15.18896484 -13.78515625 13.265625 C-13.45902344 12.02683594 -13.13289063 10.78804687 -12.796875 9.51171875 C-12.49910156 8.35542969 -12.20132813 7.19914062 -11.89453125 6.0078125 C-9.53378709 0.03838871 -6.03342879 -0.29108648 0 0 Z " fill="#F8B42A" transform="translate(100.734375,41.92578125)"/>
<path d="M0 0 C6.33485194 13.6332574 6.33485194 13.6332574 9 20 C15.45027515 19.73672346 18.47915791 17.49335977 23 13 C23.66 13.33 24.32 13.66 25 14 C23.83593677 15.16406323 22.67129061 16.32754865 21.50390625 17.48828125 C20.4596661 18.53794602 19.42652024 19.59871848 18.40234375 20.66796875 C16.97138652 22.14814809 15.48847779 23.57767678 14 25 C13.34 25 12.68 25 12 25 C12 27.64 12 30.28 12 33 C10.5 33.75 9 34.5 7.5 35.25 C6.5821875 35.71277344 5.664375 36.17554688 4.71875 36.65234375 C3.12716636 37.4412753 1.52640184 38.21294246 -0.09375 38.94140625 C-5.23660845 41.29152394 -9.24504113 44.49159311 -13.5078125 48.1953125 C-16.28398726 50.20564594 -18.74779338 50.95377892 -22 52 C-24.3953275 53.24624623 -26.6827447 54.60964682 -29 56 C-29.16795811 52.89590179 -29.33414323 49.79171114 -29.5 46.6875 C-29.54769531 45.80642578 -29.59539062 44.92535156 -29.64453125 44.01757812 C-29.68964844 43.17001953 -29.73476562 42.32246094 -29.78125 41.44921875 C-29.82314453 40.66893311 -29.86503906 39.88864746 -29.90820312 39.0847168 C-29.98277524 37.39117604 -30 35.69518179 -30 34 C-22.41 30.37 -14.82 26.74 -7 23 C-7 23.99 -7 24.98 -7 26 C-9.28874173 27.33858524 -11.58069656 28.67101014 -13.875 30 C-14.52597656 30.3815625 -15.17695312 30.763125 -15.84765625 31.15625 C-20.7734375 34 -20.7734375 34 -23 34 C-22.34 38.29 -21.68 42.58 -21 47 C-20.03578125 46.24074219 -19.0715625 45.48148438 -18.078125 44.69921875 C-16.80210194 43.69528885 -15.52605924 42.69138391 -14.25 41.6875 C-13.61578125 41.18798828 -12.9815625 40.68847656 -12.328125 40.17382812 C-9.24355585 37.74794301 -6.15493938 35.33433646 -3 33 C-3.52421365 27.08103069 -4.81693818 22.23104648 -7.0625 16.75 C-8.71173771 12.68917672 -10 9.4739347 -10 5 C-8.57421875 3.515625 -8.57421875 3.515625 -6.6875 2.25 C-6.07261719 1.82203125 -5.45773438 1.3940625 -4.82421875 0.953125 C-3 0 -3 0 0 0 Z " fill="#FCCE45" transform="translate(130,135)"/>
<path d="M0 0 C12.06727947 2.27450854 12.06727947 2.27450854 23.69140625 -0.703125 C28.54787732 -2.142597 31.63065993 -1.20601662 36.04492188 0.92602539 C44.63267977 5.7694525 44.63267977 5.7694525 46.30810547 10.52880859 C47.25560549 16.6483564 47.04730369 23.20052883 43.56640625 28.421875 C42.90640625 28.421875 42.24640625 28.421875 41.56640625 28.421875 C41.61023438 27.19210938 41.6540625 25.96234375 41.69921875 24.6953125 C42.05651843 15.71298718 42.05651843 15.71298718 38.51953125 7.85546875 C34.66244636 5.43018052 31.75760446 4.39981577 27.19140625 4.484375 C25.99515625 4.79375 24.79890625 5.103125 23.56640625 5.421875 C14.96976876 6.65401524 7.00862729 6.17006225 -1.55859375 4.984375 C-13.52247132 3.3821949 -24.11092388 3.17228218 -36.05859375 4.921875 C-45.01423835 6.22302232 -52.82874611 7.1544057 -61.74609375 5.046875 C-69.33229919 3.73524135 -73.16660105 6.24387987 -79.43359375 10.421875 C-79.43359375 16.361875 -79.43359375 22.301875 -79.43359375 28.421875 C-81.08359375 28.091875 -82.73359375 27.761875 -84.43359375 27.421875 C-86.47549457 11.49180749 -86.47549457 11.49180749 -83.23681641 6.62255859 C-78.89585191 2.37280825 -73.49481063 -0.23035135 -67.4765625 -0.9140625 C-64.70531043 -0.69495912 -62.13953278 -0.20898175 -59.43359375 0.421875 C-50.20680088 2.11108785 -41.96943377 0.7234295 -32.88183594 -1.10424805 C-21.27485619 -3.39020133 -11.52313683 -2.27087117 0 0 Z " fill="#985E03" transform="translate(117.43359375,29.578125)"/>
<path d="M0 0 C0.33 0 0.66 0 1 0 C1 6.6 1 13.2 1 20 C1.99 20 2.98 20 4 20 C5.30267176 25.50016964 4.71033431 30.47032059 4 36 C1.525 36.495 1.525 36.495 -1 37 C-1 39.97 -1 42.94 -1 46 C-1.33 46 -1.66 46 -2 46 C-2 43.36 -2 40.72 -2 38 C-10.98236052 39.92351962 -10.98236052 39.92351962 -19.75 42.625 C-24.15001545 44.18418915 -28.35456114 44.63131438 -33 45 C-32.67 40.38 -32.34 35.76 -32 31 C-30.73542969 30.61328125 -29.47085938 30.2265625 -28.16796875 29.828125 C-26.50758385 29.30280548 -24.84743993 28.77672388 -23.1875 28.25 C-22.35412109 27.99734375 -21.52074219 27.7446875 -20.66210938 27.484375 C-14.77591522 25.68463358 -14.77591522 25.68463358 -11 21 C-11 21.66 -11 22.32 -11 23 C-8.03 22.01 -5.06 21.02 -2 20 C-1.34 13.4 -0.68 6.8 0 0 Z " fill="#FCD14A" transform="translate(175,32)"/>
<path d="M0 0 C0.66 0.33 1.32 0.66 2 1 C1.01773437 1.79664062 0.03546875 2.59328125 -0.9765625 3.4140625 C-3.63148807 6.06898807 -4.4403319 7.77057051 -4.5859375 11.5234375 C-4.54646838 13.14167155 -4.47549143 14.759407 -4.375 16.375 C-4.34792969 17.20644531 -4.32085938 18.03789063 -4.29296875 18.89453125 C-4.22275194 20.93081888 -4.11514575 22.96575833 -4 25 C6.07152735 29.54324387 16.44561002 32.78731435 27 36 C27.495 42.93 27.495 42.93 28 50 C21.3946127 49.46078471 15.21367674 47.81065116 8.84375 46.0390625 C4.39098077 44.83536675 -0.09372988 43.84392494 -4.609375 42.90625 C-7.59248567 41.77539759 -8.5271771 40.81926497 -10 38 C-10.29296875 35.203125 -10.29296875 35.203125 -10.1875 32.25 C-10.16042969 31.26515625 -10.13335938 30.2803125 -10.10546875 29.265625 C-10.07066406 28.51796875 -10.03585938 27.7703125 -10 27 C-8.68 26.34 -7.36 25.68 -6 25 C-6.06960937 23.69804688 -6.13921875 22.39609375 -6.2109375 21.0546875 C-6.26723676 19.3281768 -6.32183459 17.60161004 -6.375 15.875 C-6.42527344 15.0190625 -6.47554687 14.163125 -6.52734375 13.28125 C-6.67307052 6.96642313 -6.67307052 6.96642313 -4.63769531 4.04394531 C-2.9765625 2.3828125 -2.9765625 2.3828125 0 0 Z " fill="#FCD04A" transform="translate(27,27)"/>
<path d="M0 0 C5.92612803 11.39640007 5.92612803 11.39640007 5 16 C2.85900767 18.37307716 0.36788754 20.21856204 -2.1875 22.125 C-2.86103516 22.64964844 -3.53457031 23.17429688 -4.22851562 23.71484375 C-7.69536085 26.38685129 -11.1788826 28.84830283 -15 31 C-15.980503 26.09748502 -16 22.19057759 -16 17 C-10.72 14.03 -5.44 11.06 0 8 C-2.66920191 8 -4.09237717 9.01792547 -6.4375 10.29296875 C-7.78134766 10.9900293 -7.78134766 10.9900293 -9.15234375 11.70117188 C-11.03115808 12.68181502 -12.89885415 13.68410098 -14.75390625 14.70898438 C-19.58433054 17.16542347 -22.84999758 18.5597289 -28.1953125 17.046875 C-29.81697001 16.41382582 -31.42070017 15.73234993 -33 15 C-33.70092773 14.68587158 -34.40185547 14.37174316 -35.12402344 14.0480957 C-37.08145269 13.11469638 -38.97629575 12.10957955 -40.875 11.0625 C-41.51179688 10.72798828 -42.14859375 10.39347656 -42.8046875 10.04882812 C-46.4119015 8.09867806 -49.27095632 6.06503147 -52 3 C-51.67 2.34 -51.34 1.68 -51 1 C-47.88434867 1.64281454 -45.46203754 2.72046291 -42.69921875 4.28515625 C-41.88646484 4.73310547 -41.07371094 5.18105469 -40.23632812 5.64257812 C-38.54437315 6.58514614 -36.85679697 7.53561991 -35.17382812 8.49414062 C-30.28224564 11.16964706 -26.69724741 12.99606664 -21 12 C-17.58343282 10.61988908 -14.40247996 8.91906261 -11.1875 7.125 C-10.32962891 6.66480469 -9.47175781 6.20460937 -8.58789062 5.73046875 C-3.98834588 3.28702523 -3.98834588 3.28702523 0 0 Z " fill="#F39D11" transform="translate(123,152)"/>
<path d="M0 0 C1.54314799 0.04162056 3.08443675 0.15729944 4.62109375 0.3046875 C6.02391602 0.43810547 6.02391602 0.43810547 7.45507812 0.57421875 C8.43927734 0.67347656 9.42347656 0.77273437 10.4375 0.875 C11.41783203 0.96652344 12.39816406 1.05804688 13.40820312 1.15234375 C20.73719525 1.86859763 20.73719525 1.86859763 23 3 C19.74862209 14.10887451 19.74862209 14.10887451 15.31982422 17.15600586 C13.34656001 18.11262441 11.36650708 18.91987212 9.3125 19.6875 C7.88147118 20.26552786 6.45048137 20.84365234 5.01953125 21.421875 C4.33068848 21.69064453 3.6418457 21.95941406 2.93212891 22.23632812 C0.4203473 23.22910711 -2.04004214 24.32326071 -4.5 25.4375 C-5.655 25.953125 -6.81 26.46875 -8 27 C-7.36151885 21.11001137 -5.82378303 15.75119859 -4 10.125 C-3.72671875 9.25875 -3.4534375 8.3925 -3.171875 7.5 C-1.1374568 1.1374568 -1.1374568 1.1374568 0 0 Z " fill="#FDDD51" transform="translate(83,71)"/>
<path d="M0 0 C1.32 0 2.64 0 4 0 C4.11275269 1.92078369 4.11275269 1.92078369 4.2277832 3.88037109 C4.51217023 8.67086413 4.81228318 13.46026883 5.11694336 18.24951172 C5.24617795 20.31500633 5.37125361 22.38076583 5.49194336 24.44677734 C5.66704744 27.43147316 5.85752405 30.41486849 6.05078125 33.3984375 C6.10091873 34.30927094 6.15105621 35.22010437 6.20271301 36.15853882 C7.02088028 48.19343987 10.53441439 58.19416802 19.6796875 66.40625 C22.07891808 68.33650917 24.50172529 70.20043793 27 72 C26.67 72.99 26.34 73.98 26 75 C17.01297148 72.06478702 9.54443012 63.91511172 5.3125 55.6875 C2.40651677 49.40406133 1.85247124 43.17299021 1.46484375 36.328125 C1.42186661 35.60566589 1.37888947 34.88320679 1.33460999 34.13885498 C1.24485441 32.61609951 1.15670149 31.09324881 1.07006836 29.5703125 C0.93867343 27.27053829 0.80076961 24.97122128 0.66210938 22.671875 C0.21662917 15.10762724 -0.11325553 7.58057015 0 0 Z " fill="#945D12" transform="translate(35,73)"/>
<path d="M0 0 C1.20023554 6.36215077 0.98012408 12.48812361 0.6875 18.9375 C0.63827393 20.04689941 0.58904785 21.15629883 0.53833008 22.29931641 C-0.37445406 41.08165781 -1.80850002 57.36873735 -15.89453125 71.1640625 C-18.74406008 73.64880934 -21.6249147 75.31245735 -25 77 C-25.33 75.68 -25.66 74.36 -26 73 C-25.12988281 72.36384766 -25.12988281 72.36384766 -24.2421875 71.71484375 C-15.52690123 65.17118822 -8.4168025 58.1935591 -6.2421875 47.15234375 C-6.10242596 45.74901695 -5.98106251 44.34377527 -5.875 42.9375 C-5.8028125 42.16035645 -5.730625 41.38321289 -5.65625 40.58251953 C-5.16834371 35.02943094 -4.83883375 29.46657538 -4.5078125 23.90234375 C-4.46534393 23.20078659 -4.42287537 22.49922943 -4.37911987 21.77641296 C-4.16556879 18.23427684 -3.96400183 14.69223352 -3.78466797 11.14819336 C-3.71135254 9.84889893 -3.63803711 8.54960449 -3.5625 7.2109375 C-3.47162109 5.45209229 -3.47162109 5.45209229 -3.37890625 3.65771484 C-3.19134766 2.342146 -3.19134766 2.342146 -3 1 C-1 0 -1 0 0 0 Z " fill="#924D17" transform="translate(161,72)"/>
<path d="M0 0 C4.03831263 1.92963707 8.02209934 3.94912718 12 6 C13.16595703 6.52207031 13.16595703 6.52207031 14.35546875 7.0546875 C16.52559711 8.2091063 17.66181439 8.92144365 19 11 C19.57325316 15.39315502 19.40610868 19.59726627 19 24 C14.43025871 21.01668195 10.02297319 17.87678918 5.6875 14.5625 C5.05521484 14.09779297 4.42292969 13.63308594 3.77148438 13.15429688 C1.00786087 11.03048331 -0.72587399 9.68274831 -2.04296875 6.40234375 C-1.99504644 3.72305094 -1.41738984 2.25114857 0 0 Z " fill="#F39D11" transform="translate(70,159)"/>
<path d="M0 0 C0.66 1.32 1.32 2.64 2 4 C-2.15590798 8.45191113 -6.72069585 10.76176561 -12.125 13.4375 C-13.47464844 14.16356445 -13.47464844 14.16356445 -14.8515625 14.90429688 C-19.65551138 17.2752113 -22.91878705 18.51782647 -28.1875 17.03125 C-29.81130728 16.40272598 -31.41758619 15.72647029 -33 15 C-33.70108887 14.68619385 -34.40217773 14.3723877 -35.12451172 14.04907227 C-37.08134759 13.11476825 -38.97641714 12.1095126 -40.875 11.0625 C-41.51179688 10.72798828 -42.14859375 10.39347656 -42.8046875 10.04882812 C-46.4119015 8.09867806 -49.27095632 6.06503147 -52 3 C-51.67 2.34 -51.34 1.68 -51 1 C-47.88434867 1.64281454 -45.46203754 2.72046291 -42.69921875 4.28515625 C-41.88646484 4.73310547 -41.07371094 5.18105469 -40.23632812 5.64257812 C-38.54437315 6.58514614 -36.85679697 7.53561991 -35.17382812 8.49414062 C-30.28224564 11.16964706 -26.69724741 12.99606664 -21 12 C-17.58343282 10.61988908 -14.40247996 8.91906261 -11.1875 7.125 C-10.32962891 6.66480469 -9.47175781 6.20460937 -8.58789062 5.73046875 C-3.98834588 3.28702523 -3.98834588 3.28702523 0 0 Z " fill="#924D17" transform="translate(123,152)"/>
<path d="M0 0 C3.63 0.66 7.26 1.32 11 2 C7.79547553 8.07754642 4.22987938 13.86064096 0.5 19.625 C0.03746826 20.34099365 -0.42506348 21.0569873 -0.90161133 21.79467773 C-3.82298216 26.28245338 -6.85854087 30.66342054 -10 35 C-11.32784412 31.01646765 -10.05036338 28.49172504 -8.69140625 24.70703125 C-8.44583481 24.00100266 -8.20026337 23.29497406 -7.94725037 22.56755066 C-7.16080661 20.31279578 -6.36184404 18.06270986 -5.5625 15.8125 C-5.02716453 14.2847959 -4.49264905 12.75680418 -3.95898438 11.22851562 C-2.64881528 7.48227317 -1.32740152 3.74016943 0 0 Z " fill="#FDEB71" transform="translate(93,113)"/>
<path d="M0 0 C2.10071263 0.2406794 4.20540251 0.4487606 6.3125 0.625 C7.30378906 0.70878906 8.29507813 0.79257812 9.31640625 0.87890625 C12.33640252 1.01517974 15.06587963 0.73353009 18 0 C17.67 0.66 17.34 1.32 17 2 C14.04642667 2.98452444 12.13913868 3.11083367 9.0625 3.10546875 C-6.42816267 3.20492188 -6.42816267 3.20492188 -20 10 C-20 15.94 -20 21.88 -20 28 C-21.65 27.67 -23.3 27.34 -25 27 C-27.04190082 11.06993249 -27.04190082 11.06993249 -23.80322266 6.20068359 C-16.88789347 -0.56933781 -9.21869169 -2.05739042 0 0 Z " fill="#B8621B" transform="translate(58,30)"/>
<path d="M0 0 C1.62950412 4.12168689 2.26264601 6.70700357 1 11 C-2.01490557 12.00496852 -4.04181692 12.10335303 -7.1875 12.0625 C-8.775625 12.041875 -10.36375 12.02125 -12 12 C-13.32 8.7 -14.64 5.4 -16 2 C-12.72498478 -1.27501522 -4.4213075 -0.0775668 0 0 Z " fill="#F39D11" transform="translate(87,13)"/>
<path d="M0 0 C2.10448938 0.14109986 4.2085877 0.28804175 6.3125 0.4375 C8.07013672 0.55931641 8.07013672 0.55931641 9.86328125 0.68359375 C13 1 13 1 16 2 C15.52449439 3.48034764 15.04448784 4.95925021 14.5625 6.4375 C14.29566406 7.26121094 14.02882813 8.08492187 13.75390625 8.93359375 C13 11 13 11 12 12 C10.5653041 12.09894455 9.12559603 12.12970735 7.6875 12.125 C6.51767578 12.12886719 6.51767578 12.12886719 5.32421875 12.1328125 C3.08748461 12.00499912 1.14733021 11.61913869 -1 11 C-2.2743328 6.66726849 -1.5168015 4.17988811 0 0 Z " fill="#F39D11" transform="translate(110,13)"/>
<path d="M0 0 C7.66551038 -0.10059725 7.66551038 -0.10059725 11.4140625 2.3984375 C7.1240625 3.0584375 2.8340625 3.7184375 -1.5859375 4.3984375 C-0.5959375 7.6984375 0.3940625 10.9984375 1.4140625 14.3984375 C8.3440625 13.4084375 8.3440625 13.4084375 15.4140625 12.3984375 C16.0740625 14.0484375 16.7340625 15.6984375 17.4140625 17.3984375 C11.65324409 18.6966501 6.32666595 19.65550722 0.4140625 19.3984375 C0.1459375 18.69976563 -0.1221875 18.00109375 -0.3984375 17.28125 C-2.50900915 11.91400652 -2.50900915 11.91400652 -6.69921875 8.2890625 C-9.12533658 7.67051338 -9.12533658 7.67051338 -12.5859375 7.3984375 C-12.5859375 7.0684375 -12.5859375 6.7384375 -12.5859375 6.3984375 C-11.2246875 6.305625 -11.2246875 6.305625 -9.8359375 6.2109375 C-6.3969136 5.74071845 -6.3969136 5.74071845 -4.8984375 2.8359375 C-2.5859375 0.3984375 -2.5859375 0.3984375 0 0 Z " fill="#FCD14C" transform="translate(73.5859375,10.6015625)"/>
<path d="M0 0 C3.41182475 1.45876606 5.32253545 4.24037667 7.5859375 7.0703125 C8.55809283 8.26082588 9.5307452 9.45093358 10.50390625 10.640625 C11.2007251 11.49962402 11.2007251 11.49962402 11.91162109 12.37597656 C13.50401305 14.29929402 15.19722603 16.11823574 16.8984375 17.9453125 C19.2109375 20.9453125 19.2109375 20.9453125 19.5859375 23.8828125 C19.4621875 24.5634375 19.3384375 25.2440625 19.2109375 25.9453125 C14.57734784 25.0988449 12.40139061 22.29215894 9.3984375 18.8828125 C8.87088867 18.29516113 8.34333984 17.70750977 7.79980469 17.10205078 C6.74815528 15.92821403 5.70005948 14.75118266 4.65576172 13.57080078 C3.41022279 12.16951687 2.14266118 10.78786453 0.87109375 9.41015625 C0.24074219 8.72050781 -0.38960937 8.03085937 -1.0390625 7.3203125 C-1.85117187 6.43472656 -1.85117187 6.43472656 -2.6796875 5.53125 C-3.7890625 3.9453125 -3.7890625 3.9453125 -3.7890625 0.9453125 C-1.7890625 -0.0546875 -1.7890625 -0.0546875 0 0 Z " fill="#B9EDF5" transform="translate(50.7890625,33.0546875)"/>
<path d="M0 0 C1.32 0.33 2.64 0.66 4 1 C4 4.96985187 2.6578871 5.98507557 0.125 9 C-0.68582031 9.96550781 -1.49664062 10.93101563 -2.33203125 11.92578125 C-6.45279939 16.70955566 -10.70912116 21.36871741 -15 26 C-16.32 25.34 -17.64 24.68 -19 24 C-16.63967612 19.74666468 -13.79074749 16.22022177 -10.625 12.5625 C-9.6794736 11.4598188 -8.73415998 10.3569551 -7.7890625 9.25390625 C-7.32918945 8.71910645 -6.86931641 8.18430664 -6.39550781 7.63330078 C-4.2389391 5.10925518 -2.1196255 2.55511219 0 0 Z " fill="#B9EDF5" transform="translate(145,33)"/>
<path d="M0 0 C3 2 3 2 3.43237305 3.87939453 C3.45855713 4.62302246 3.48474121 5.36665039 3.51171875 6.1328125 C3.54716797 6.93847656 3.58261719 7.74414062 3.61914062 8.57421875 C3.64169922 9.41597656 3.66425781 10.25773438 3.6875 11.125 C3.73874023 12.39923828 3.73874023 12.39923828 3.79101562 13.69921875 C3.87359173 15.79901105 3.93846978 17.89948564 4 20 C4.45890625 19.62746094 4.9178125 19.25492188 5.390625 18.87109375 C6.00421875 18.39800781 6.6178125 17.92492187 7.25 17.4375 C7.85328125 16.96183594 8.4565625 16.48617187 9.078125 15.99609375 C11 15 11 15 13.234375 15.34765625 C13.81703125 15.56292969 14.3996875 15.77820313 15 16 C5.51785107 23.6817409 5.51785107 23.6817409 0.125 24.8125 C-3.79620307 23.7929872 -5.45213961 22.08831563 -8 19 C-6.02 19.66 -4.04 20.32 -2 21 C-2.01047363 20.43490723 -2.02094727 19.86981445 -2.03173828 19.28759766 C-2.07324788 16.73344347 -2.0993096 14.17936018 -2.125 11.625 C-2.14175781 10.73554688 -2.15851563 9.84609375 -2.17578125 8.9296875 C-2.18222656 8.07890625 -2.18867187 7.228125 -2.1953125 6.3515625 C-2.20578613 5.56604004 -2.21625977 4.78051758 -2.22705078 3.97119141 C-2 2 -2 2 0 0 Z " fill="#FDEC7A" transform="translate(98,170)"/>
<path d="M0 0 C0.33 0 0.66 0 1 0 C3.60813001 17.8556593 2.72840112 38.73286704 -8.25 53.6875 C-12.29393807 58.64262583 -16.75545898 63.05367554 -23 64.875 C-23.66 64.91625 -24.32 64.9575 -25 65 C-22.09433105 62.0035289 -19.11209701 59.21175857 -15.9375 56.5 C-5.42791019 47.31150309 -2.37060748 36.18227725 -1.3671875 22.55859375 C-1.19071176 19.85223204 -1.03176548 17.14506383 -0.875 14.4375 C-0.7884146 13.03316264 -0.70117998 11.62886515 -0.61328125 10.22460938 C-0.40248535 6.81674238 -0.19823839 3.40861664 0 0 Z " fill="#F8B42A" transform="translate(161,85)"/>
<path d="M0 0 C4.95 0 9.9 0 15 0 C15.33 1.32 15.66 2.64 16 4 C16.66 4.33 17.32 4.66 18 5 C17.01 5 16.02 5 15 5 C14.9175 5.66 14.835 6.32 14.75 7 C13.75240209 10.99039163 11.92833317 14.38549643 10 18 C3.9981863 18.21824777 -1.19233704 17.5056904 -7 16 C-6.34 14.02 -5.68 12.04 -5 10 C-4.67 10.66 -4.34 11.32 -4 12 C0.29 12 4.58 12 9 12 C10.32 9.03 11.64 6.06 13 3 C8.71 2.34 4.42 1.68 0 1 C0 0.67 0 0.34 0 0 Z " fill="#FCCF43" transform="translate(113,12)"/>
<path d="M0 0 C5.75761924 1.78157408 11.95177926 1.67855734 17.94140625 1.91015625 C17.94140625 2.57015625 17.94140625 3.23015625 17.94140625 3.91015625 C11.4554988 4.95127805 5.9965488 4.83280075 -0.41796875 3.3828125 C-5.10884728 2.543173 -7.93580812 2.28452446 -12.19921875 4.66015625 C-13.2253125 5.40265625 -14.25140625 6.14515625 -15.30859375 6.91015625 C-20.89192708 10.91015625 -20.89192708 10.91015625 -23.05859375 10.91015625 C-23.05859375 17.18015625 -23.05859375 23.45015625 -23.05859375 29.91015625 C-23.71859375 29.58015625 -24.37859375 29.25015625 -25.05859375 28.91015625 C-26.58082717 11.97953783 -26.58082717 11.97953783 -23.11328125 7.265625 C-20.50970359 5.50203952 -17.91850341 4.20862098 -15.05859375 2.91015625 C-13.71710582 1.87901254 -12.38299122 0.83816079 -11.05859375 -0.21484375 C-6.86388904 -2.78337069 -4.39125534 -1.6974023 0 0 Z " fill="#F8B42A" transform="translate(56.05859375,27.08984375)"/>
<path d="M0 0 C1.09183594 0.54011719 2.18367188 1.08023438 3.30859375 1.63671875 C6.31816768 4.27937801 6.43653575 4.76399327 6.8046875 8.546875 C6.85762568 10.28060033 6.88012415 12.01547421 6.875 13.75 C6.895625 14.63816406 6.91625 15.52632812 6.9375 16.44140625 C6.98453518 18.62854194 7.0044488 20.81246268 7 23 C5 21 5 21 4.8046875 17.5234375 C4.81798507 16.14049032 4.84183768 14.75761346 4.875 13.375 C4.88402344 12.66859375 4.89304688 11.9621875 4.90234375 11.234375 C4.92592397 9.48943902 4.96179539 7.74467705 5 6 C3.92105469 5.62294922 3.92105469 5.62294922 2.8203125 5.23828125 C-0.2252053 3.90112177 -2.47787145 2.19062563 -5.125 0.1875 C-9.14678944 -2.475579 -9.14678944 -2.475579 -13.80859375 -2.7890625 C-15.65397283 -2.21843464 -17.48340894 -1.5936413 -19.29296875 -0.91796875 C-24.92208522 0.9908947 -31.29527407 0.52126025 -37 -1 C-34.21677294 -3.78322706 -32.32530336 -3.29909923 -28.4375 -3.4375 C-23.88419377 -3.6552064 -20.47225963 -4.01550777 -16.375 -6 C-10.1297547 -8.43973134 -4.9508135 -3.46757383 0 0 Z " fill="#F8B42A" transform="translate(158,32)"/>
<path d="M0 0 C-0.60423561 4.57492673 -0.60423561 4.57492673 -2 7 C-7.22653674 10.19093822 -13.05307602 10.32437767 -19 10 C-19 8.35 -19 6.7 -19 5 C-16.39741676 4.16142312 -13.79314353 3.32896656 -11.1875 2.5 C-10.08051758 2.14228516 -10.08051758 2.14228516 -8.95117188 1.77734375 C-5.86744804 0.80059864 -3.25504191 0 0 0 Z " fill="#8BD2DC" transform="translate(89,50)"/>
<path d="M0 0 C0 7.26 0 14.52 0 22 C-1.65 21.67 -3.3 21.34 -5 21 C-5.08687496 17.87517438 -5.14034568 14.75065754 -5.1875 11.625 C-5.21263672 10.73554687 -5.23777344 9.84609375 -5.26367188 8.9296875 C-5.27333984 8.07890625 -5.28300781 7.228125 -5.29296875 6.3515625 C-5.3086792 5.56604004 -5.32438965 4.78051758 -5.34057617 3.97119141 C-5.22818604 3.32069824 -5.1157959 2.67020508 -5 2 C-2 0 -2 0 0 0 Z " fill="#B8621B" transform="translate(38,36)"/>
<path d="M0 0 C1.65 0.33 3.3 0.66 5 1 C3.57497833 4.90455937 1.73347873 8.24835962 -0.5 11.75 C-1.1084375 12.71421875 -1.716875 13.6784375 -2.34375 14.671875 C-4 17 -4 17 -6 18 C-4.83805848 11.53287812 -2.8751252 5.90377651 0 0 Z " fill="#FBCE3D" transform="translate(88,130)"/>
<path d="M0 0 C0 2.31 0 4.62 0 7 C-6.460199 7.36567164 -6.460199 7.36567164 -8.9375 5.6875 C-10 4 -10 4 -10 1 C-6.56484998 0.37542727 -3.50935186 0 0 0 Z " fill="#DA8C07" transform="translate(173,70)"/>
<path d="M0 0 C0.680625 0.4125 1.36125 0.825 2.0625 1.25 C-2.17344655 5.07601624 -6.72157302 7.11362904 -11.9375 9.25 C-11.32554121 6.25820147 -10.74710222 3.97613808 -8.421875 1.890625 C-5.31853841 -0.0793191 -3.6135208 -0.92260105 0 0 Z " fill="#934D17" transform="translate(48.9375,30.75)"/>
<path d="M0 0 C1.65 0 3.3 0 5 0 C5 3.63 5 7.26 5 11 C3.35 10.67 1.7 10.34 0 10 C0 6.7 0 3.4 0 0 Z " fill="#8CD3DC" transform="translate(95,32)"/>
<path d="M0 0 C0.33 0 0.66 0 1 0 C1.17015625 0.97839844 1.3403125 1.95679687 1.515625 2.96484375 C2.88788886 10.50315936 4.49455486 17.10998714 8 24 C5.43183246 23.00934418 4.21555202 22.35583191 2.76953125 19.96875 C0.47552655 14.0511542 -1.06149707 8.39569567 -1 2 C-0.67 1.34 -0.34 0.68 0 0 Z " fill="#F8B42A" transform="translate(36,111)"/>
<path d="M0 0 C2.0625 0.4375 2.0625 0.4375 4 1 C4.33 2.98 4.66 4.96 5 7 C3.35 7.33 1.7 7.66 0 8 C-0.38063221 5.6739143 -0.71269945 3.33944736 -1 1 C-0.67 0.67 -0.34 0.34 0 0 Z " fill="#8CD3DC" transform="translate(96,157)"/>
<path d="M0 0 C0.66 0.33 1.32 0.66 2 1 C0.83593677 2.16406323 -0.32870939 3.32754865 -1.49609375 4.48828125 C-2.5403339 5.53794602 -3.57347976 6.59871848 -4.59765625 7.66796875 C-6.02861348 9.14814809 -7.51152221 10.57767678 -9 12 C-9.66 12 -10.32 12 -11 12 C-9.60609461 8.84280428 -7.96365028 6.7187347 -5.5 4.3125 C-4.8915625 3.71050781 -4.283125 3.10851562 -3.65625 2.48828125 C-2 1 -2 1 0 0 Z " fill="#FDDF83" transform="translate(153,148)"/>
<path d="M0 0 C-4.625 4.875 -4.625 4.875 -8 6 C-8.33 4.68 -8.66 3.36 -9 2 C-5.5647952 -0.29013653 -4.014669 -0.17842973 0 0 Z " fill="#B8621B" transform="translate(144,143)"/>
<path d="M0 0 C1.32 0.33 2.64 0.66 4 1 C-0.455 3.97 -0.455 3.97 -5 7 C-5 6.01 -5 5.02 -5 4 C-2.75 1.75 -2.75 1.75 0 0 Z " fill="#FDF19E" transform="translate(109,185)"/>
</svg>
